<svg width="114" height="48" viewBox="0 0 114 48" fill="none" xmlns="http://www.w3.org/2000/svg">
<path d="M65.3844 28.6766C65.9833 28.78 66.5277 28.8317 67.1266 28.8317C68.0522 28.8317 68.7055 28.6766 69.1955 28.3156C69.6855 27.9546 69.9033 27.5425 69.9033 27.0263C69.9033 26.6654 69.7944 26.3556 69.5766 26.0463C69.3589 25.7366 69.0322 25.479 68.5422 25.3244C68.0522 25.1692 67.4533 25.0663 66.7455 25.0663H65.9289C65.7111 25.0663 65.5477 25.0663 65.3844 25.1181V28.6766ZM65.3844 24.5502C65.5477 24.6019 65.7655 24.6019 66.0377 24.6019H66.8C67.5077 24.6019 68.1066 24.5502 68.4333 24.3956C68.8144 24.241 69.0866 24.0346 69.3044 23.7766C69.5222 23.519 69.5766 23.2092 69.5766 22.8483C69.5766 22.3327 69.3589 21.92 68.8689 21.559C68.3789 21.1981 67.6711 21.0429 66.7455 21.0429C66.2555 21.0429 65.82 21.0946 65.3844 21.1981V24.5502ZM69.3589 24.86C70.0666 24.9634 70.6111 25.1692 70.9377 25.479C71.4277 25.8917 71.6455 26.3556 71.6455 26.9229C71.6455 27.3356 71.4822 27.7483 71.1555 28.161C70.8289 28.5737 70.3933 28.8317 69.8489 29.0375C69.3044 29.2444 68.4333 29.2956 67.29 29.2956H62.4989V29.0381H62.88C63.3155 29.0381 63.5877 28.9346 63.8055 28.6766C63.9144 28.5219 63.9689 28.2127 63.9689 27.6966V22.1781C63.9689 21.6619 63.9144 21.3015 63.7511 21.1463C63.5333 20.9395 63.2611 20.8883 62.88 20.8883H62.4989V20.6308H66.9089C67.7255 20.6308 68.3789 20.6825 68.8689 20.7859C69.6311 20.9405 70.1755 21.1986 70.6111 21.6108C70.9922 22.0234 71.21 22.4361 71.21 22.9523C71.21 23.365 71.0466 23.7771 70.72 24.1386C70.3933 24.4479 69.9577 24.7059 69.3589 24.8605V24.86ZM79.3222 25.9434L77.58 22.4356L75.7833 25.9429H79.3222V25.9434ZM79.54 26.4073H75.5655L74.8577 27.8C74.6944 28.161 74.5855 28.3673 74.5855 28.5731C74.5855 28.7283 74.64 28.8317 74.8033 28.9346C74.9666 29.0381 75.2933 29.0892 75.7833 29.1415V29.399H72.5711V29.141C73.0066 29.0892 73.2789 28.9863 73.3877 28.8829C73.66 28.6766 73.9322 28.2644 74.2589 27.6454L77.8522 20.4756H78.1244L81.6633 27.6966C81.9355 28.2644 82.2077 28.6766 82.4255 28.8317C82.6433 28.9863 82.97 29.0892 83.4055 29.141V29.399H79.3766V29.141C79.7577 29.141 80.0844 29.0892 80.1933 28.9863C80.3566 28.8829 80.4111 28.7795 80.4111 28.6254C80.4111 28.4185 80.3022 28.161 80.0844 27.7488L79.54 26.4073ZM83.4055 20.6308H86.1822L92.4433 27.1292V22.1258C92.4433 21.6102 92.3889 21.2492 92.2255 21.1458C92.0622 20.9917 91.7355 20.8883 91.3544 20.8883H90.9733V20.6308H94.5122V20.8888H94.1311C93.6955 20.8888 93.3689 20.9923 93.2055 21.1986C93.0966 21.3532 93.0422 21.6625 93.0422 22.1269V29.4508H92.77L86.0189 22.4356V27.8C86.0189 28.3156 86.0733 28.6766 86.2366 28.78C86.4 28.9346 86.7266 29.0381 87.1077 29.0381H87.4889V29.2956H83.95V29.0381H84.3311C84.7666 29.0381 85.0933 28.9346 85.2566 28.7283C85.3655 28.5737 85.42 28.2644 85.42 27.8V21.7654C85.1477 21.4556 84.8755 21.2492 84.7666 21.1981C84.6033 21.0946 84.3855 20.9912 84.1133 20.94C83.95 20.8883 83.7322 20.8883 83.46 20.8883V20.6308H83.4055ZM99.3578 24.499L103.114 27.6966C103.713 28.2127 104.258 28.5731 104.693 28.78C105.129 28.9863 105.564 29.0892 106 29.0892V29.3473H101.154V29.0892C101.427 29.0892 101.644 29.0381 101.808 28.9858C101.917 28.8829 102.026 28.8317 102.026 28.7283C102.026 28.6248 102.026 28.5219 101.971 28.4702C101.917 28.3673 101.753 28.2127 101.481 28.0063L97.9422 25.0146V27.8C97.9422 28.2644 97.9966 28.5219 98.0511 28.6766C98.1055 28.78 98.2144 28.8834 98.3778 28.9346C98.5955 29.0381 98.8133 29.0892 99.0855 29.0892H99.4122V29.3473H95.0566V29.0892H95.4378C95.8733 29.0892 96.1455 28.9858 96.3633 28.78C96.4722 28.6254 96.5266 28.3156 96.5266 27.8V22.1781C96.5266 21.7137 96.4722 21.4556 96.4177 21.3015C96.3633 21.1981 96.2544 21.0946 96.0911 21.0429C95.8733 20.9395 95.6555 20.8883 95.3833 20.8883H95.0022V20.6308H99.3578V20.8888H99.0311C98.8133 20.8888 98.5411 20.9405 98.3233 21.0434C98.16 21.0952 98.0511 21.1986 97.9966 21.3532C97.9422 21.5079 97.8878 21.7659 97.8878 22.1786V24.8088C97.9966 24.7054 98.3233 24.4479 98.9222 23.9834C100.392 22.7971 101.318 22.0234 101.644 21.6625C101.753 21.5079 101.862 21.3532 101.862 21.1986C101.862 21.0952 101.808 20.9917 101.699 20.9405C101.59 20.8888 101.427 20.8371 101.154 20.8371H100.937V20.5796H104.693V20.8371C104.476 20.8371 104.258 20.8888 104.094 20.8888C103.931 20.9405 103.713 21.0434 103.441 21.1469C103.169 21.3015 102.842 21.5079 102.461 21.8171C102.352 21.9205 101.862 22.3332 100.937 23.1069L99.3578 24.4996V24.499ZM30.2133 25.7883L28.6889 22.4356L27.2189 25.7883H30.2133ZM34.2422 29.2956H30.1044V28.8829C30.4855 28.8829 30.7577 28.8317 31.03 28.7795C31.2477 28.7283 31.4111 28.6254 31.4111 28.5737V28.419C31.4111 28.3673 31.4111 28.3156 31.3566 28.2644L30.54 26.3044H27.0555C26.9466 26.6137 26.8377 26.82 26.7289 27.0263C26.62 27.2327 26.5655 27.439 26.5111 27.5937C26.4566 27.7483 26.4022 27.9029 26.4022 28.0063C26.4022 28.1098 26.3477 28.2127 26.3477 28.2644C26.3477 28.419 26.5111 28.5737 26.7833 28.6254C27.0555 28.7288 27.4366 28.78 27.7633 28.78V29.1927H24.0066V28.78C24.1155 28.78 24.2789 28.7283 24.4422 28.7283C24.6055 28.6766 24.7689 28.6248 24.8777 28.5737C25.0411 28.4702 25.2044 28.3673 25.3133 28.2127C25.4222 28.1092 25.5311 27.9029 25.64 27.6966C26.13 26.6131 26.6744 25.3756 27.2733 24.0346C27.8722 22.6937 28.4166 21.4556 28.9066 20.4244H29.4511L32.7722 27.9029C32.8266 28.0581 32.9355 28.2127 32.99 28.2644C33.0989 28.3673 33.2077 28.4702 33.3711 28.5737C33.48 28.6254 33.6433 28.6771 33.8066 28.7283C33.97 28.78 34.1333 28.78 34.2422 28.78V29.2956ZM44.1511 25.84C44.0422 25.84 43.8789 25.8917 43.7155 25.8917C43.5522 25.9429 43.3889 25.9429 43.28 25.9952C43.1166 26.0463 43.0622 26.1492 43.0077 26.2527C42.9533 26.3561 42.8989 26.5102 42.8989 26.6654V28.7283C42.3 28.9863 41.6466 29.141 41.0477 29.2956C40.4489 29.4502 39.85 29.5025 39.2511 29.5025C38.5977 29.5025 37.9989 29.399 37.4 29.1921C36.8011 28.9863 36.3111 28.6766 35.8755 28.3156C35.44 27.9546 35.0589 27.439 34.8411 26.9229C34.5689 26.3556 34.46 25.7366 34.46 25.0663C34.46 24.3956 34.5689 23.7766 34.8411 23.2098C35.1133 22.6419 35.44 22.1781 35.8755 21.7654C36.3111 21.3527 36.8555 21.0429 37.4544 20.8366C38.0533 20.6302 38.7066 20.4756 39.4144 20.4756C39.9589 20.4756 40.4489 20.5273 40.8844 20.6302C41.32 20.7337 41.6466 20.8883 41.9733 21.0429L42.2455 20.6302H42.79L42.8444 23.6737H42.3C42.1911 23.3644 42.0822 23.0029 41.9189 22.6937C41.7555 22.3844 41.5922 22.0746 41.3744 21.8171C41.1566 21.559 40.8844 21.3527 40.5577 21.1981C40.2311 21.0429 39.85 20.9912 39.36 20.9912C38.87 20.9912 38.4344 21.0946 37.9989 21.2492C37.6177 21.4044 37.2911 21.7137 36.9644 22.0229C36.6922 22.3844 36.4744 22.7966 36.3111 23.3127C36.1477 23.8283 36.0933 24.3961 36.0933 25.0146C36.0933 25.5819 36.1477 26.0981 36.3111 26.5619C36.4744 27.0263 36.6922 27.4902 36.9644 27.8C37.2366 28.161 37.6177 28.4702 38.0533 28.6766C38.4889 28.8834 38.9789 28.9863 39.5233 28.9863C39.9589 28.9863 40.2855 28.9346 40.6666 28.8317C40.9933 28.7283 41.2655 28.6248 41.3744 28.4702C41.4289 28.2644 41.4289 28.0581 41.4289 27.8517V26.82C41.4289 26.6654 41.4289 26.5102 41.3744 26.3556C41.32 26.201 41.2111 26.1492 41.0477 26.0463C40.8844 25.9946 40.6666 25.9429 40.3944 25.8917C40.1222 25.84 39.9044 25.84 39.7955 25.84V25.3756H44.1511V25.84ZM51.6644 22.8483C51.6644 22.3327 51.5011 21.92 51.12 21.6102C50.7933 21.301 50.3033 21.1463 49.65 21.1463H48.4522V24.8595H49.3777C50.0311 24.8595 50.5755 24.7054 51.0111 24.3444C51.4466 23.9829 51.6644 23.4673 51.6644 22.8483ZM55.3666 29.2956H52.6989C52.1 28.4702 51.5555 27.8 51.0655 27.181C50.5755 26.6137 50.0855 25.9946 49.4866 25.3756H48.4522V28.1092C48.4522 28.2644 48.4522 28.3673 48.5066 28.4702C48.5611 28.5737 48.67 28.6771 48.8333 28.7283C48.9422 28.78 49.0511 28.78 49.2689 28.8317C49.4866 28.8317 49.65 28.8829 49.8133 28.8829V29.2956H45.6211V28.8829C45.73 28.8829 45.8933 28.8829 46.1111 28.8317C46.3289 28.8317 46.4922 28.78 46.5466 28.7283C46.71 28.6766 46.7644 28.5737 46.8733 28.4702C46.9277 28.3673 46.9822 28.2644 46.9822 28.0581V21.8683C46.9822 21.7137 46.9822 21.6102 46.9277 21.5073C46.8733 21.4039 46.7644 21.301 46.6011 21.2492C46.4922 21.1981 46.3289 21.1981 46.1655 21.1458C46.0022 21.0946 45.8389 21.0946 45.6755 21.0946V20.6819H50.2489C50.6844 20.6819 51.0655 20.7337 51.4466 20.7854C51.8277 20.8366 52.1544 20.9917 52.4266 21.1463C52.6989 21.301 52.9711 21.5073 53.1344 21.7654C53.2977 22.0229 53.4066 22.3327 53.4066 22.6937C53.4066 23.0029 53.3522 23.3127 53.2433 23.5702C53.1344 23.8283 52.9711 24.0346 52.6989 24.241C52.4811 24.3956 52.2633 24.5502 51.9366 24.7054C51.6644 24.86 51.3377 24.9629 50.9566 25.0146C51.4466 25.5819 51.8277 26.0463 52.1544 26.459C52.4811 26.8717 52.8622 27.3356 53.3522 27.8517C53.57 28.1092 53.7333 28.2644 53.8966 28.3673L54.3866 28.6766C54.4955 28.7283 54.6589 28.78 54.8222 28.78C54.9855 28.8317 55.1489 28.8317 55.2577 28.8317V29.2956H55.3666ZM60.8111 29.2956H56.3466V28.9346C56.4555 28.9346 56.6733 28.9346 56.8911 28.8829C57.1089 28.8829 57.2722 28.8317 57.3811 28.8317C57.5444 28.78 57.6533 28.7283 57.7077 28.6248C57.7622 28.5219 57.8166 28.419 57.8166 28.2644V21.92C57.8166 21.7654 57.8166 21.4044 57.7622 21.3527C57.7077 21.2492 57.5989 21.1981 57.3811 21.1458C57.2177 21.0946 57.0544 21.0429 56.8366 21.0429C56.6189 20.9917 56.4555 20.9917 56.2922 20.9917V20.579H60.7566V20.9917C60.5933 20.9917 60.43 20.9917 60.2122 21.0429C59.9944 21.0429 59.8311 21.0946 59.6677 21.1463C59.5044 21.1981 59.3955 21.2498 59.2866 21.3527C59.2322 21.4561 59.1777 21.559 59.1777 21.6619V28.2644C59.1777 28.3673 59.2322 28.4702 59.2866 28.5737C59.3411 28.6771 59.45 28.7283 59.6133 28.78C59.7222 28.8317 59.8855 28.8317 60.1033 28.8834C60.3211 28.9346 60.5389 28.9346 60.6477 28.9346V29.2956H60.8111Z" fill="#AE1C3F"/>
<path d="M20.25 18.5673C20.25 18.2581 19.9777 18 19.6511 18H8.59886C8.27219 18 7.99997 18.2581 7.99997 18.5673V28.9863C7.99997 29.2956 8.27219 29.5537 8.59886 29.5537H19.7055C20.0322 29.5537 20.3044 29.2956 20.3044 28.9863V18.5673H20.25Z" fill="white"/>
<path d="M19.76 19.2893C19.76 18.8766 19.3788 18.5161 18.9433 18.5161H16.4933L8.48996 25.9941V28.3151C8.48996 28.7277 8.87107 29.0887 9.30663 29.0887H11.7566L19.76 21.559V19.2893Z" fill="#AE1C3F"/>
<path d="M19.76 22.0229V28.3156C19.76 28.7283 19.3788 29.0892 18.9433 29.0892H12.2466L19.76 22.0229ZM9.30663 18.5156C8.87107 18.5156 8.48996 18.8765 8.48996 19.2892V25.5307L15.9488 18.5156H9.30663Z" fill="#053F2B"/>
<path d="M12.5189 28.9347C12.5189 28.9347 12.9544 28.78 13.3355 28.7278C13.4989 28.6766 14.37 28.522 14.3155 27.6449C14.3155 27.4385 13.9344 27.6966 13.9344 27.6966C13.9344 27.6966 13.2266 27.8 12.9544 27.9547C12.8455 28.0581 12.5189 28.3673 12.5189 28.9347Z" fill="#FCDC08"/>
<path d="M12.5189 28.9863C12.5189 28.3673 12.9 28.0063 13.0089 27.9546C13.2811 27.8 13.88 27.6966 13.9889 27.6966C14.0433 27.6448 14.2066 27.5419 14.3155 27.5419C14.3155 27.5419 14.37 27.5937 14.37 27.6454C14.4244 28.4185 13.6622 28.6766 13.39 28.7283C12.9544 28.8317 12.5733 28.9858 12.5189 28.9858V28.9863ZM14.2611 27.5937C14.2066 27.5937 14.0977 27.6448 13.9889 27.7483C13.9889 27.7483 13.2811 27.8517 13.0089 28.0058C12.9 28.0575 12.5733 28.3673 12.5733 28.8829C12.6822 28.8312 13.0633 28.7283 13.3355 28.6766C13.6077 28.6248 14.3155 28.3673 14.2611 27.6448C14.3155 27.6448 14.3155 27.5937 14.2611 27.5937Z" fill="#9A232B"/>
<path d="M15.4588 26.2521C15.4588 26.2521 15.6222 27.181 14.8055 27.4902C14.4788 27.6448 13.9344 27.7483 13.8799 27.8512C13.8799 27.8512 13.7166 27.181 14.3155 26.82C14.5333 26.7165 14.9144 26.5619 15.1322 26.4585C15.4044 26.4073 15.4588 26.2521 15.4588 26.2521Z" fill="#FCDC08"/>
<path d="M13.88 27.9029C13.88 27.8512 13.6622 27.181 14.3156 26.7683C14.4789 26.6649 14.8056 26.5614 15.0778 26.4585L15.1867 26.4073C15.4044 26.3039 15.5133 26.2004 15.5133 26.2004H15.5678C15.5678 26.2004 15.7311 27.1804 14.9144 27.4908C14.8056 27.5419 14.6422 27.5937 14.5333 27.6448C14.2067 27.7483 13.9889 27.8517 13.88 27.9029ZM15.4589 26.3556C15.4044 26.4073 15.2956 26.4591 15.1867 26.5102H15.0778C14.86 26.6137 14.5333 26.7171 14.3156 26.82C13.8256 27.1293 13.88 27.6449 13.88 27.8C13.9889 27.7483 14.1522 27.6966 14.37 27.5931C14.5333 27.5419 14.6422 27.4902 14.7511 27.4385C15.4589 27.2322 15.4589 26.562 15.4589 26.3551V26.3556Z" fill="#9A232B"/>
<path d="M15.8944 25.0664C15.8944 25.0664 16.3844 25.6337 15.84 26.3039C15.7311 26.4585 15.1322 26.82 14.9688 26.9746C14.9688 26.9746 14.6422 26.3556 15.0233 25.84C15.1322 25.6849 15.4588 25.4273 15.6222 25.3239C15.7855 25.2722 15.8944 25.0658 15.8944 25.0658V25.0664Z" fill="#FCDC08"/>
<path d="M14.9688 27.0775C14.9688 27.0258 14.6422 26.4073 15.0233 25.8912C15.1322 25.7366 15.4588 25.4785 15.6222 25.3756C15.7855 25.2721 15.8944 25.0658 15.8944 25.0658V25.0146V25.0658C15.8944 25.0658 16.3844 25.6848 15.84 26.3556C15.7855 26.459 15.5677 26.5619 15.4044 26.7166C15.2411 26.82 15.0777 26.9229 14.9688 27.0775ZM15.8944 25.1175C15.84 25.1692 15.7311 25.3244 15.6222 25.3756C15.4588 25.479 15.1322 25.7366 15.0233 25.8912C14.7511 26.3039 14.9144 26.7677 14.9688 26.9229C15.0777 26.8195 15.2411 26.7166 15.4044 26.6137C15.5677 26.4585 15.7855 26.3556 15.84 26.2521C16.2755 25.7366 16.0033 25.2721 15.8944 25.1175Z" fill="#9A232B"/>
<path d="M15.2955 23.8283C15.2955 23.8283 14.8055 24.0858 15.1322 24.8083C15.1866 24.9118 15.5133 25.4785 15.5133 25.6849C15.5133 25.6849 16.1666 25.3239 15.8944 24.5502C15.8944 24.3956 15.5678 23.9312 15.2955 23.8283Z" fill="#FCDC08"/>
<path d="M15.5133 25.7366C15.5133 25.582 15.2955 25.221 15.1866 25.0146C15.1322 24.9112 15.0777 24.86 15.0777 24.8078C14.751 24.0858 15.241 23.7766 15.241 23.7766C15.5677 23.88 15.8399 24.3439 15.8944 24.4985C16.221 25.3239 15.5677 25.7366 15.5133 25.7366ZM15.2955 23.88C15.241 23.9312 14.9144 24.1893 15.1866 24.8083C15.1866 24.86 15.241 24.9117 15.2955 25.0146C15.4044 25.221 15.5677 25.4785 15.5677 25.6337C15.6766 25.5302 16.1122 25.1693 15.8944 24.5502C15.8399 24.4468 15.5677 23.9829 15.2955 23.88Z" fill="#9A232B"/>
<path d="M14.0978 22.8483C14.0978 22.8483 13.9344 23.3121 14.3155 23.7248C14.4789 23.88 15.1867 24.0858 15.5133 24.3439C15.5133 24.3439 15.8944 23.1575 14.0978 22.8483Z" fill="#FCDC08"/>
<path d="M15.5133 24.3956C15.3499 24.2921 15.0777 24.1887 14.8599 24.0858C14.5877 23.9829 14.3699 23.88 14.2611 23.7765C13.8799 23.3121 14.0433 22.8483 14.0433 22.8483C14.6966 22.9517 15.1322 23.2092 15.3499 23.5702C15.6766 23.9312 15.5677 24.3439 15.5133 24.3956ZM14.0977 22.8483C14.0977 22.9517 13.9888 23.3121 14.3155 23.6736C14.3699 23.7771 14.6422 23.88 14.9144 23.9829C15.1322 24.0863 15.3499 24.1892 15.5133 24.241C15.5133 24.1375 15.5677 23.8283 15.4044 23.5185C15.1322 23.2098 14.7511 23.0029 14.0977 22.8483Z" fill="#9A232B"/>
<path d="M13.0633 22.0229C13.0633 22.0229 14.6422 22.1264 14.4244 23.4673C14.4244 23.4673 14.0977 23.2604 13.7711 23.1575C13.6622 23.1058 13.0088 22.9 13.0633 22.3844C13.1177 22.1775 13.0633 22.0229 13.0633 22.0229Z" fill="#FCDC08"/>
<path d="M14.4788 23.5185C14.4244 23.5185 14.0977 23.3122 13.8255 23.1575H13.7711C13.5533 23.0541 13.0633 22.8483 13.1177 22.3844V22.0229H13.1722C13.2266 22.0229 13.9344 22.0746 14.3155 22.5385C14.4788 22.7454 14.5333 23.0546 14.4788 23.5185ZM13.1177 22.0229V22.3322C13.0633 22.7966 13.5533 23.0029 13.7711 23.0546H13.8255C14.0433 23.1581 14.3155 23.3122 14.4244 23.3639C14.4788 23.0029 14.3699 22.7449 14.2066 22.4873C13.8799 22.1258 13.2811 22.0746 13.1177 22.0229Z" fill="#9A232B"/>
<path d="M13.1177 20.7337C13.1177 20.7337 12.5188 21.1458 12.8455 21.8683C12.8999 22.0229 13.1722 22.3839 13.3355 22.4356C13.3355 22.4356 13.4988 21.9712 13.6077 21.6102C13.6622 21.4556 13.771 20.8883 13.3899 20.682C13.2266 20.5785 13.1177 20.7337 13.1177 20.7337Z" fill="#FCDC08"/>
<path d="M13.3355 22.4873C13.1177 22.3839 12.8455 22.0229 12.791 21.8683C12.5188 21.1975 13.0088 20.7848 13.0633 20.7336C13.1177 20.6819 13.2266 20.5785 13.3899 20.6819C13.8255 20.94 13.6077 21.6102 13.6077 21.6102C13.5533 21.9712 13.3899 22.4356 13.3355 22.4868V22.4873ZM13.281 20.6819C13.1722 20.6819 13.1177 20.7336 13.1177 20.7854C13.1177 20.7854 12.5733 21.1975 12.8455 21.8683C12.8999 21.9717 13.1722 22.3321 13.3355 22.4356C13.3899 22.3321 13.4988 21.92 13.6077 21.6619C13.6077 21.6102 13.771 20.9912 13.3899 20.7854C13.3355 20.6819 13.3355 20.6819 13.281 20.6819Z" fill="#9A232B"/>
<path d="M13.0089 21.1463C13.0089 21.1463 12.5733 19.9077 14.1522 19.5468C14.1522 19.5468 14.5333 20.0106 13.9344 20.5268C13.7711 20.6814 13.1177 20.9906 13.0089 21.1452V21.1463Z" fill="#FCDC08"/>
<path d="M13.0089 21.1975V21.1464C13.0089 21.1464 12.8455 20.6308 13.1177 20.1664C13.3355 19.8571 13.6622 19.5991 14.2066 19.4962C14.2066 19.4962 14.5877 20.0117 13.9889 20.5279C13.9344 20.5791 13.7711 20.6825 13.5533 20.7854C13.3355 20.9406 13.0633 21.0952 13.0089 21.1981V21.1975ZM14.1522 19.5985C13.6622 19.702 13.2811 19.9083 13.1177 20.2175C12.9 20.5785 13.0089 20.94 13.0089 21.0941C13.1177 20.9912 13.2811 20.8883 13.4989 20.7849C13.6622 20.6814 13.8255 20.5785 13.9344 20.5273C14.4244 20.1146 14.2066 19.702 14.1522 19.5985Z" fill="#9A232B"/>
<path d="M15.5133 18.6185C15.5133 18.6185 13.8255 18.5673 13.88 20.0112C13.88 20.0112 14.9144 19.702 15.2411 19.3922C15.4044 19.2375 15.5133 18.98 15.5133 18.6191V18.6185Z" fill="#FCDC08"/>
<path d="M13.88 20.0112C13.88 19.5985 13.9889 19.2381 14.2067 19.0312C14.6967 18.5673 15.4589 18.5673 15.5133 18.5673H15.5678V18.6185C15.5678 18.98 15.4589 19.2375 15.2956 19.3922C14.9689 19.7019 13.9344 20.0112 13.88 20.0112ZM15.5133 18.6702C15.35 18.6702 14.6967 18.7219 14.2611 19.0829C14.0433 19.2893 13.9344 19.5985 13.9344 19.9595C14.0978 19.9083 14.9689 19.6502 15.2411 19.3922C15.35 19.2375 15.5133 18.98 15.5133 18.6702Z" fill="#9A232B"/>
</svg>
