<svg width="171" height="48" viewBox="0 0 171 48" fill="none" xmlns="http://www.w3.org/2000/svg">
<rect x="0.333496" width="170.667" height="48" rx="8" fill="#00060C"/>
<path d="M35.7801 23.6716C35.7954 22.4844 36.1107 21.3203 36.6968 20.2877C37.2829 19.2551 38.1206 18.3876 39.1321 17.7657C38.4895 16.8481 37.6418 16.0928 36.6564 15.5601C35.6709 15.0273 34.5748 14.7317 33.455 14.6967C31.0665 14.4459 28.7509 16.1259 27.5337 16.1259C26.293 16.1259 24.419 14.7215 22.401 14.7631C21.0957 14.8052 19.8236 15.1848 18.7086 15.8648C17.5936 16.5448 16.6738 17.502 16.0387 18.6432C13.2878 23.406 15.3398 30.4057 17.9749 34.2555C19.2933 36.1407 20.8342 38.2465 22.8504 38.1718C24.8233 38.09 25.5602 36.9137 27.9417 36.9137C30.3011 36.9137 30.9924 38.1718 33.0495 38.1244C35.1666 38.09 36.5005 36.2308 37.7726 34.3278C38.7199 32.9845 39.4488 31.4999 39.9324 29.929C38.7025 29.4088 37.6528 28.538 36.9144 27.4253C36.176 26.3125 35.7815 25.0071 35.7801 23.6716Z" fill="white"/>
<path d="M31.8948 12.1649C33.0491 10.7792 33.6178 8.99807 33.48 7.19983C31.7165 7.38505 30.0875 8.22791 28.9176 9.56046C28.3456 10.2114 27.9075 10.9688 27.6283 11.7892C27.3492 12.6096 27.2345 13.4769 27.2908 14.3417C28.1729 14.3508 29.0455 14.1596 29.843 13.7825C30.6405 13.4055 31.342 12.8524 31.8948 12.1649Z" fill="white"/>
<path d="M60.1824 32.568H54.5023L53.1383 36.5957H50.7324L56.1125 21.6941H58.6121L63.9922 36.5957H61.5453L60.1824 32.568ZM55.0906 30.7094H59.593L57.3735 24.1726H57.3114L55.0906 30.7094Z" fill="white"/>
<path d="M75.6105 31.1643C75.6105 34.5405 73.8035 36.7097 71.0765 36.7097C70.3857 36.7458 69.6987 36.5867 69.0942 36.2505C68.4896 35.9143 67.9919 35.4147 67.6581 34.8089H67.6065V40.1901H65.3765V25.7315H67.5351V27.5386H67.5761C67.9253 26.9356 68.4313 26.4386 69.0405 26.1004C69.6496 25.7621 70.3391 25.5954 71.0355 25.6178C73.7929 25.6179 75.6105 27.7975 75.6105 31.1643ZM73.3183 31.1643C73.3183 28.9647 72.1816 27.5186 70.4472 27.5186C68.7433 27.5186 67.5972 28.9952 67.5972 31.1643C67.5972 33.3534 68.7433 34.8194 70.4472 34.8194C72.1816 34.8194 73.3183 33.3839 73.3183 31.1643Z" fill="white"/>
<path d="M87.569 31.1643C87.569 34.5405 85.7619 36.7096 83.035 36.7096C82.3442 36.7458 81.6572 36.5867 81.0527 36.2505C80.4481 35.9143 79.9504 35.4147 79.6166 34.8088H79.565V40.1901H77.335V25.7315H79.4935V27.5385H79.5346C79.8837 26.9356 80.3898 26.4386 80.9989 26.1003C81.6081 25.7621 82.2976 25.5954 82.9939 25.6178C85.7514 25.6178 87.569 27.7975 87.569 31.1643ZM85.2768 31.1643C85.2768 28.9647 84.1401 27.5186 82.4057 27.5186C80.7018 27.5186 79.5557 28.9952 79.5557 31.1643C79.5557 33.3534 80.7018 34.8194 82.4057 34.8194C84.1401 34.8194 85.2768 33.3839 85.2768 31.1643Z" fill="white"/>
<path d="M95.4723 32.4434C95.6375 33.9212 97.0731 34.8914 99.0348 34.8914C100.914 34.8914 102.267 33.9211 102.267 32.5887C102.267 31.432 101.451 30.7395 99.52 30.2649L97.5887 29.7996C94.8524 29.1387 93.5821 27.859 93.5821 25.7824C93.5821 23.2113 95.8227 21.4453 99.0043 21.4453C102.153 21.4453 104.312 23.2113 104.384 25.7824H102.133C101.998 24.2953 100.769 23.3977 98.9727 23.3977C97.1762 23.3977 95.9469 24.3059 95.9469 25.6277C95.9469 26.6813 96.732 27.3012 98.6527 27.7757L100.295 28.1789C103.352 28.9019 104.622 30.1301 104.622 32.3097C104.622 35.0976 102.402 36.8437 98.8695 36.8437C95.5648 36.8437 93.3336 35.1386 93.1895 32.4433L95.4723 32.4434Z" fill="white"/>
<path d="M109.435 23.1602V25.7313H111.501V27.4973H109.435V33.4867C109.435 34.4172 109.849 34.8508 110.757 34.8508C111.002 34.8465 111.247 34.8293 111.491 34.7992V36.5547C111.082 36.6309 110.667 36.6655 110.252 36.6578C108.052 36.6578 107.194 35.8316 107.194 33.7246V27.4973H105.615V25.7313H107.194V23.1602H109.435Z" fill="white"/>
<path d="M112.697 31.1641C112.697 27.7457 114.71 25.5977 117.85 25.5977C121 25.5977 123.003 27.7457 123.003 31.1641C123.003 34.5918 121.01 36.7305 117.85 36.7305C114.69 36.7305 112.697 34.5918 112.697 31.1641ZM120.731 31.1641C120.731 28.8191 119.657 27.4352 117.85 27.4352C116.042 27.4352 114.969 28.8297 114.969 31.1641C114.969 33.5184 116.042 34.8918 117.85 34.8918C119.657 34.8918 120.731 33.5184 120.731 31.1641H120.731Z" fill="white"/>
<path d="M124.843 25.7314H126.97V27.5806H127.021C127.165 27.0031 127.504 26.4927 127.979 26.1352C128.455 25.7778 129.04 25.595 129.635 25.6177C129.892 25.6168 130.148 25.6447 130.399 25.7009V27.7869C130.074 27.6877 129.736 27.6422 129.397 27.6521C129.073 27.639 128.75 27.6961 128.45 27.8196C128.15 27.943 127.881 28.1299 127.66 28.3674C127.439 28.6048 127.272 28.8873 127.171 29.1953C127.07 29.5033 127.036 29.8296 127.073 30.1517V36.5959H124.843L124.843 25.7314Z" fill="white"/>
<path d="M140.681 33.4047C140.381 35.3769 138.461 36.7305 136.003 36.7305C132.843 36.7305 130.881 34.6129 130.881 31.2156C130.881 27.8078 132.853 25.5977 135.909 25.5977C138.915 25.5977 140.805 27.6625 140.805 30.9566V31.7207H133.132V31.8555C133.097 32.2553 133.147 32.6581 133.279 33.0371C133.411 33.4161 133.622 33.7627 133.899 34.0537C134.175 34.3448 134.51 34.5737 134.882 34.7253C135.254 34.8768 135.654 34.9476 136.055 34.9328C136.582 34.9822 137.111 34.8601 137.563 34.5848C138.015 34.3095 138.366 33.8956 138.564 33.4047L140.681 33.4047ZM133.143 30.1621H138.574C138.594 29.8026 138.54 29.4428 138.414 29.1054C138.289 28.7679 138.094 28.4601 137.844 28.2012C137.594 27.9422 137.293 27.7378 136.96 27.6008C136.627 27.4637 136.269 27.397 135.909 27.4047C135.546 27.4025 135.186 27.4723 134.85 27.61C134.514 27.7477 134.209 27.9506 133.951 28.2069C133.694 28.4633 133.49 28.768 133.351 29.1036C133.213 29.4392 133.142 29.799 133.143 30.1621V30.1621Z" fill="white"/>
<path d="M56.5229 17.3334H55.2104V10.0092H52.6206V8.8783H59.1069V10.0092H56.5229V17.3334Z" fill="white"/>
<path d="M60.6479 16.4369C61.0933 16.4369 61.4663 16.3021 61.7671 16.0326C62.0718 15.7592 62.2241 15.4232 62.2241 15.0248V14.5385L60.7065 14.6322C60.3276 14.6595 60.0347 14.7533 59.8276 14.9135C59.6245 15.0697 59.5229 15.2806 59.5229 15.5463C59.5229 15.8158 59.6245 16.0326 59.8276 16.1967C60.0347 16.3568 60.3081 16.4369 60.6479 16.4369ZM60.2964 17.4388C59.6909 17.4388 59.1968 17.267 58.814 16.9232C58.4351 16.5795 58.2456 16.1322 58.2456 15.5814C58.2456 15.0424 58.4448 14.6146 58.8433 14.2982C59.2417 13.9779 59.8062 13.7982 60.5366 13.7592L62.2241 13.6595V13.1849C62.2241 12.8412 62.1147 12.5736 61.896 12.3822C61.6772 12.1869 61.3745 12.0892 60.9878 12.0892C60.6284 12.0892 60.3354 12.1693 60.1089 12.3295C59.8862 12.4896 59.7456 12.7103 59.687 12.9916H58.4917C58.5269 12.4213 58.7729 11.9564 59.23 11.597C59.687 11.2377 60.2886 11.058 61.0347 11.058C61.7808 11.058 62.3745 11.2416 62.8159 11.6088C63.2612 11.976 63.4839 12.4681 63.4839 13.0853V17.3334H62.271V16.3197H62.2417C62.0659 16.6595 61.7983 16.931 61.439 17.1342C61.0835 17.3373 60.7026 17.4388 60.2964 17.4388ZM60.2026 9.05408V8.38025C60.4409 8.27869 60.7144 8.22791 61.0229 8.22791C61.3862 8.22791 61.6753 8.32751 61.8901 8.52673C62.1089 8.72205 62.2183 8.98572 62.2183 9.31775C62.2183 9.57556 62.1265 9.81384 61.9429 10.0326C61.7632 10.2513 61.519 10.4213 61.2104 10.5424L60.8062 10.0092C61.1694 9.87634 61.3511 9.66541 61.3511 9.37634C61.3511 9.24744 61.2983 9.14001 61.1929 9.05408C61.0874 8.96423 60.9565 8.91931 60.8003 8.91931C60.6245 8.91931 60.4253 8.96423 60.2026 9.05408Z" fill="white"/>
<path d="M64.7554 17.3334V11.1693H66.021V17.3334H64.7554ZM65.9097 10.056C65.7651 10.1967 65.5913 10.267 65.3882 10.267C65.1851 10.267 65.0112 10.1967 64.8667 10.056C64.7261 9.91541 64.6558 9.74548 64.6558 9.54626C64.6558 9.34314 64.7261 9.17126 64.8667 9.03064C65.0112 8.89001 65.1851 8.8197 65.3882 8.8197C65.5952 8.8197 65.769 8.89001 65.9097 9.03064C66.0542 9.17126 66.1265 9.34314 66.1265 9.54626C66.1265 9.74548 66.0542 9.91541 65.9097 10.056Z" fill="white"/>
<path d="M75.0151 11.1693L72.8062 17.3334H71.4468L69.2261 11.1693H70.5737L72.1206 16.097H72.144L73.6909 11.1693H75.0151Z" fill="white"/>
<path d="M79.2163 12.5228C78.939 12.226 78.5815 12.0775 78.144 12.0775C77.7065 12.0775 77.3433 12.2279 77.0542 12.5287C76.7651 12.8256 76.605 13.2103 76.5737 13.683H79.6558C79.6401 13.2064 79.4937 12.8197 79.2163 12.5228ZM79.6499 15.5228H80.8511C80.7612 16.0892 80.4722 16.5521 79.9839 16.9115C79.4956 17.2709 78.8999 17.4506 78.1968 17.4506C77.2944 17.4506 76.5835 17.1674 76.064 16.601C75.5483 16.0306 75.2905 15.2572 75.2905 14.2806C75.2905 13.3119 75.5483 12.5326 76.064 11.9427C76.5835 11.3529 77.2769 11.058 78.144 11.058C78.9956 11.058 79.6714 11.3373 80.1714 11.8959C80.6714 12.4506 80.9214 13.1967 80.9214 14.1342V14.5677H76.5679V14.6439C76.5679 15.183 76.7183 15.6146 77.019 15.9388C77.3198 16.2631 77.7222 16.4252 78.2261 16.4252C78.5815 16.4252 78.8862 16.3431 79.1401 16.1791C79.394 16.015 79.564 15.7963 79.6499 15.5228ZM78.6362 8.61462L80.2124 10.3138H79.1226L78.1616 9.27087H78.1265L77.1655 10.3138H76.0757L77.6519 8.61462H78.6362ZM80.5464 8.4447H79.562L78.2026 6.72791H79.3335L80.5464 8.4447Z" fill="white"/>
<path d="M84.7124 9.71033H85.9839V11.1693H87.1558V12.1713H85.9839V15.5697C85.9839 15.8353 86.0444 16.0306 86.1655 16.1556C86.2866 16.2806 86.4761 16.3431 86.7339 16.3431C86.9214 16.3431 87.0601 16.3334 87.1499 16.3138V17.3158C86.9937 17.3549 86.7593 17.3744 86.4468 17.3744C85.8257 17.3744 85.3804 17.2474 85.1108 16.9935C84.8452 16.7357 84.7124 16.308 84.7124 15.7103V12.1713H83.8159V11.1693H84.7124V9.71033Z" fill="white"/>
<path d="M88.1987 17.3334V11.1693H89.4058V12.2181H89.4351C89.5366 11.8588 89.7183 11.5775 89.98 11.3744C90.2417 11.1713 90.5542 11.0697 90.9175 11.0697C91.0386 11.0697 91.1831 11.0853 91.3511 11.1166V12.2943C91.2378 12.2474 91.0483 12.224 90.7827 12.224C90.3765 12.224 90.0542 12.351 89.8159 12.6049C89.5815 12.8588 89.4644 13.2045 89.4644 13.642V17.3334H88.1987Z" fill="white"/>
<path d="M95.5171 12.5228C95.2397 12.226 94.8823 12.0775 94.4448 12.0775C94.0073 12.0775 93.644 12.2279 93.355 12.5287C93.0659 12.8256 92.9058 13.2103 92.8745 13.683H95.9565C95.9409 13.2064 95.7944 12.8197 95.5171 12.5228ZM95.9507 15.5228H97.1519C97.062 16.0892 96.7729 16.5521 96.2847 16.9115C95.7964 17.2709 95.2007 17.4506 94.4976 17.4506C93.5952 17.4506 92.8843 17.1674 92.3647 16.601C91.8491 16.0306 91.5913 15.2572 91.5913 14.2806C91.5913 13.3119 91.8491 12.5326 92.3647 11.9427C92.8843 11.3529 93.5776 11.058 94.4448 11.058C95.2964 11.058 95.9722 11.3373 96.4722 11.8959C96.9722 12.4506 97.2222 13.1967 97.2222 14.1342V14.5677H92.8687V14.6439C92.8687 15.183 93.019 15.6146 93.3198 15.9388C93.6206 16.2631 94.0229 16.4252 94.5269 16.4252C94.8823 16.4252 95.187 16.3431 95.4409 16.1791C95.6948 16.015 95.8647 15.7963 95.9507 15.5228ZM94.9312 8.51501L96.5073 10.3138H95.4233L94.4624 9.20056H94.4272L93.4663 10.3138H92.3823L93.9585 8.51501H94.9312Z" fill="white"/>
<path d="M98.2065 17.3334V11.1693H99.4136V12.2006H99.4429C99.6147 11.8412 99.8647 11.5619 100.193 11.3627C100.521 11.1635 100.917 11.0638 101.382 11.0638C102.058 11.0638 102.583 11.267 102.958 11.6732C103.333 12.0756 103.521 12.6322 103.521 13.3431V17.3334H102.25V13.5892C102.25 13.1205 102.138 12.765 101.916 12.5228C101.697 12.2767 101.371 12.1537 100.937 12.1537C100.492 12.1537 100.136 12.2982 99.8706 12.5873C99.605 12.8763 99.4722 13.2611 99.4722 13.7416V17.3334H98.2065Z" fill="white"/>
</svg>
