<svg width="86" height="181" viewBox="0 0 86 181" fill="none" xmlns="http://www.w3.org/2000/svg">
<circle cx="4.03125" cy="4.03125" r="4.03125" fill="#E6F0FF"/>
<circle cx="4.03125" cy="30.9062" r="4.03125" fill="#E6F0FF"/>
<circle cx="4.03125" cy="55.0938" r="4.03125" fill="#E6F0FF"/>
<circle cx="4.03125" cy="79.2812" r="4.03125" fill="#E6F0FF"/>
<circle cx="4.03125" cy="103.469" r="4.03125" fill="#E6F0FF"/>
<circle cx="30.9062" cy="55.0938" r="4.03125" fill="#E6F0FF"/>
<circle cx="30.9062" cy="81.9688" r="4.03125" fill="#E6F0FF"/>
<circle cx="30.9062" cy="106.156" r="4.03125" fill="#E6F0FF"/>
<circle cx="30.9062" cy="130.344" r="4.03125" fill="#E6F0FF"/>
<circle cx="30.9062" cy="154.531" r="4.03125" fill="#E6F0FF"/>
<circle cx="30.9062" cy="176.031" r="4.03125" fill="#E6F0FF"/>
<circle cx="55.0938" cy="4.03125" r="4.03125" fill="#E6F0FF"/>
<circle cx="55.0938" cy="30.9062" r="4.03125" fill="#E6F0FF"/>
<circle cx="55.0938" cy="55.0938" r="4.03125" fill="#E6F0FF"/>
<circle cx="55.0938" cy="79.2812" r="4.03125" fill="#E6F0FF"/>
<circle cx="55.0938" cy="103.469" r="4.03125" fill="#E6F0FF"/>
<circle cx="55.0938" cy="127.656" r="4.03125" fill="#E6F0FF"/>
<circle cx="81.9688" cy="52.4062" r="4.03125" fill="#E6F0FF"/>
<circle cx="81.9688" cy="79.2812" r="4.03125" fill="#E6F0FF"/>
<circle cx="81.9688" cy="103.469" r="4.03125" fill="#E6F0FF"/>
<circle cx="81.9688" cy="127.656" r="4.03125" fill="#E6F0FF"/>
<circle cx="81.9688" cy="151.844" r="4.03125" fill="#E6F0FF"/>
</svg>
