<svg width="114" height="48" viewBox="0 0 114 48" fill="none" xmlns="http://www.w3.org/2000/svg">
<path fill-rule="evenodd" clip-rule="evenodd" d="M85.3382 11L72 24.3376L85.3382 37.6758L98.6758 24.3376L85.3382 11Z" fill="white"/>
<path fill-rule="evenodd" clip-rule="evenodd" d="M85.3382 11L72 24.3376L85.3382 37.6758L98.6758 24.3376L85.3382 11ZM72.962 24.3376L85.3382 11.962L97.7139 24.3376L85.3382 36.7138L72.962 24.3376Z" fill="#EA2227"/>
<path fill-rule="evenodd" clip-rule="evenodd" d="M73.8613 24.2104H79.5359L85.2105 29.6924L90.9813 24.3066L96.6564 24.2104L85.3067 35.4654L73.8613 24.2104Z" fill="#EA2227"/>
<path fill-rule="evenodd" clip-rule="evenodd" d="M83.3831 26.2301H87.3267V15.2654H83.3831V26.2301Z" fill="#EA2227"/>
<path fill-rule="evenodd" clip-rule="evenodd" d="M80.6902 24.5954H82.8061V17.2856H80.6902V24.5954Z" fill="#2C4198"/>
<path fill-rule="evenodd" clip-rule="evenodd" d="M87.9001 17.5855C89.6935 17.4433 91.0717 19.032 91.0331 21.1326V21.2288C91.0331 23.3987 89.6469 24.9366 87.9001 24.7753V17.5855Z" fill="#2C4198"/>
<path fill-rule="evenodd" clip-rule="evenodd" d="M57.5482 31.9465L51.8274 15.9465H55.3359L59.3805 27.7899L63.3135 15.9465H66.7326L61.0118 31.9465H57.5482ZM40.565 18.6504V29.2426H42.9782L44.1401 29.2204C44.2966 29.2204 44.4309 29.1982 44.5424 29.1982C44.6539 29.1754 44.7882 29.131 44.922 29.0861C45.4363 28.9746 45.8608 28.7509 46.2182 28.438C46.576 28.125 46.8662 27.6112 47.0671 26.8965C47.2907 26.1813 47.4028 25.198 47.4028 23.9468C47.4028 22.7399 47.2907 21.8016 47.0899 21.1535C46.8663 20.4827 46.5533 19.9688 46.1732 19.5893C45.7715 19.2092 45.2798 18.9412 44.6761 18.8069C44.1845 18.7176 43.3133 18.6504 42.0171 18.6504H40.565ZM37.3245 15.9465H43.2462C44.5868 15.9465 45.615 16.0586 46.2853 16.2595C47.2014 16.5053 48.006 16.9969 48.6985 17.7343C49.3466 18.4046 49.8382 19.2763 50.1961 20.3267C50.5534 21.3544 50.7321 22.6284 50.7321 24.1032C50.7321 25.3989 50.5756 26.5386 50.2405 27.4997C49.8609 28.6616 49.2794 29.6004 48.542 30.3379C47.9838 30.8739 47.2241 31.2984 46.2631 31.6114C46.1066 31.6563 45.9279 31.7007 45.7265 31.7456C45.5256 31.79 45.302 31.8128 45.0562 31.8572C44.8104 31.8794 44.5424 31.9021 44.2966 31.9243C44.028 31.9465 43.7378 31.9465 43.4027 31.9465H37.3245V15.9465ZM31.0227 31.9465H34.2627V15.9465H31.0227V31.9465ZM18.24 24.9744V29.2426H21.2346C22.3516 29.2426 23.0891 29.2204 23.447 29.1532C23.9158 29.0639 24.2959 28.8403 24.6084 28.5051C24.9218 28.17 25.0783 27.7233 25.0783 27.1645C25.0783 26.6729 24.9662 26.2706 24.7204 25.9355C24.4973 25.6225 24.1617 25.3767 23.715 25.2202C23.2455 25.0416 22.3067 24.9744 20.8546 24.9744H18.24ZM18.24 18.606V22.3154H20.3629H20.8096H21.1675H21.4355H21.6813H21.8378H21.9943H22.1058C22.4188 22.3154 22.5974 22.2927 22.7095 22.2483C23.2455 22.1811 23.6706 22.0025 23.983 21.6895C24.3181 21.3766 24.4746 20.9521 24.4746 20.4383C24.4746 19.9466 24.3409 19.5443 24.0945 19.2541C23.8265 18.9412 23.402 18.7625 22.8433 18.6732C22.4632 18.6282 21.5471 18.606 20.0949 18.606H18.24ZM15 15.9465H21.3911C22.0614 15.9465 22.6202 15.9687 23.0669 15.9914C23.4914 16.0136 23.8936 16.0358 24.2288 16.103C24.832 16.1923 25.3907 16.4159 25.8601 16.7511C26.3518 17.0862 26.7541 17.5329 27.1114 18.0922C27.4466 18.6504 27.6258 19.2763 27.6258 19.9688C27.6258 20.7285 27.4244 21.4215 27.0221 22.0247C26.6198 22.6506 26.0838 23.12 25.3685 23.4551C26.3296 23.7232 27.0892 24.2148 27.603 24.8851C28.1396 25.5781 28.4076 26.3822 28.4076 27.2988C28.4076 28.0584 28.2511 28.7509 27.916 29.444C27.5808 30.1143 27.1114 30.6725 26.5304 31.0753C25.9495 31.4771 25.212 31.7229 24.3409 31.835L22.9553 31.9021C22.4632 31.9021 22.0165 31.9243 21.6142 31.9243C21.2119 31.9243 20.8096 31.9465 20.4523 31.9465H15V15.9465Z" fill="#2C4198"/>
</svg>
