<svg width="578" height="429" viewBox="0 0 578 429" fill="none" xmlns="http://www.w3.org/2000/svg">
<path d="M511.667 263.797C475.091 354.762 390.273 406.321 322.22 378.958C254.168 351.595 228.651 255.671 265.226 164.706C301.802 73.7416 386.62 22.1821 454.673 49.5452C522.726 76.9083 548.243 172.832 511.667 263.797Z" fill="#FFFDF2"/>
<ellipse cx="201.817" cy="223.714" rx="142.899" ry="147.104" transform="rotate(-20.8692 201.817 223.714)" fill="#EFEEFC"/>
<path d="M278 364L142 292L278 218L414.5 292L278 364Z" fill="#99C3FF"/>
<path d="M278 325L142 253L278 179L414.5 253L278 325Z" fill="#66A4FF"/>
<path d="M278.5 288.5L142.5 216.5L278.5 142.5L415 216.5L278.5 288.5Z" fill="#3386FF"/>
<path d="M278.5 248.5L142.5 176.5L278.5 102.5L415 176.5L278.5 248.5Z" fill="#0068FF"/>
<path d="M278.5 210.5L142.5 138.5L278.5 64.5L415 138.5L278.5 210.5Z" fill="#0053CC"/>
<g filter="url(#filter0_d_3910_43950)">
<circle cx="275.5" cy="92.5" r="50.5" fill="white"/>
</g>
<path fill-rule="evenodd" clip-rule="evenodd" d="M275.5 61.3271C275.105 61.3271 274.719 61.4407 274.39 61.6535C266.825 66.612 258.201 69.8375 249.168 71.087C248.69 71.1527 248.253 71.384 247.936 71.7384C247.619 72.0928 247.445 72.5464 247.445 73.0158V90.5502C247.445 105.708 256.695 116.774 274.779 123.542C275.243 123.716 275.758 123.716 276.222 123.542C294.31 116.774 303.556 105.712 303.556 90.5502V73.0158C303.556 72.5469 303.382 72.0938 303.066 71.7395C302.751 71.3852 302.314 71.1535 301.837 71.087C292.802 69.838 284.177 66.6126 276.611 61.6535C276.282 61.4407 275.895 61.3271 275.5 61.3271ZM288.809 88.5818C290.088 87.4297 290.191 85.4587 289.039 84.1794C287.887 82.9 285.916 82.7969 284.637 83.949L272.841 94.5715L266.324 88.9014C265.026 87.7713 263.057 87.9081 261.926 89.2069C260.796 90.5057 260.933 92.4747 262.232 93.6048L270.83 101.086C272.019 102.12 273.792 102.105 274.963 101.051L288.809 88.5818Z" fill="#99A5B2"/>
<defs>
<filter id="filter0_d_3910_43950" x="215" y="36" width="121" height="121" filterUnits="userSpaceOnUse" color-interpolation-filters="sRGB">
<feFlood flood-opacity="0" result="BackgroundImageFix"/>
<feColorMatrix in="SourceAlpha" type="matrix" values="0 0 0 0 0 0 0 0 0 0 0 0 0 0 0 0 0 0 127 0" result="hardAlpha"/>
<feOffset dy="4"/>
<feGaussianBlur stdDeviation="5"/>
<feColorMatrix type="matrix" values="0 0 0 0 0 0 0 0 0 0 0 0 0 0 0 0 0 0 0.1 0"/>
<feBlend mode="normal" in2="BackgroundImageFix" result="effect1_dropShadow_3910_43950"/>
<feBlend mode="normal" in="SourceGraphic" in2="effect1_dropShadow_3910_43950" result="shape"/>
</filter>
</defs>
</svg>
