<svg width="48" height="48" viewBox="0 0 48 48" fill="none" xmlns="http://www.w3.org/2000/svg">
<circle cx="24" cy="24" r="24" fill="#FAA828"/>
<path fill-rule="evenodd" clip-rule="evenodd" d="M16.0905 9.3795C16.1505 9.43275 16.2067 9.492 16.257 9.55425L16.3897 9.717C16.9102 10.3575 17.8523 10.455 18.492 9.9345C18.582 9.861 18.6645 9.777 18.735 9.6855C19.23 9.0405 20.154 8.91975 20.799 9.41475C20.8958 9.489 20.9827 9.5745 21.0577 9.6705L21.0795 9.6975C21.5918 10.3477 22.5352 10.4595 23.1855 9.9465C23.277 9.87525 23.3595 9.79275 23.4315 9.70275L23.5297 9.57825C24.045 8.93025 24.9893 8.82225 25.6373 9.33825C25.7048 9.39075 25.7663 9.45 25.8232 9.513L26.1975 9.933C26.7488 10.551 27.6975 10.605 28.3155 10.053C28.3575 10.0155 28.3973 9.9765 28.434 9.9345L28.6575 9.6855C28.941 9.369 29.427 9.342 29.7435 9.6255C29.907 9.771 30 9.9795 30 10.1985V14.1915C24.582 14.382 20.25 18.6713 20.25 23.9355C20.25 29.199 24.582 33.489 30 33.678V37.9478C30 38.3918 29.64 38.7518 29.196 38.7518C29.0055 38.7518 28.821 38.6843 28.6755 38.5605L28.3283 38.2658C27.7658 37.7873 26.9385 37.7903 26.3783 38.2718L25.7467 38.8155C25.1708 39.3113 24.3143 39.2978 23.754 38.7833L23.3115 38.3768C22.734 37.8458 21.8438 37.8503 21.2715 38.3873L20.9265 38.7098C20.3445 39.2573 19.4355 39.2505 18.8603 38.6963L18.5955 38.4413C18.0127 37.8803 17.0903 37.8818 16.5105 38.445L16.1865 38.7593C15.642 39.288 14.7885 39.3263 14.199 38.8493L13.4085 38.2095C12.852 37.7595 12.0547 37.7655 11.505 38.2238L11.1 38.5605C10.7512 38.8515 10.2315 38.8043 9.9405 38.4548C9.8175 38.307 9.75 38.1203 9.75 37.9275V10.212C9.75 9.77925 10.1003 9.429 10.533 9.429C10.7535 9.429 10.9642 9.522 11.1128 9.6855L11.3535 9.95025C11.9107 10.5637 12.8595 10.6095 13.4722 10.0522C13.512 10.0162 13.5495 9.97875 13.5847 9.939L13.9725 9.5025C14.523 8.88375 15.4725 8.829 16.0905 9.3795Z" fill="white"/>
<path fill-rule="evenodd" clip-rule="evenodd" d="M11.9863 18.702L19.4998 18.6855L11.9863 18.702Z" fill="#FAA828"/>
<path d="M11.9863 18.702L19.4998 18.6855" stroke="#FAA828" stroke-width="2"/>
<path d="M30 32.1855C34.5563 32.1855 38.25 28.4918 38.25 23.9355C38.25 19.3791 34.5563 15.6855 30 15.6855C25.4437 15.6855 21.75 19.3791 21.75 23.9355C21.75 28.4918 25.4437 32.1855 30 32.1855Z" fill="white"/>
<path d="M30.9603 28.32V29.1562C30.9603 29.5837 30.6175 29.9302 30.1953 29.9302H30.079C29.6568 29.9302 29.3148 29.5837 29.3148 29.1562V28.3515C28.2408 28.1362 27.4135 27.5775 27.049 26.7442C26.8488 26.2882 27.2583 25.857 27.7503 25.857C28.183 25.857 28.531 26.2222 28.8423 26.5275C29.1438 26.8237 29.6275 26.9932 30.2275 26.9932C31.1335 26.9932 31.7373 26.5507 31.7373 25.8885C31.7373 25.3515 31.3143 25.0357 30.3183 24.8145L29.2608 24.5617C27.7833 24.2467 27.0273 23.4255 27.0273 22.1302C27.0273 20.8357 27.9873 19.8877 29.3148 19.5727V18.705C29.3148 18.2775 29.6568 17.9302 30.0798 17.9302H30.1953C30.6175 17.9302 30.9603 18.2775 30.9603 18.705V19.5412C31.9293 19.7767 32.7258 20.3475 33.0933 21.1335C33.2995 21.5775 32.9013 22.0035 32.4153 22.0035C31.993 22.0035 31.6518 21.6532 31.3623 21.3405C31.0923 21.0465 30.67 20.868 30.1675 20.868C29.353 20.868 28.7478 21.2775 28.7478 21.9412C28.7478 22.4775 29.1415 22.7617 30.1068 22.9837L31.1028 23.2042C32.734 23.5515 33.4585 24.3097 33.4585 25.6357C33.4285 27.057 32.4085 28.0357 30.9595 28.32H30.9603Z" fill="#FAA828"/>
<path fill-rule="evenodd" clip-rule="evenodd" d="M11.9863 23.9355H17.2506H11.9863Z" fill="#FAA828"/>
<path d="M11.9863 23.9355H17.2506" stroke="#FAA828" stroke-width="2"/>
</svg>
