<svg width="171" height="48" viewBox="0 0 171 48" fill="none" xmlns="http://www.w3.org/2000/svg">
<rect width="170.667" height="48" rx="8" fill="#00060C"/>
<path d="M52.1895 16.4053H50.877V9.14107H48.2871V8.01948H54.7734V9.14107H52.1895V16.4053Z" fill="white"/>
<path d="M56.3145 15.5161C56.7598 15.5161 57.1328 15.3825 57.4336 15.1151C57.7383 14.8439 57.8906 14.5108 57.8906 14.1156V13.6332L56.373 13.7262C55.9941 13.7533 55.7012 13.8463 55.4941 14.0052C55.291 14.1601 55.1895 14.3693 55.1895 14.6328C55.1895 14.9001 55.291 15.1151 55.4941 15.2779C55.7012 15.4367 55.9746 15.5161 56.3145 15.5161ZM55.9629 16.5099C55.3574 16.5099 54.8633 16.3394 54.4805 15.9985C54.1016 15.6575 53.9121 15.2139 53.9121 14.6677C53.9121 14.133 54.1113 13.7088 54.5098 13.395C54.9082 13.0773 55.4727 12.8991 56.2031 12.8603L57.8906 12.7615V12.2908C57.8906 11.9499 57.7812 11.6845 57.5625 11.4947C57.3438 11.301 57.041 11.2041 56.6543 11.2041C56.2949 11.2041 56.002 11.2835 55.7754 11.4424C55.5527 11.6012 55.4121 11.8201 55.3535 12.099H54.1582C54.1934 11.5334 54.4395 11.0724 54.8965 10.7159C55.3535 10.3595 55.9551 10.1813 56.7012 10.1813C57.4473 10.1813 58.041 10.3634 58.4824 10.7276C58.9277 11.0917 59.1504 11.5799 59.1504 12.192V16.4053H57.9375V15.3999H57.9082C57.7324 15.737 57.4648 16.0062 57.1055 16.2077C56.75 16.4091 56.3691 16.5099 55.9629 16.5099ZM55.8691 8.19382V7.52552C56.1074 7.42479 56.3809 7.37442 56.6895 7.37442C57.0527 7.37442 57.3418 7.47322 57.5566 7.6708C57.7754 7.86451 57.8848 8.12602 57.8848 8.45533C57.8848 8.71103 57.793 8.94736 57.6094 9.16432C57.4297 9.38128 57.1855 9.5498 56.877 9.66991L56.4727 9.14107C56.8359 9.00935 57.0176 8.80014 57.0176 8.51345C57.0176 8.3856 56.9648 8.27906 56.8594 8.19382C56.7539 8.10472 56.623 8.06016 56.4668 8.06016C56.291 8.06016 56.0918 8.10472 55.8691 8.19382Z" fill="white"/>
<path d="M60.4219 16.4053V10.2917H61.6875V16.4053H60.4219ZM61.5762 9.18756C61.4316 9.32704 61.2578 9.39677 61.0547 9.39677C60.8516 9.39677 60.6777 9.32704 60.5332 9.18756C60.3926 9.04809 60.3223 8.87956 60.3223 8.68198C60.3223 8.48052 60.3926 8.31005 60.5332 8.17058C60.6777 8.03111 60.8516 7.96137 61.0547 7.96137C61.2617 7.96137 61.4355 8.03111 61.5762 8.17058C61.7207 8.31005 61.793 8.48052 61.793 8.68198C61.793 8.87956 61.7207 9.04809 61.5762 9.18756Z" fill="white"/>
<path d="M70.6816 10.2917L68.4727 16.4053H67.1133L64.8926 10.2917H66.2402L67.7871 15.1791H67.8105L69.3574 10.2917H70.6816Z" fill="white"/>
<path d="M74.8828 11.6341C74.6055 11.3397 74.248 11.1925 73.8105 11.1925C73.373 11.1925 73.0098 11.3416 72.7207 11.64C72.4316 11.9344 72.2715 12.316 72.2402 12.7848H75.3223C75.3066 12.3121 75.1602 11.9286 74.8828 11.6341ZM75.3164 14.6096H76.5176C76.4277 15.1713 76.1387 15.6304 75.6504 15.9868C75.1621 16.3433 74.5664 16.5215 73.8633 16.5215C72.9609 16.5215 72.25 16.2406 71.7305 15.6788C71.2148 15.1132 70.957 14.3461 70.957 13.3775C70.957 12.4167 71.2148 11.6438 71.7305 11.0588C72.25 10.4738 72.9434 10.1813 73.8105 10.1813C74.6621 10.1813 75.3379 10.4583 75.8379 11.0123C76.3379 11.5625 76.5879 12.3024 76.5879 13.2323V13.6623H72.2344V13.7378C72.2344 14.2725 72.3848 14.7006 72.6855 15.0222C72.9863 15.3437 73.3887 15.5045 73.8926 15.5045C74.248 15.5045 74.5527 15.4231 74.8066 15.2604C75.0605 15.0977 75.2305 14.8807 75.3164 14.6096ZM74.3027 7.75797L75.8789 9.44326H74.7891L73.8281 8.40884H73.793L72.832 9.44326H71.7422L73.3184 7.75797H74.3027ZM76.2129 7.58944H75.2285L73.8691 5.88672H75L76.2129 7.58944Z" fill="white"/>
<path d="M80.3789 8.84469H81.6504V10.2917H82.8223V11.2855H81.6504V14.656C81.6504 14.9195 81.7109 15.1132 81.832 15.2372C81.9531 15.3612 82.1426 15.4231 82.4004 15.4231C82.5879 15.4231 82.7266 15.4135 82.8164 15.3941V16.3878C82.6602 16.4266 82.4258 16.4459 82.1133 16.4459C81.4922 16.4459 81.0469 16.32 80.7773 16.0682C80.5117 15.8125 80.3789 15.3883 80.3789 14.7955V11.2855H79.4824V10.2917H80.3789V8.84469Z" fill="white"/>
<path d="M83.8652 16.4053V10.2917H85.0723V11.332H85.1016C85.2031 10.9755 85.3848 10.6966 85.6465 10.4951C85.9082 10.2937 86.2207 10.1929 86.584 10.1929C86.7051 10.1929 86.8496 10.2084 87.0176 10.2394V11.4075C86.9043 11.361 86.7148 11.3378 86.4492 11.3378C86.043 11.3378 85.7207 11.4637 85.4824 11.7155C85.248 11.9673 85.1309 12.3102 85.1309 12.7441V16.4053H83.8652Z" fill="white"/>
<path d="M91.1836 11.6341C90.9062 11.3397 90.5488 11.1925 90.1113 11.1925C89.6738 11.1925 89.3105 11.3416 89.0215 11.64C88.7324 11.9344 88.5723 12.316 88.541 12.7848H91.623C91.6074 12.3121 91.4609 11.9286 91.1836 11.6341ZM91.6172 14.6096H92.8184C92.7285 15.1713 92.4395 15.6304 91.9512 15.9868C91.4629 16.3433 90.8672 16.5215 90.1641 16.5215C89.2617 16.5215 88.5508 16.2406 88.0312 15.6788C87.5156 15.1132 87.2578 14.3461 87.2578 13.3775C87.2578 12.4167 87.5156 11.6438 88.0312 11.0588C88.5508 10.4738 89.2441 10.1813 90.1113 10.1813C90.9629 10.1813 91.6387 10.4583 92.1387 11.0123C92.6387 11.5625 92.8887 12.3024 92.8887 13.2323V13.6623H88.5352V13.7378C88.5352 14.2725 88.6855 14.7006 88.9863 15.0222C89.2871 15.3437 89.6895 15.5045 90.1934 15.5045C90.5488 15.5045 90.8535 15.4231 91.1074 15.2604C91.3613 15.0977 91.5312 14.8807 91.6172 14.6096ZM90.5977 7.65918L92.1738 9.44326H91.0898L90.1289 8.33911H90.0938L89.1328 9.44326H88.0488L89.625 7.65918H90.5977Z" fill="white"/>
<path d="M93.873 16.4053V10.2917H95.0801V11.3145H95.1094C95.2812 10.9581 95.5312 10.6811 95.8594 10.4835C96.1875 10.2859 96.584 10.1871 97.0488 10.1871C97.7246 10.1871 98.25 10.3886 98.625 10.7915C99 11.1905 99.1875 11.7426 99.1875 12.4477V16.4053H97.916V12.6918C97.916 12.2269 97.8047 11.8743 97.582 11.6341C97.3633 11.3901 97.0371 11.268 96.6035 11.268C96.1582 11.268 95.8027 11.4114 95.5371 11.6981C95.2715 11.9848 95.1387 12.3664 95.1387 12.8429V16.4053H93.873Z" fill="white"/>
<path fill-rule="evenodd" clip-rule="evenodd" d="M81.5435 26.1067C78.723 26.1067 76.4367 28.2523 76.4367 31.2119C76.4367 34.1446 78.7379 36.3171 81.5435 36.3171C84.364 36.3171 86.6502 34.1565 86.6502 31.2119C86.6502 28.2523 84.364 26.1067 81.5435 26.1067ZM81.5435 34.2942C80.0004 34.2942 78.6722 33.0134 78.6722 31.1999C78.6722 29.3595 80.0034 28.1057 81.5435 28.1057C83.0865 28.1057 84.4147 29.3595 84.4147 31.1999C84.4177 33.0254 83.0865 34.2942 81.5435 34.2942ZM70.4017 26.1067C67.5812 26.1067 65.295 28.2523 65.295 31.2119C65.295 34.1446 67.5961 36.3171 70.4017 36.3171C73.2222 36.3171 75.5085 34.1565 75.5085 31.2119C75.5085 28.2523 73.2192 26.1067 70.4017 26.1067ZM70.4017 34.2942C68.8587 34.2942 67.5305 33.0134 67.5305 31.1999C67.5305 29.3595 68.8616 28.1057 70.4017 28.1057C71.9448 28.1057 73.273 29.3595 73.273 31.1999C73.273 33.0254 71.9448 34.2942 70.4017 34.2942ZM57.1439 27.6658V29.8264H62.3163C62.1581 31.0383 61.7581 31.9331 61.1463 32.5466C60.3882 33.3067 59.2182 34.1326 57.1558 34.1326C53.9771 34.1326 51.4909 31.559 51.4909 28.372C51.4909 25.185 53.9771 22.6114 57.1558 22.6114C58.872 22.6114 60.1226 23.2907 61.0508 24.1585L62.5789 22.6264C61.2896 21.3875 59.5734 20.4388 57.1677 20.4388C52.8071 20.4388 49.1479 23.9999 49.1479 28.36C49.1479 32.7321 52.8042 36.2812 57.1677 36.2812C59.5226 36.2812 61.2896 35.5092 62.6864 34.0548C64.1101 32.6274 64.5607 30.6134 64.5607 28.9885C64.5607 28.4827 64.5219 28.0279 64.4414 27.6418H57.1409C57.1439 27.6388 57.1439 27.6658 57.1439 27.6658ZM111.372 29.3476C110.945 28.2014 109.656 26.0947 107.012 26.0947C104.391 26.0947 102.212 28.1625 102.212 31.1999C102.212 34.0668 104.367 36.3052 107.265 36.3052C109.593 36.3052 110.948 34.8777 111.506 34.0398L109.778 32.8787C109.205 33.7316 108.408 34.2912 107.277 34.2912C106.134 34.2912 105.334 33.7705 104.803 32.7441L111.611 29.9161C111.611 29.9191 111.372 29.3476 111.372 29.3476ZM104.43 31.0533C104.376 29.0812 105.958 28.0787 107.089 28.0787C107.982 28.0787 108.725 28.5186 108.978 29.159L104.43 31.0533ZM98.8993 35.9999H101.135V21.0014H98.8993V35.9999ZM95.2281 27.2408H95.1475C94.6431 26.6393 93.6851 26.0947 92.4614 26.0947C89.9214 26.0947 87.5814 28.3361 87.5814 31.2149C87.5814 34.0817 89.9095 36.2962 92.4614 36.2962C93.6701 36.2962 94.6431 35.7486 95.1475 35.1351H95.2281V35.8683C95.2281 37.8164 94.1895 38.8668 92.5151 38.8668C91.1451 38.8668 90.2945 37.8792 89.9483 37.0533L88.0053 37.8673C88.5634 39.2139 90.0527 40.8807 92.5121 40.8807C95.1326 40.8807 97.3532 39.3336 97.3532 35.56V26.3999H95.2401V27.2408C95.2431 27.2408 95.2281 27.2408 95.2281 27.2408ZM92.6613 34.2942C91.1183 34.2942 89.8289 33.0014 89.8289 31.2149C89.8289 29.4134 91.1183 28.1087 92.6613 28.1087C94.1895 28.1087 95.3744 29.4284 95.3744 31.2149C95.3893 33.0014 94.1925 34.2942 92.6613 34.2942ZM121.839 21.0014H116.494V35.9999H118.729V30.3201H121.842C124.317 30.3201 126.749 28.5216 126.749 25.6668C126.749 22.8119 124.326 21.0014 121.839 21.0014ZM121.905 28.2254H118.726V23.0782H121.905C123.579 23.0782 124.526 24.4638 124.526 25.6518C124.526 26.8279 123.567 28.2254 121.905 28.2254ZM135.709 26.0797C134.085 26.0797 132.411 26.8009 131.719 28.372L133.7 29.1979C134.127 28.372 134.909 28.0907 135.736 28.0907C136.894 28.0907 138.064 28.785 138.091 30.0239V30.1825C137.691 29.955 136.813 29.6079 135.763 29.6079C133.623 29.6079 131.453 30.781 131.453 32.9805C131.453 34.9944 133.208 36.2872 135.163 36.2872C136.664 36.2872 137.491 35.6079 138.007 34.8209H138.088V35.982H140.243V30.2363C140.243 27.561 138.261 26.0797 135.709 26.0797ZM135.429 34.2942C134.697 34.2942 133.674 33.9351 133.674 33.0134C133.674 31.8523 134.951 31.4124 136.04 31.4124C137.025 31.4124 137.491 31.6249 138.076 31.9181C137.915 33.2648 136.781 34.2822 135.429 34.2942ZM148.104 26.3999L145.538 32.9057H145.457L142.798 26.3999H140.392L144.383 35.4942L142.108 40.5486H144.436L150.576 26.3999H148.104ZM127.982 35.9999H130.217V21.0014H127.982V35.9999Z" fill="white"/>
<path fill-rule="evenodd" clip-rule="evenodd" d="M12.4881 9.04039C12.1419 9.41446 11.9419 9.98603 11.9419 10.7342V37.2688C11.9419 38.017 12.1419 38.5885 12.5 38.9476L12.5925 39.0284L27.4203 24.1616V23.8294L12.5806 8.95959L12.4881 9.04039Z" fill="url(#paint0_linear_7373_28051)"/>
<path fill-rule="evenodd" clip-rule="evenodd" d="M32.3538 29.1321L27.4082 24.1735V23.8264L32.3538 18.8678L32.4613 18.9336L38.3112 22.2673C39.9856 23.2129 39.9856 24.775 38.3112 25.7326L32.4613 29.0663L32.3538 29.1321Z" fill="url(#paint1_linear_7373_28051)"/>
<path fill-rule="evenodd" clip-rule="evenodd" d="M32.4606 29.0663L27.4076 24L12.4873 38.9596C13.0335 39.5461 13.9498 39.612 14.9735 39.0404L32.4606 29.0663Z" fill="url(#paint2_linear_7373_28051)"/>
<path fill-rule="evenodd" clip-rule="evenodd" d="M32.4606 18.9336L14.9735 8.97446C13.9498 8.38792 13.0305 8.46872 12.4873 9.05526L27.4076 23.9999L32.4606 18.9336Z" fill="url(#paint3_linear_7373_28051)"/>
<path opacity="0.2" fill-rule="evenodd" clip-rule="evenodd" d="M32.3531 28.9584L14.9853 38.8517C14.0152 39.4113 13.1497 39.3724 12.5915 38.8636L12.499 38.9564L12.5915 39.0372C13.1497 39.5429 14.0152 39.5848 14.9853 39.0252L32.4725 29.0661L32.3531 28.9584Z" fill="black"/>
<path opacity="0.12" fill-rule="evenodd" clip-rule="evenodd" d="M38.3107 25.5591L32.3384 28.9586L32.4458 29.0663L38.2957 25.7327C39.1344 25.2539 39.5463 24.6254 39.5463 24C39.4956 24.5746 39.0688 25.1192 38.3107 25.5591Z" fill="black"/>
<path opacity="0.25" fill-rule="evenodd" clip-rule="evenodd" d="M14.9743 9.14812L38.3113 22.4409C39.0694 22.8688 39.4962 23.4284 39.5619 24C39.5619 23.3746 39.15 22.7461 38.3113 22.2673L14.9743 8.97456C13.2999 8.01396 11.9419 8.81595 11.9419 10.7342V10.9077C11.9419 8.98653 13.2999 8.1995 14.9743 9.14812Z" fill="white"/>
<defs>
<linearGradient id="paint0_linear_7373_28051" x1="26.0903" y1="10.4479" x2="2.3305" y2="16.7621" gradientUnits="userSpaceOnUse">
<stop stop-color="#00A0FF"/>
<stop offset="0.00657" stop-color="#00A1FF"/>
<stop offset="0.2601" stop-color="#00BEFF"/>
<stop offset="0.5122" stop-color="#00D2FF"/>
<stop offset="0.7604" stop-color="#00DFFF"/>
<stop offset="1" stop-color="#00E3FF"/>
</linearGradient>
<linearGradient id="paint1_linear_7373_28051" x1="40.4948" y1="24" x2="11.5347" y2="24" gradientUnits="userSpaceOnUse">
<stop stop-color="#FFE000"/>
<stop offset="0.4087" stop-color="#FFBD00"/>
<stop offset="0.7754" stop-color="#FFA500"/>
<stop offset="1" stop-color="#FF9C00"/>
</linearGradient>
<linearGradient id="paint2_linear_7373_28051" x1="29.713" y1="26.7568" x2="10.5711" y2="58.8895" gradientUnits="userSpaceOnUse">
<stop stop-color="#FF3A44"/>
<stop offset="1" stop-color="#C31162"/>
</linearGradient>
<linearGradient id="paint3_linear_7373_28051" x1="8.73021" y1="0.214444" x2="17.2702" y2="14.5654" gradientUnits="userSpaceOnUse">
<stop stop-color="#32A071"/>
<stop offset="0.0685" stop-color="#2DA771"/>
<stop offset="0.4762" stop-color="#15CF74"/>
<stop offset="0.8009" stop-color="#06E775"/>
<stop offset="1" stop-color="#00F076"/>
</linearGradient>
</defs>
</svg>
