<svg width="534" height="438" viewBox="0 0 534 438" fill="none" xmlns="http://www.w3.org/2000/svg">
<circle opacity="0.5" cx="273.5" cy="207.5" r="183.5" stroke="#66A4FF" stroke-width="2" stroke-dasharray="4 4"/>
<g filter="url(#filter0_f_3910_100221)">
<mask id="mask0_3910_100221" style="mask-type:alpha" maskUnits="userSpaceOnUse" x="178" y="354" width="199" height="30">
<path fill-rule="evenodd" clip-rule="evenodd" d="M178.87 354.937H376.662V383.224H178.87V354.937Z" fill="white"/>
</mask>
<g mask="url(#mask0_3910_100221)">
<path fill-rule="evenodd" clip-rule="evenodd" d="M376.661 370.424C376.555 378.2 332.193 383.902 277.575 383.159C222.956 382.417 178.764 375.511 178.87 367.736C178.975 359.961 223.339 354.259 277.957 355.002C332.575 355.745 376.767 362.649 376.661 370.424Z" fill="#66A4FF"/>
</g>
</g>
<path fill-rule="evenodd" clip-rule="evenodd" d="M357.264 71.4958L356.677 348.668C356.673 350.256 356.508 351.815 356.201 353.312C356.048 354.061 355.854 354.789 355.63 355.507C355.507 355.871 355.385 356.235 355.263 356.589C354.489 358.704 353.403 360.665 352.072 362.433C351.403 363.322 350.672 364.16 349.892 364.938C349.11 365.716 348.268 366.433 347.386 367.099C346.798 367.532 346.18 367.946 345.552 368.34H345.542C344.914 368.723 344.265 369.076 343.596 369.398H343.586C342.584 369.883 341.529 370.295 340.457 370.626H340.446C339.727 370.847 338.998 371.038 338.249 371.189C336.74 371.49 335.181 371.648 333.592 371.644L219.9 371.403C218.219 371.4 216.58 371.213 215.001 370.866C214.739 370.806 214.485 370.754 214.223 370.683C213.94 370.611 213.646 370.529 213.363 370.448C212.17 370.092 211.026 369.643 209.924 369.115C209.368 368.841 208.833 368.556 208.317 368.251C208.074 368.108 207.832 367.967 207.599 367.814C207.093 367.5 206.609 367.155 206.134 366.799C204.658 365.693 203.326 364.405 202.154 362.985C201.69 362.417 201.245 361.829 200.832 361.211C200.217 360.288 199.662 359.326 199.179 358.313C198.524 356.966 198.01 355.558 197.639 354.089V354.079C197.168 352.236 196.918 350.313 196.922 348.328L197.51 71.1572C197.537 58.4548 207.873 48.1527 220.595 48.1802L334.287 48.4209C347.009 48.4474 357.291 58.7933 357.264 71.4958Z" fill="#242424"/>
<path fill-rule="evenodd" clip-rule="evenodd" d="M352.221 71.624L351.634 348.795C351.63 350.021 351.507 351.244 351.261 352.438C351.158 352.974 351.016 353.51 350.833 354.097L350.497 355.078C349.947 356.596 349.113 358.122 348.047 359.537C347.529 360.223 346.952 360.891 346.333 361.496C345.765 362.073 345.096 362.648 344.356 363.202C344.011 363.454 343.595 363.738 343.119 364.041L342.927 364.161C342.532 364.404 342.127 364.635 341.701 364.847L341.407 364.978C340.707 365.32 339.978 365.613 339.229 365.854L338.976 365.934C338.378 366.116 337.821 366.255 337.274 366.376C336.069 366.606 334.844 366.724 333.62 366.722L219.927 366.481C218.642 366.479 217.357 366.344 216.112 366.069C215.688 365.976 215.262 365.874 214.859 365.752C213.928 365.477 213.017 365.12 212.128 364.693C211.703 364.48 211.278 364.257 210.914 364.033C210.702 363.911 210.54 363.82 210.398 363.729L210.288 363.657C209.974 363.464 209.62 363.221 209.187 362.896C208.064 362.044 207.014 361.039 206.075 359.904C205.691 359.437 205.358 358.991 205.056 358.545C204.562 357.805 204.128 357.035 203.765 356.274C203.291 355.293 202.909 354.289 202.627 353.247L202.558 352.973C202.186 351.505 201.997 349.996 202 348.478L202.587 71.3058C202.609 61.4076 210.693 53.358 220.601 53.3794L334.293 53.6201C341.855 53.6364 348.333 58.3566 350.959 64.9918C351.775 67.0374 352.226 69.2858 352.221 71.624Z" fill="white"/>
<rect x="248.075" y="108.075" width="59.85" height="59.85" rx="7.925" fill="white" stroke="#E6E9EC" stroke-width="0.15"/>
<path fill-rule="evenodd" clip-rule="evenodd" d="M306.362 111.149L259.586 117.881C256.147 118.372 253.708 121.594 254.207 124.979L260.133 168H256C252.132 168 248.906 165.255 248.162 161.608L248 121.039V116C248 111.582 251.582 108 256 108H271.864L300.905 108.051C303.127 108.301 305.073 109.461 306.362 111.149Z" fill="#0068FF"/>
<path fill-rule="evenodd" clip-rule="evenodd" d="M287.621 137.784C288.054 137.784 288.378 137.622 288.649 137.352C288.919 137.081 289.027 136.757 289.027 136.324V124.433C289.027 124 288.919 123.676 288.649 123.406C288.378 123.135 288.054 122.973 287.621 122.973C287.189 122.973 286.865 123.135 286.594 123.406C286.324 123.73 286.216 124.054 286.216 124.433V136.324C286.216 136.757 286.324 137.081 286.594 137.352C286.865 137.622 287.189 137.784 287.621 137.784ZM285.027 128.703C284.757 128.433 284.432 128.27 284 128.27C283.405 128.27 282.973 128.541 282.703 129.135C282.108 128.433 281.297 128.108 280.27 128.108C279.027 128.108 278 128.595 277.135 129.514C276.27 130.487 275.892 131.622 275.892 132.973C275.892 134.324 276.324 135.514 277.135 136.433C278 137.406 279.027 137.838 280.27 137.838C281.297 137.838 282.108 137.514 282.703 136.811C282.973 137.406 283.405 137.676 284 137.676C284.432 137.676 284.757 137.514 285.027 137.243C285.297 136.973 285.405 136.649 285.405 136.216V129.568C285.459 129.351 285.297 128.973 285.027 128.703ZM282.108 134.703C281.784 135.135 281.297 135.352 280.703 135.352C280.108 135.352 279.622 135.135 279.297 134.703C278.973 134.27 278.757 133.73 278.757 133.027C278.757 132.379 278.919 131.838 279.297 131.406C279.622 130.973 280.108 130.757 280.703 130.757C281.297 130.757 281.784 130.973 282.108 131.406C282.432 131.838 282.649 132.379 282.649 133.027C282.595 133.676 282.432 134.27 282.108 134.703ZM294.541 128.162C295.946 128.162 297.081 128.595 298 129.568C298.919 130.487 299.351 131.676 299.297 133.135C299.297 134.487 298.865 135.676 298 136.595C297.081 137.514 295.946 138 294.541 138C293.135 138 291.946 137.514 291.081 136.595C290.162 135.622 289.73 134.487 289.73 133.081C289.73 131.676 290.216 130.487 291.081 129.568C292 128.649 293.135 128.162 294.541 128.162ZM294.595 135.352C295.189 135.352 295.676 135.135 296 134.703C296.325 134.27 296.487 133.676 296.541 133.027C296.541 132.379 296.325 131.838 296 131.406C295.676 130.973 295.189 130.757 294.595 130.757C294 130.757 293.514 130.973 293.189 131.406C292.811 131.838 292.649 132.379 292.649 133.027C292.649 133.73 292.865 134.27 293.189 134.703C293.514 135.135 294 135.352 294.595 135.352ZM275.838 125.892C275.838 126.324 275.297 127.189 274.324 128.487L269.243 135.027H274.432C275.568 135.027 276.108 135.46 276.108 136.433C276.108 137.352 275.568 137.838 274.432 137.838H267.351C265.838 137.838 265.081 137.297 265.081 136.162C265.081 135.784 265.297 135.297 265.676 134.811L271.73 127.027H267.027C266.486 127.027 266.054 126.919 265.784 126.649C265.513 126.433 265.351 126.108 265.351 125.676C265.351 125.297 265.513 124.973 265.784 124.703C266.054 124.433 266.486 124.324 267.027 124.324H273.892C275.189 124.324 275.838 124.865 275.838 125.892Z" fill="#0068FF"/>
<path fill-rule="evenodd" clip-rule="evenodd" d="M266.649 140.054H292.216C293.081 140.054 293.784 140.703 293.784 141.622V156.595C293.784 157.46 293.081 158.162 292.216 158.162H288.486C288.649 158 288.757 157.784 288.865 157.514L292.757 148.054C292.811 147.892 292.865 147.676 292.865 147.46C292.865 147.189 292.703 146.973 292.486 146.757C292.27 146.541 292 146.433 291.73 146.433C291.135 146.433 290.757 146.757 290.541 147.297L288.811 151.784L287.189 147.297C286.973 146.703 286.595 146.433 286 146.433C285.73 146.433 285.459 146.541 285.243 146.757C284.973 146.919 284.865 147.189 284.865 147.46C284.865 147.676 284.919 147.892 284.973 148.054L287.622 154.649L286.649 156.757C286.541 157.027 286.486 157.243 286.486 157.46C286.486 157.73 286.595 157.946 286.811 158.162H266.649C265.784 158.162 265.081 157.46 265.081 156.595V141.622C265.081 140.757 265.784 140.054 266.649 140.054ZM271.135 151.189C272.324 151.189 273.351 150.865 274.162 150.108C275.027 149.351 275.459 148.379 275.459 147.027C275.459 145.838 275.027 144.811 274.216 144.054C273.351 143.297 272.324 142.919 271.027 142.919H267.946C267.027 142.919 266.595 143.351 266.595 144.27V154C266.595 154.379 266.757 154.757 266.973 154.973C267.189 155.243 267.513 155.351 267.892 155.351C268.27 155.351 268.595 155.189 268.811 154.973C269.081 154.757 269.189 154.433 269.189 154V151.189H271.135ZM284.162 153.946C284.162 154.324 284.054 154.595 283.784 154.865C283.513 155.135 283.243 155.243 282.865 155.243C282.324 155.243 281.892 154.973 281.621 154.433C281.081 155.081 280.324 155.406 279.351 155.406C278.216 155.406 277.243 154.973 276.486 154.108C275.73 153.243 275.297 152.162 275.297 150.865C275.297 149.568 275.676 148.541 276.486 147.622C277.243 146.757 278.216 146.324 279.351 146.324C280.324 146.324 281.027 146.649 281.621 147.297C281.892 146.757 282.27 146.487 282.865 146.487C283.243 146.487 283.567 146.595 283.784 146.865C284.054 147.135 284.162 147.406 284.162 147.784V153.946ZM270.973 145.298H269.189V148.973H270.973C271.513 148.973 271.946 148.811 272.27 148.433C272.594 148.108 272.756 147.622 272.756 147.135C272.756 146.595 272.594 146.162 272.27 145.838C271.946 145.46 271.513 145.298 270.973 145.298ZM279.784 148.703C279.243 148.703 278.811 148.919 278.486 149.297C278.162 149.73 278 150.216 278 150.811C278 151.406 278.162 151.946 278.486 152.325C278.811 152.757 279.243 152.919 279.784 152.919C280.324 152.919 280.757 152.703 281.081 152.325C281.405 151.892 281.567 151.406 281.567 150.811C281.567 150.216 281.405 149.676 281.081 149.297C280.757 148.919 280.324 148.703 279.784 148.703Z" fill="#03CA77"/>
<path fill-rule="evenodd" clip-rule="evenodd" d="M356.346 271.83C356.469 270.797 356.633 269.574 356.85 268.188L356.803 290.039C355.636 286.586 354.842 284.044 354.703 283.111C354.353 280.834 355.314 276.018 356.346 271.83Z" fill="#242424"/>
<path fill-rule="evenodd" clip-rule="evenodd" d="M357.118 141.682L357.187 108.957C359.737 108.963 361.802 111.035 361.796 113.585L361.746 137.073C361.741 139.625 359.669 141.688 357.118 141.682Z" fill="#242424"/>
<path fill-rule="evenodd" clip-rule="evenodd" d="M197.494 124.981L199.707 124.986L199.742 108.623L197.528 108.619C196.2 108.616 195.121 109.69 195.118 111.019L195.093 122.571C195.091 123.899 196.165 124.978 197.494 124.981Z" fill="#242424"/>
<path fill-rule="evenodd" clip-rule="evenodd" d="M197.452 144.718L199.665 144.723L199.7 128.36L197.486 128.355C196.158 128.352 195.079 129.427 195.076 130.755L195.051 142.307C195.049 143.636 196.123 144.716 197.452 144.718Z" fill="#242424"/>
<path fill-rule="evenodd" clip-rule="evenodd" d="M294.342 60.3259L260.535 60.2545C254.848 60.2422 250.247 55.622 250.259 49.9351L304.662 50.0503C304.648 55.7372 300.029 60.3381 294.342 60.3259Z" fill="#242424"/>
<g filter="url(#filter1_d_3910_100221)">
<circle cx="200" cy="43" r="27" fill="white"/>
</g>
<path fill-rule="evenodd" clip-rule="evenodd" d="M200 26.3335C199.789 26.3335 199.582 26.3942 199.406 26.508C195.362 29.1591 190.751 30.8836 185.921 31.5516C185.666 31.5868 185.432 31.7104 185.263 31.8999C185.093 32.0894 185 32.3319 185 32.5829V41.9577C185 50.0617 189.946 55.9783 199.614 59.597C199.863 59.6901 200.137 59.6901 200.386 59.597C210.056 55.9783 215 50.0638 215 41.9577V32.5829C215 32.3322 214.907 32.0899 214.738 31.9005C214.569 31.7111 214.336 31.5872 214.081 31.5516C209.25 30.8839 204.639 29.1594 200.594 26.508C200.418 26.3942 200.211 26.3335 200 26.3335ZM207.115 40.9053C207.799 40.2893 207.854 39.2355 207.238 38.5515C206.623 37.8675 205.569 37.8124 204.885 38.4283L198.578 44.1077L195.094 41.0762C194.4 40.4719 193.347 40.5451 192.743 41.2395C192.138 41.9339 192.212 42.9866 192.906 43.5908L197.503 47.5908C198.139 48.1437 199.087 48.1356 199.712 47.572L207.115 40.9053Z" fill="#99A5B2"/>
<g filter="url(#filter2_d_3910_100221)">
<circle cx="415" cy="87" r="27" fill="white"/>
</g>
<path fill-rule="evenodd" clip-rule="evenodd" d="M421.667 80.3335V82.0002H408.333V80.3335C408.333 76.6516 411.318 73.6668 415 73.6668C418.682 73.6668 421.667 76.6516 421.667 80.3335ZM430 87.0002C430 84.2387 427.761 82.0002 425 82.0002V80.3335C425 74.8106 420.523 70.3335 415 70.3335C409.477 70.3335 405 74.8106 405 80.3335V82.0002C402.239 82.0002 400 84.2387 400 87.0002V98.6668C400 101.428 402.239 103.667 405 103.667H425C427.761 103.667 430 101.428 430 98.6668V87.0002ZM417.5 91.1668C417.5 92.0802 417.01 92.8792 416.279 93.3155L416.667 97.0002H413.333L413.721 93.3155C412.99 92.8792 412.5 92.0802 412.5 91.1668C412.5 89.7861 413.619 88.6668 415 88.6668C416.381 88.6668 417.5 89.7861 417.5 91.1668Z" fill="#99A5B2"/>
<g filter="url(#filter3_d_3910_100221)">
<circle cx="114" cy="279" r="76" fill="#03CA77"/>
</g>
<path d="M114.239 260L123.973 282.221C122.072 284.732 119.678 287.938 117.384 291.025L116.53 292.176V273.856H108.675V298.915L105.541 295.491V291.4L104.255 292.137C102.608 293.081 100.764 293.56 98.7754 293.56C96.7463 293.56 95.1898 292.971 94.0162 291.759C92.836 290.54 92.2629 288.926 92.2629 286.823C92.2629 284.625 92.8725 282.944 94.1275 281.687C95.3817 280.43 97.003 279.818 99.0827 279.818C100.771 279.818 102.312 280.159 103.675 280.83L104.248 281.138L105.541 281.894V274.595L104.972 274.391C103.246 273.77 101.116 273.456 98.6392 273.456C94.5669 273.456 91.1964 274.741 88.6242 277.275C86.0469 279.815 84.7404 283.156 84.7404 287.207C84.7404 291.023 85.9098 294.132 88.2163 296.448C90.5253 298.765 93.7098 299.941 97.6832 299.941C98.1594 299.941 98.622 299.928 99.0713 299.905L99.7356 299.861L99.8053 299.942C100.207 300.407 100.651 300.919 101.116 301.456L101.588 302.001L66.9329 313.255L61.9312 299.523H68.9387V291.274H71.3117C75.1082 291.274 78.2063 290.474 80.5169 288.895C82.9314 287.246 84.1557 285.043 84.1557 282.349C84.1557 276.889 80.2926 274.037 72.6699 273.864L71.9205 273.856H60.4411V295.433L49 264.025L114.239 260ZM136.271 276.772C127.508 282.502 116.601 303.005 114.813 305.96C113.024 308.914 109.385 308.898 108.375 308.197C107.864 307.844 101.023 299.931 100.535 299.366L100.507 299.334L104.442 295.663L110.342 302.11C110.342 302.11 126.883 279.637 128.224 278.293C129.566 276.951 131.442 276.861 136.271 276.772ZM126.722 288.495L128.771 293.173L122.181 295.313C123.574 293.094 125.112 290.754 126.722 288.495ZM147.215 287.117C147.882 287.117 148.409 287.33 148.797 287.755C149.185 288.181 149.379 288.758 149.379 289.488C149.379 290.22 149.185 290.799 148.797 291.224C148.409 291.649 147.882 291.862 147.215 291.862C146.547 291.862 146.018 291.649 145.628 291.224C145.239 290.799 145.045 290.22 145.045 289.488C145.045 288.758 145.24 288.181 145.632 287.755C146.024 287.33 146.551 287.117 147.215 287.117ZM142.451 287.118C142.984 287.118 143.434 287.277 143.801 287.594C144.095 287.849 144.282 288.159 144.364 288.525L144.405 288.809H143.487C143.441 288.549 143.324 288.34 143.136 288.184C142.948 288.028 142.719 287.949 142.451 287.949C142.096 287.949 141.816 288.087 141.61 288.363C141.404 288.637 141.301 289.012 141.301 289.488C141.301 289.963 141.404 290.34 141.61 290.616C141.816 290.892 142.098 291.03 142.454 291.03C142.724 291.03 142.953 290.956 143.141 290.808C143.282 290.697 143.382 290.558 143.443 290.39L143.491 290.213H144.408C144.369 290.702 144.168 291.098 143.808 291.404C143.446 291.709 142.994 291.862 142.451 291.862C141.797 291.862 141.281 291.65 140.903 291.225C140.525 290.801 140.336 290.222 140.336 289.488C140.336 288.755 140.525 288.176 140.903 287.752C141.281 287.329 141.797 287.118 142.451 287.118ZM161.294 287.233V290.923H163.299V291.746H160.352V287.233H161.294ZM151.353 287.233L152.599 290.267H152.655L153.903 287.233H155.012V291.746H154.138V288.728H154.089L152.943 291.486H152.315L151.165 288.728H151.115V291.746H150.241V287.233H151.353ZM157.954 287.233C158.418 287.233 158.795 287.377 159.082 287.663C159.371 287.95 159.516 288.327 159.516 288.794C159.516 289.256 159.366 289.631 159.069 289.917C158.83 290.145 158.535 290.282 158.182 290.328L157.907 290.345H157.017V291.746H156.074V287.233H157.954ZM165.067 287.233V291.746H164.123V287.233H165.067ZM179.361 287.233V288.171L177.956 288.17L177.959 291.746H177.016L177.014 288.17L175.614 288.171V287.233H179.361ZM168.479 287.233L170.044 291.746H169.022L168.682 290.67H167.099L166.752 291.746H165.805L167.37 287.233H168.479ZM171.567 287.233L173.641 290.045H173.697V287.233H174.6V291.746H173.818L171.739 288.922H171.682V291.746H170.78V287.233H171.567ZM147.215 287.946C146.849 287.946 146.556 288.085 146.338 288.363C146.119 288.642 146.01 289.017 146.01 289.488C146.01 289.959 146.118 290.334 146.336 290.614C146.554 290.893 146.847 291.033 147.215 291.033C147.582 291.033 147.873 290.893 148.091 290.614C148.309 290.334 148.417 289.959 148.417 289.488C148.417 289.017 148.309 288.642 148.091 288.363C147.873 288.085 147.582 287.946 147.215 287.946ZM167.923 288.171H167.867L167.302 289.942H168.482L167.923 288.171ZM157.704 288.009H157.017V289.579H157.701C157.973 289.579 158.184 289.512 158.333 289.377C158.482 289.242 158.557 289.049 158.557 288.796C158.557 288.543 158.483 288.347 158.335 288.212C158.187 288.077 157.977 288.009 157.704 288.009ZM160.455 271.021C161.967 271.021 163.211 271.406 164.186 272.175C165.04 272.849 165.537 273.698 165.678 274.723L165.716 275.173H163.01C162.939 274.626 162.672 274.187 162.209 273.856C161.745 273.525 161.167 273.36 160.475 273.36C159.75 273.36 159.17 273.515 158.735 273.827C158.299 274.139 158.082 274.556 158.082 275.077C158.082 275.504 158.258 275.847 158.611 276.109C158.893 276.317 159.32 276.497 159.893 276.649L160.35 276.757L162.009 277.111C163.387 277.404 164.392 277.861 165.02 278.485C165.65 279.109 165.965 279.955 165.965 281.023C165.965 282.411 165.466 283.504 164.472 284.303C163.478 285.101 162.117 285.501 160.388 285.501C158.749 285.501 157.433 285.125 156.442 284.374C155.561 283.707 155.051 282.828 154.913 281.739L154.879 281.32H157.662C157.725 281.879 158.018 282.326 158.539 282.656C159.06 282.987 159.727 283.153 160.541 283.153C161.29 283.153 161.903 282.989 162.38 282.66C162.858 282.333 163.095 281.908 163.095 281.387C163.095 280.947 162.911 280.592 162.543 280.318C162.235 280.089 161.762 279.895 161.124 279.733L160.721 279.64L158.93 279.258C156.439 278.737 155.194 277.425 155.194 275.326C155.194 274.028 155.673 272.985 156.633 272.2C157.593 271.414 158.867 271.021 160.455 271.021ZM173.54 271.02C175.052 271.02 176.296 271.406 177.272 272.176C178.125 272.85 178.622 273.699 178.763 274.723L178.801 275.173H176.094C176.024 274.625 175.757 274.187 175.293 273.856C174.829 273.525 174.251 273.359 173.559 273.359C172.835 273.359 172.254 273.516 171.819 273.827C171.384 274.139 171.166 274.555 171.166 275.078C171.166 275.504 171.342 275.847 171.695 276.108C171.978 276.317 172.405 276.497 172.978 276.649L173.435 276.757L175.093 277.11C176.472 277.403 177.476 277.861 178.105 278.484C178.735 279.108 179.048 279.955 179.048 281.024C179.048 282.411 178.551 283.504 177.557 284.302C176.562 285.101 175.202 285.501 173.473 285.501C171.834 285.501 170.518 285.125 169.527 284.374C168.646 283.707 168.136 282.829 167.998 281.738L167.963 281.32H170.747C170.811 281.88 171.103 282.325 171.624 282.656C172.144 282.987 172.812 283.152 173.625 283.152C174.375 283.152 174.988 282.989 175.465 282.661C175.941 282.333 176.179 281.909 176.179 281.386C176.179 280.947 175.996 280.591 175.627 280.318C175.32 280.09 174.847 279.895 174.209 279.733L173.806 279.64L172.015 279.258C169.524 278.736 168.278 277.426 168.278 275.325C168.278 274.027 168.758 272.986 169.718 272.199C170.677 271.414 171.952 271.02 173.54 271.02ZM70.7458 279.719C75.1185 279.719 75.2934 281.613 75.3004 282.45V282.65C75.2937 283.475 75.1328 285.301 71.2708 285.451L70.7458 285.461H68.9393V279.719H70.7458ZM146.427 271.364C148.473 271.364 150.06 271.958 151.188 273.145C152.317 274.332 152.88 276.004 152.88 278.16C152.88 280.394 152.318 282.117 151.198 283.329C150.188 284.42 148.799 285.02 147.031 285.129L146.427 285.147H141.012V271.364H146.427ZM145.969 273.827H143.891V282.685H145.969C147.247 282.685 148.228 282.301 148.914 281.535C149.601 280.768 149.944 279.659 149.944 278.208C149.944 276.821 149.595 275.744 148.895 274.977C148.197 274.21 147.222 273.827 145.969 273.827ZM112.7 264.954C110.477 264.954 108.675 266.758 108.675 268.984C108.675 271.211 110.477 273.015 112.7 273.015C114.923 273.015 116.726 271.211 116.726 268.984C116.726 266.758 114.923 264.954 112.7 264.954Z" fill="white"/>
<g filter="url(#filter4_d_3910_100221)">
<circle cx="442" cy="221" r="76" fill="#0068FF"/>
</g>
<path d="M407.194 201C411.22 201.248 415.191 202.449 418.643 204.547C418.358 204.873 418.077 205.203 417.806 205.54C414.028 203.343 409.647 202.17 405.273 202.291C399.896 202.398 394.56 204.414 390.496 207.954C386.354 211.474 383.511 216.483 382.62 221.851C381.936 225.8 382.287 229.92 383.625 233.7C385.185 238.219 388.216 242.189 392.084 244.981C396.217 247.982 401.36 249.531 406.459 249.388C411.029 249.271 415.561 247.787 419.305 245.155C423.988 241.871 427.433 236.861 428.739 231.28C429.725 226.958 429.52 222.367 428.087 218.169C428.481 218.008 428.869 217.836 429.26 217.664C430.993 222.583 431.094 228.048 429.589 233.037C428.18 237.804 425.263 242.084 421.404 245.201C417.49 248.377 412.586 250.278 407.567 250.648H404.061C398.792 250.261 393.653 248.179 389.649 244.721C386.472 242.009 384.002 238.474 382.557 234.553L382.535 234.591C381.706 232.224 381.155 229.759 381 227.251V224.527C381.338 218.054 384.294 211.754 389.119 207.424C393.3 203.584 398.842 201.313 404.497 201H407.194ZM410.219 203.865C411.26 204.091 412.291 204.361 413.303 204.693C413.51 204.773 413.719 204.849 413.924 204.933C414.208 205.043 414.491 205.154 414.775 205.266C415.677 205.666 416.554 206.114 417.41 206.602C416.495 208.497 416.213 210.717 416.855 212.742C417.76 215.854 420.597 218.241 423.794 218.681C424.523 218.79 425.265 218.783 425.998 218.717C426.392 218.625 426.793 218.579 427.195 218.55C427.26 218.758 427.321 218.965 427.382 219.174C427.557 219.741 427.715 220.312 427.854 220.887L428.233 222.748C428.275 223.267 428.304 223.786 428.357 224.302C428.492 225.477 428.494 226.678 428.353 227.851C428.306 228.31 428.275 228.772 428.246 229.233C428.124 229.612 428.129 230.017 428.01 230.398C427.959 230.68 427.922 230.966 427.847 231.245C427.789 231.471 427.735 231.699 427.677 231.926C425.842 238.921 420.42 244.842 413.619 247.273C413.451 247.331 413.284 247.391 413.118 247.452C412.943 247.503 412.77 247.561 412.6 247.622C412.503 247.647 412.311 247.695 412.214 247.719C411.948 247.797 411.678 247.87 411.41 247.948C411.182 247.999 410.955 248.052 410.73 248.111C407.822 248.73 404.796 248.725 401.862 248.29C400.776 248.059 399.692 247.802 398.636 247.452L398.118 247.277C397.838 247.163 397.556 247.057 397.273 246.95C391.992 244.782 387.613 240.537 385.272 235.325C385.031 234.763 384.803 234.195 384.598 233.618C384.391 233.015 384.211 232.403 384.032 231.79C383.981 231.563 383.932 231.335 383.868 231.11C383.019 227.351 383.143 223.391 384.201 219.684C384.375 219.125 384.549 218.566 384.764 218.02L385.034 217.307C387.291 211.912 391.717 207.476 397.098 205.205C397.381 205.098 397.663 204.984 397.945 204.87C398.58 204.649 399.217 204.436 399.864 204.256C400.412 204.11 400.969 203.998 401.521 203.862C404.39 203.328 407.35 203.323 410.219 203.865ZM447.521 240.314C447.278 241.108 447.153 241.96 446.747 242.693C446.54 242.757 446.326 242.786 446.117 242.834C446.103 242.74 446.076 242.553 446.061 242.46C446.156 242.387 446.344 242.242 446.439 242.171C446.268 241.557 446.023 240.967 445.828 240.362C445.954 240.358 446.205 240.353 446.331 240.35C446.453 240.746 446.575 241.14 446.706 241.535C446.905 241.069 446.794 240.209 447.521 240.314ZM454.355 239.481C453.885 239.499 453.414 239.501 452.944 239.491C452.18 238.944 451.117 238.808 450.28 239.265C449.857 239.499 449.433 239.923 449.497 240.448C449.535 241.069 450.134 241.463 450.672 241.644C451.584 241.89 452.829 241.717 453.248 240.746C452.557 240.73 451.866 240.741 451.175 240.725C451.166 240.54 451.158 240.356 451.151 240.173C452.324 239.971 453.521 240.061 454.7 240.176C454.686 240.737 454.469 241.3 453.975 241.608C452.525 242.565 450.506 242.582 449.017 241.701C448.434 241.367 448.132 240.729 448.151 240.067C448.555 239.159 449.491 238.663 450.431 238.51C451.786 238.246 453.336 238.484 454.355 239.481ZM466.079 238.879C466.658 239.183 467.259 239.724 467.208 240.441C467.171 241.19 466.504 241.693 465.872 241.965C464.575 242.502 463.043 242.466 461.785 241.839C461.155 241.521 460.575 240.873 460.729 240.117C460.948 239.251 461.839 238.799 462.636 238.581C463.768 238.314 465.021 238.357 466.079 238.879ZM456.27 238.462C456.703 239.141 457.145 239.816 457.564 240.504L457.766 240.576L459.092 238.484C459.272 238.479 459.452 238.474 459.636 238.471C460.023 239.744 460.45 241.006 460.828 242.281C460.418 242.281 460.009 242.281 459.602 242.273C459.437 241.683 459.26 241.096 459.109 240.503L458.917 240.501C458.617 241.016 458.304 241.526 457.975 242.023C457.827 242.021 457.53 242.018 457.383 242.014C456.978 241.525 456.848 240.739 456.236 240.47C456.126 241.083 455.965 241.686 455.771 242.278L454.562 242.28C454.931 241.016 455.389 239.78 455.713 238.505C455.899 238.49 456.084 238.474 456.27 238.462ZM443.296 239.457C443.878 239.61 444.128 239.964 444.037 240.373C444.681 240.137 445.503 240.343 445.761 240.787C446.158 241.31 445.774 241.904 445.093 242.229C444.465 242.201 443.838 242.181 443.212 242.169C443.228 241.264 443.15 240.358 443.296 239.457ZM462.529 239.443C461.94 239.828 461.867 240.781 462.432 241.22C463.305 241.94 464.753 241.943 465.568 241.128C465.92 240.821 465.928 240.28 465.77 239.874C465.517 239.423 465.011 239.241 464.578 239.02C463.872 238.967 463.111 238.983 462.529 239.443ZM444.12 240.673C443.911 241.02 443.841 241.389 444.068 241.741C444.402 241.729 444.739 241.715 445.075 241.7C445.086 241.474 445.114 241.247 445.093 241.021C444.947 240.759 444.478 240.724 444.12 240.673ZM405.292 211.515C404.827 211.632 404.356 211.722 403.891 211.836C403.681 211.916 403.47 211.991 403.26 212.069C401.154 212.924 399.46 214.691 398.679 216.826C398.624 216.998 398.572 217.171 398.519 217.347C397.991 219.208 398.314 221.167 398.23 223.073C397.697 223.099 397.145 223.015 396.628 223.175C396.181 223.343 396.035 223.864 396.055 224.301C396.062 228.604 396.049 232.909 396.062 237.213C396.013 237.804 396.524 238.35 397.122 238.297H415.474C416.07 238.352 416.585 237.811 416.537 237.219L416.543 230.757L416.544 224.294C416.565 223.86 416.415 223.343 415.972 223.175C415.459 223.031 414.918 223.092 414.393 223.059C414.33 221.155 414.605 219.198 414.086 217.336C414.036 217.165 413.982 216.993 413.926 216.825C413.133 214.638 411.372 212.863 409.219 212.004C408.917 211.911 408.617 211.814 408.316 211.719C407.326 211.474 406.306 211.409 405.292 211.515ZM488.879 230.602L488.881 229.947C489.293 229.944 489.707 229.944 490.122 229.946C490.034 231.515 490.123 233.088 490.071 234.659C490.034 235.543 489.699 236.527 488.853 236.942C487.695 237.498 486.303 237.374 485.137 236.905L485.391 235.839C486.249 236.104 487.244 236.502 488.082 235.97C488.67 235.648 488.704 234.895 488.734 234.305C487.899 235.213 486.388 235.293 485.471 234.467C484.218 233.356 484.442 231.068 485.86 230.189C486.79 229.585 488.188 229.667 488.879 230.602ZM406.656 226.617C407.459 226.824 408.211 227.38 408.423 228.217C408.805 229.225 408.226 230.311 407.387 230.882C407.586 232.375 407.676 233.88 407.892 235.371H404.705C404.915 233.878 405.024 232.372 405.209 230.876C404.414 230.328 403.844 229.333 404.131 228.356C404.312 227.46 405.088 226.836 405.941 226.617H406.656ZM462.116 227.54C462.133 228.562 462.123 229.582 462.125 230.604C463.047 229.529 464.931 229.527 465.797 230.668C466.804 232.032 466.405 234.438 464.697 235.035C463.75 235.438 462.678 235.116 461.943 234.448C461.936 234.604 461.924 234.917 461.919 235.074H460.709C460.812 232.573 460.731 230.066 460.758 227.562C461.21 227.54 461.663 227.581 462.116 227.54ZM459.016 230.677C459.765 231.532 459.834 232.858 459.315 233.848C458.379 235.477 455.792 235.672 454.557 234.29C453.413 232.991 453.909 230.587 455.605 230.022C456.736 229.612 458.172 229.754 459.016 230.677ZM480.729 228.291C480.566 228.705 480.443 229.135 480.325 229.565C479.488 229.305 478.55 229.024 477.72 229.458C477.664 229.582 477.552 229.828 477.494 229.952C478.146 230.826 479.376 230.743 480.196 231.383C481.338 232.122 481.206 234.065 480.031 234.712C478.715 235.443 477.07 235.303 475.727 234.717L476.092 233.326C477.066 233.707 478.318 234.103 479.233 233.385C479.226 233.229 479.213 232.914 479.208 232.758L478.457 232.295C477.718 232.093 476.934 231.881 476.362 231.34C475.659 230.673 475.637 229.459 476.277 228.744C476.812 228.116 477.657 227.875 478.452 227.83C479.23 227.81 480.046 227.883 480.729 228.291ZM470.781 230.105C471.346 230.388 471.562 231.017 471.733 231.579C471.73 232.746 471.706 233.911 471.769 235.075H470.555C470.535 234.9 470.517 234.725 470.501 234.552C469.674 235.228 468.359 235.516 467.499 234.744C466.857 234.142 466.893 232.989 467.577 232.433C468.336 231.733 469.448 231.736 470.417 231.66L470.334 231.454C469.877 230.406 468.487 230.806 467.689 231.2C467.592 230.884 467.497 230.568 467.409 230.25C468.461 229.818 469.719 229.57 470.781 230.105ZM449.895 228.262C449.766 228.721 449.628 229.177 449.489 229.633C448.344 229.221 446.942 229.056 445.879 229.765C444.672 230.563 444.764 232.598 445.978 233.346C446.709 233.866 447.645 233.78 448.489 233.698C448.492 233.215 448.492 232.732 448.479 232.251H447.254V230.99C448.224 230.99 449.195 230.981 450.164 230.998L450.163 234.7C448.628 235.164 446.93 235.356 445.388 234.819C444.073 234.358 443.142 233.005 443.208 231.607C443.139 230.072 444.244 228.662 445.675 228.198C447.032 227.751 448.548 227.795 449.895 228.262ZM494.591 229.806C495.536 229.755 496.397 230.52 496.509 231.452C496.664 232.653 496.562 233.87 496.584 235.079C496.114 235.075 495.643 235.074 495.175 235.07C495.164 234.091 495.188 233.112 495.168 232.132C495.17 231.597 494.852 230.961 494.243 230.962C493.681 230.859 493.265 231.286 492.969 231.697C492.959 232.821 492.962 233.945 492.962 235.067C492.492 235.074 492.022 235.077 491.555 235.081C491.485 233.367 491.511 231.651 491.499 229.937C491.921 229.942 492.344 229.949 492.769 229.964C492.777 230.127 492.794 230.456 492.803 230.619C493.29 230.161 493.891 229.76 494.591 229.806ZM452.837 227.558L452.839 235.074C452.392 235.074 451.946 235.075 451.499 235.077V227.558H452.837ZM482.157 229.942C482.634 229.942 483.111 229.944 483.59 229.951C483.564 231.66 483.637 233.37 483.547 235.077L482.155 235.07C482.157 233.36 482.155 231.651 482.157 229.942ZM474.518 227.555L474.516 235.077C474.056 235.075 473.596 235.074 473.136 235.069C473.136 232.569 473.141 230.07 473.134 227.572C473.594 227.56 474.054 227.557 474.518 227.555ZM455.829 231.217C455.347 231.727 455.326 232.503 455.469 233.154C455.656 233.904 456.545 234.473 457.279 234.093C457.72 233.969 457.926 233.537 458.155 233.181C458.16 232.564 458.286 231.859 457.849 231.345C457.403 230.689 456.359 230.644 455.829 231.217ZM469.983 232.581C469.365 232.644 468.353 232.802 468.461 233.642C468.641 234.526 469.978 234.288 470.27 233.594C470.423 233.26 470.602 232.442 469.983 232.581ZM462.301 231.627C462.05 232.238 462.019 233.008 462.402 233.567C462.909 234.288 464.116 234.268 464.617 233.55C464.928 233.132 464.935 232.593 464.945 232.095C464.74 231.7 464.585 231.212 464.137 231.03C463.502 230.68 462.592 230.949 462.301 231.627ZM486.833 231.003C485.802 231.566 485.772 233.316 486.84 233.861C487.531 234.314 488.587 233.79 488.648 232.965C488.689 232.482 488.741 231.964 488.543 231.508C488.256 230.888 487.41 230.67 486.833 231.003ZM483.641 228.705C483.417 229.413 482.138 229.339 482.075 228.562C481.974 228.135 482.294 227.734 482.7 227.638C483.276 227.511 483.882 228.13 483.641 228.705ZM412.181 219.528C412.192 220.958 412.203 222.39 412.172 223.82C409.477 223.814 406.783 223.814 404.09 223.82C403.637 223.809 403.185 223.813 402.733 223.82C402.024 223.816 401.31 223.838 400.604 223.743C400.616 222.22 400.592 220.698 400.614 219.176C400.721 216.221 403.248 213.358 406.306 213.438C409.562 213.245 412.25 216.388 412.181 219.528ZM482.036 209.96V218.006C482.05 219.048 482.197 220.2 482.95 220.985C483.683 221.709 484.794 221.8 485.768 221.75C486.809 221.711 487.755 221.074 488.31 220.211C489.037 219.113 489.244 217.761 489.251 216.467C489.247 214.3 489.247 212.133 489.249 209.967L490.826 209.966V222.752L489.375 222.748V220.495C488.675 221.859 487.317 222.857 485.79 223.044C484.454 223.182 482.977 223.095 481.885 222.221C480.824 221.383 480.493 219.96 480.442 218.671C480.427 215.781 480.45 212.892 480.43 210.001C480.965 209.969 481.5 209.96 482.036 209.96ZM509.743 211.333C511.037 212.815 511.383 214.871 511.37 216.78L501.503 216.785C501.6 218.221 501.953 219.749 503.077 220.739C504.223 221.886 506.067 222.022 507.515 221.434C508.687 220.936 509.359 219.746 509.69 218.569C510.23 218.557 510.77 218.555 511.312 218.561C510.948 220.019 510.247 221.507 508.933 222.33C507.748 223.083 506.294 223.155 504.934 223.065C503.364 222.963 501.851 222.082 501.033 220.728C500.07 219.161 499.842 217.251 499.978 215.447C500.153 213.875 500.657 212.254 501.803 211.113C503.888 209.01 507.809 209.034 509.743 211.333ZM473.373 209.592C474.966 209.585 476.659 210.2 477.617 211.526C478.146 212.235 478.401 213.108 478.454 213.985C477.941 213.988 477.43 213.988 476.919 213.987C476.622 212.936 476.104 211.838 475.085 211.319C473.742 210.68 472.037 210.834 470.852 211.742C469.938 212.419 469.388 213.478 469.098 214.558C468.652 216.17 468.828 217.943 469.584 219.436C470.073 220.329 470.828 221.113 471.781 221.5C473.071 221.993 474.669 221.82 475.681 220.827C476.475 220.142 476.861 219.125 477.049 218.117C477.552 218.12 478.055 218.12 478.559 218.118C478.542 218.37 478.528 218.623 478.515 218.875L478.428 218.975C478.131 220.458 477.214 221.844 475.852 222.539C474.779 223.121 473.521 223.158 472.334 223.044C470.536 222.845 468.911 221.657 468.096 220.052C467.247 218.448 467.117 216.561 467.378 214.793C467.675 213.162 468.483 211.532 469.898 210.6C470.908 209.898 472.148 209.558 473.373 209.592ZM464.519 211.37C465.779 212.856 466.062 214.873 466.137 216.755C465.718 216.801 465.298 216.859 464.877 216.853C462.013 216.816 459.147 216.881 456.286 216.792C456.289 218.362 456.831 220.05 458.135 221.014C459.233 221.886 460.783 221.939 462.072 221.509C463.346 221.051 464.084 219.793 464.459 218.559C464.95 218.557 465.441 218.559 465.933 218.533C465.454 218.487 464.974 218.465 464.497 218.419C465.003 218.421 465.507 218.45 466.013 218.474C465.755 220.006 464.964 221.526 463.617 222.364C462.415 223.092 460.96 223.162 459.595 223.058C457.995 222.925 456.454 222 455.685 220.574C454.657 218.732 454.477 216.496 454.876 214.451C455.209 212.732 456.153 211.021 457.758 210.205C459.928 209.1 462.919 209.43 464.519 211.37ZM449.105 209.644C450.373 209.782 451.647 210.413 452.306 211.545C452.73 212.19 452.837 212.965 452.947 213.711C452.396 213.723 451.846 213.72 451.297 213.696C451.234 213.087 451.119 212.446 450.688 211.982C449.883 211.05 448.536 210.843 447.373 210.976C446.421 211.091 445.346 211.572 445.066 212.576C444.786 213.342 445.23 214.165 445.894 214.561C447.801 215.713 450.282 215.344 452.104 216.672C453.633 217.775 453.8 220.251 452.486 221.584C451.418 222.742 449.766 223.116 448.244 223.09C446.832 223.136 445.337 222.781 444.273 221.805C443.397 220.989 443.042 219.773 442.984 218.608C443.5 218.601 444.016 218.601 444.533 218.6C444.626 219.351 444.826 220.138 445.392 220.681C446.545 221.856 448.392 221.973 449.896 221.531C450.844 221.245 451.808 220.446 451.742 219.366C451.817 218.511 451.129 217.833 450.394 217.53C448.484 216.748 446.251 216.825 444.521 215.6C442.921 214.459 443.059 211.771 444.612 210.649C445.884 209.707 447.563 209.481 449.105 209.644ZM499.803 209.751C499.807 210.304 499.802 210.857 499.776 211.407C498.416 211.302 497.025 211.851 496.141 212.895C495.523 213.662 495.108 214.631 495.127 215.626C495.136 217.996 495.129 220.365 495.134 222.733C494.582 222.75 494.032 222.752 493.48 222.75C493.49 218.487 493.47 214.225 493.49 209.962C493.984 209.964 494.48 209.966 494.976 209.967C494.976 210.913 494.969 211.86 494.99 212.805C495.462 211.804 496.166 210.877 497.16 210.348C497.961 209.892 498.898 209.785 499.803 209.751ZM504.138 211.271C502.562 212.016 501.708 213.759 501.559 215.435C504.296 215.454 507.033 215.442 509.77 215.442C509.661 214.48 509.454 213.497 508.897 212.688C508.345 211.827 507.459 211.249 506.488 210.97C505.697 210.925 504.863 210.897 504.138 211.271ZM458.019 211.817C456.944 212.712 456.482 214.104 456.262 215.441C459.006 215.447 461.75 215.447 464.493 215.439C464.432 213.869 463.714 212.217 462.3 211.426C460.975 210.646 459.179 210.809 458.019 211.817ZM431.832 202.471C432.214 202.994 432.666 203.479 432.938 204.074C432.921 204.29 432.775 204.462 432.669 204.64C430.24 208.138 427.847 211.662 425.443 215.179C423.565 212.943 421.757 210.647 419.94 208.361C420.37 207.867 420.718 207.308 421.164 206.832C421.407 206.74 421.592 206.954 421.772 207.077C422.964 208.058 424.195 208.99 425.378 209.981C427.548 207.495 429.688 204.98 431.832 202.471Z" fill="white"/>
<defs>
<filter id="filter0_f_3910_100221" x="124.87" y="300.937" width="305.792" height="136.287" filterUnits="userSpaceOnUse" color-interpolation-filters="sRGB">
<feFlood flood-opacity="0" result="BackgroundImageFix"/>
<feBlend mode="normal" in="SourceGraphic" in2="BackgroundImageFix" result="shape"/>
<feGaussianBlur stdDeviation="27" result="effect1_foregroundBlur_3910_100221"/>
</filter>
<filter id="filter1_d_3910_100221" x="163" y="10" width="74" height="74" filterUnits="userSpaceOnUse" color-interpolation-filters="sRGB">
<feFlood flood-opacity="0" result="BackgroundImageFix"/>
<feColorMatrix in="SourceAlpha" type="matrix" values="0 0 0 0 0 0 0 0 0 0 0 0 0 0 0 0 0 0 127 0" result="hardAlpha"/>
<feOffset dy="4"/>
<feGaussianBlur stdDeviation="5"/>
<feColorMatrix type="matrix" values="0 0 0 0 0 0 0 0 0 0 0 0 0 0 0 0 0 0 0.1 0"/>
<feBlend mode="normal" in2="BackgroundImageFix" result="effect1_dropShadow_3910_100221"/>
<feBlend mode="normal" in="SourceGraphic" in2="effect1_dropShadow_3910_100221" result="shape"/>
</filter>
<filter id="filter2_d_3910_100221" x="378" y="54" width="74" height="74" filterUnits="userSpaceOnUse" color-interpolation-filters="sRGB">
<feFlood flood-opacity="0" result="BackgroundImageFix"/>
<feColorMatrix in="SourceAlpha" type="matrix" values="0 0 0 0 0 0 0 0 0 0 0 0 0 0 0 0 0 0 127 0" result="hardAlpha"/>
<feOffset dy="4"/>
<feGaussianBlur stdDeviation="5"/>
<feColorMatrix type="matrix" values="0 0 0 0 0 0 0 0 0 0 0 0 0 0 0 0 0 0 0.1 0"/>
<feBlend mode="normal" in2="BackgroundImageFix" result="effect1_dropShadow_3910_100221"/>
<feBlend mode="normal" in="SourceGraphic" in2="effect1_dropShadow_3910_100221" result="shape"/>
</filter>
<filter id="filter3_d_3910_100221" x="28" y="197" width="172" height="172" filterUnits="userSpaceOnUse" color-interpolation-filters="sRGB">
<feFlood flood-opacity="0" result="BackgroundImageFix"/>
<feColorMatrix in="SourceAlpha" type="matrix" values="0 0 0 0 0 0 0 0 0 0 0 0 0 0 0 0 0 0 127 0" result="hardAlpha"/>
<feOffset dy="4"/>
<feGaussianBlur stdDeviation="5"/>
<feColorMatrix type="matrix" values="0 0 0 0 0 0 0 0 0 0 0 0 0 0 0 0 0 0 0.1 0"/>
<feBlend mode="normal" in2="BackgroundImageFix" result="effect1_dropShadow_3910_100221"/>
<feBlend mode="normal" in="SourceGraphic" in2="effect1_dropShadow_3910_100221" result="shape"/>
</filter>
<filter id="filter4_d_3910_100221" x="356" y="139" width="172" height="172" filterUnits="userSpaceOnUse" color-interpolation-filters="sRGB">
<feFlood flood-opacity="0" result="BackgroundImageFix"/>
<feColorMatrix in="SourceAlpha" type="matrix" values="0 0 0 0 0 0 0 0 0 0 0 0 0 0 0 0 0 0 127 0" result="hardAlpha"/>
<feOffset dy="4"/>
<feGaussianBlur stdDeviation="5"/>
<feColorMatrix type="matrix" values="0 0 0 0 0 0 0 0 0 0 0 0 0 0 0 0 0 0 0.1 0"/>
<feBlend mode="normal" in2="BackgroundImageFix" result="effect1_dropShadow_3910_100221"/>
<feBlend mode="normal" in="SourceGraphic" in2="effect1_dropShadow_3910_100221" result="shape"/>
</filter>
</defs>
</svg>
