<svg width="114" height="48" viewBox="0 0 114 48" fill="none" xmlns="http://www.w3.org/2000/svg">
<path d="M22.8824 22.9886C22.9264 23.0291 22.9676 23.0726 23.0055 23.1188L23.2033 23.3142L22.8824 22.9886Z" fill="#005D98"/>
<path d="M76.5028 19.5007H79.5227V22.4025L82.1326 19.5007H86.2886L83.0926 23.0971L86.4261 29.301H82.7163L80.7891 25.6105L79.5227 27.0674V29.301H76.5028V19.5007Z" fill="#005D98"/>
<path d="M64.9369 19.5007H67.6746L72.0935 24.981V19.5007H75.0314V29.301H72.0935L67.8748 24.0981L67.8796 29.301H64.9369V19.5007Z" fill="#005D98"/>
<path d="M11.0247 21.9562H15.3327V19.4959H8V29.2889H15.3327V26.8527H11.0247V25.6226H14.5994V23.1623H11.0247V23.143V21.9562Z" fill="#005D98"/>
<path d="M44.5356 19.5007H50.1871C51.1294 19.5007 51.853 19.7347 52.358 20.2026C52.8478 20.6443 53.1209 21.2775 53.1057 21.9369C53.1182 22.4831 52.9254 23.0142 52.5654 23.4252C52.2777 23.7309 51.9152 23.9562 51.5137 24.0788C52.1124 24.1887 52.6574 24.4951 53.0623 24.9496C53.4027 25.3933 53.5784 25.9416 53.5592 26.5006C53.5661 26.9805 53.4445 27.4535 53.207 27.8706C52.9766 28.272 52.6436 28.605 52.2422 28.8354C51.8862 29.0222 51.4968 29.137 51.0964 29.1731C50.648 29.2412 50.1963 29.2863 49.7433 29.3082H44.5356V19.5007ZM47.5821 23.3383H48.8942C49.3766 23.3383 49.6926 23.2563 49.8783 23.0971C50.0698 22.9147 50.1706 22.6567 50.1533 22.3928C50.1671 22.1407 50.066 21.896 49.8783 21.7271C49.6926 21.5655 49.3718 21.4859 48.9135 21.4859H47.5821V23.3383ZM47.5821 27.1808H49.121C49.642 27.1808 50.0086 27.0891 50.2209 26.9058C50.4347 26.7184 50.5525 26.4446 50.5417 26.1605C50.5505 25.8911 50.4327 25.6331 50.2233 25.4634C50.0134 25.2873 49.6444 25.2005 49.1161 25.2005H47.5821V27.1808Z" fill="#005D98"/>
<path d="M60.5542 27.668H57.1267L56.6442 29.301H53.5664L57.24 19.5104H60.5325L64.2013 29.301H61.0487L60.5542 27.668ZM59.9271 25.5526L58.8489 22.0358L57.7827 25.5526H59.9271Z" fill="#005D98"/>
<path d="M30.6083 19.5007H27.5836V29.301H30.6083V19.5007Z" fill="#005D98"/>
<path d="M43.0594 19.5007H40.0347H39.0988L37.5768 24.4093L36.0475 19.5007H35.1092H32.0821H32.0773V29.301H32.0821H34.5496H35.1092V24.3683L36.4504 29.301H38.6888L40.0347 24.3707V29.301H40.5943H43.0594H43.0667V19.5007H43.0594Z" fill="#005D98"/>
<path d="M26.8142 27.5667L24.8845 25.637C24.603 25.283 24.4485 24.8447 24.4455 24.3924C24.4476 23.8798 24.6482 23.3879 25.0051 23.0199L26.8214 21.2036C26.8367 21.1873 26.8453 21.1658 26.8455 21.1433C26.855 21.1064 26.8429 21.0672 26.8142 21.042L24.8121 19.0424C24.7959 19.0269 24.7743 19.0183 24.7518 19.0183C24.7287 19.0186 24.7065 19.0271 24.6891 19.0424L22.8921 20.8418L21.7054 22.0069L22.5376 22.839C23.0947 23.4541 23.196 23.8425 23.196 24.3948C23.196 25.0847 22.9162 25.5309 22.4242 26.023L21.7006 26.7345L24.6674 29.699C24.6836 29.7145 24.7052 29.7231 24.7277 29.7231C24.7501 29.7229 24.7717 29.7143 24.788 29.699L26.7973 27.6921L26.8117 27.6776C26.8253 27.6604 26.8329 27.6393 26.8334 27.6173C26.8321 27.5989 26.8254 27.5813 26.8142 27.5667Z" fill="#005D98"/>
<path d="M19.8481 20.6368L18.2465 19.0352C18.2291 19.0199 18.2069 19.0114 18.1838 19.0111C18.1619 19.0121 18.1409 19.0197 18.1235 19.0328L16.1166 21.0421L16.1022 21.0565C16.0881 21.0725 16.0803 21.0931 16.0804 21.1144C16.0804 21.1334 16.0863 21.152 16.0973 21.1675L18.027 23.0972C18.3095 23.4508 18.4649 23.8892 18.4684 24.3418C18.4644 24.8545 18.2631 25.346 17.9064 25.7143C17.9064 25.7143 21.1241 23.2588 19.8481 20.6368Z" fill="url(#paint0_linear_485_767)"/>
<path d="M22.2047 22.9958L19.8457 20.6368C20.9697 23.155 18.2875 25.3814 17.916 25.7408L16.1142 27.5547C16.1003 27.5717 16.0927 27.593 16.0925 27.615C16.0919 27.6363 16.0997 27.6571 16.1142 27.6728L18.1162 29.6725C18.1336 29.6877 18.1558 29.6963 18.1789 29.6966C18.2026 29.6966 18.2252 29.6871 18.2417 29.67L20.0386 27.8706L22.0913 25.8204C22.5327 25.3814 22.7812 24.981 22.7812 24.3731C22.7812 23.898 22.7136 23.5482 22.2047 22.9958Z" fill="#005D98"/>
<path d="M99.0918 9.74634H98.2307V24.349H99.0918V9.74634Z" fill="url(#paint1_linear_485_767)"/>
<path d="M104.989 15.709C105.007 15.8143 105.019 15.9206 105.026 16.0274C105.024 16.6691 104.563 17.2174 103.93 17.3275C105.829 17.2575 105.904 15.9598 105.889 15.7162C105.272 12.3831 102.453 9.90602 99.0677 9.72221L98.6649 9.70532H98.2307V11.2201C98.3214 10.824 98.6953 10.5592 99.0991 10.605C101.983 10.7975 104.388 12.8818 104.989 15.709Z" fill="url(#paint2_linear_485_767)"/>
<path d="M99.5742 24.3032C103.145 23.8555 105.865 20.8871 106 17.2913C106 17.2044 106 17.1152 106 17.026C106 16.5769 105.958 16.1289 105.877 15.6873C105.877 15.6873 105.935 17.2913 103.776 17.2913H99.5742V24.3032Z" fill="url(#paint3_linear_485_767)"/>
<path d="M92.3356 18.3888C92.3148 18.2838 92.3019 18.1774 92.297 18.0704C92.2998 17.4315 92.7584 16.8856 93.3873 16.7727C91.489 16.8402 91.4166 18.1379 91.4311 18.3816C92.0484 21.7151 94.8672 24.193 98.2524 24.378L98.6552 24.3924H99.087V22.8801C98.9963 23.2749 98.6236 23.5386 98.2211 23.4927C95.338 23.3005 92.9339 21.2157 92.3356 18.3888Z" fill="url(#paint4_linear_485_767)"/>
<path d="M97.7483 9.79456C94.1784 10.2424 91.4589 13.2111 91.325 16.8064C91.325 16.8957 91.325 16.9825 91.325 17.0718C91.3253 17.5208 91.3665 17.9689 91.448 18.4105C91.448 18.4105 91.3925 16.8064 93.5489 16.8064H97.7555L97.7483 9.79456Z" fill="url(#paint5_linear_485_767)"/>
<defs>
<linearGradient id="paint0_linear_485_767" x1="18.9183" y1="23.336" x2="17.4579" y2="22.7077" gradientUnits="userSpaceOnUse">
<stop offset="0.35" stop-color="#003863"/>
<stop offset="1" stop-color="#005D98"/>
</linearGradient>
<linearGradient id="paint1_linear_485_767" x1="98.6625" y1="24.3707" x2="98.6625" y2="9.76081" gradientUnits="userSpaceOnUse">
<stop offset="0.1" stop-color="#003863"/>
<stop offset="0.35" stop-color="#29ABE2"/>
<stop offset="0.5" stop-color="#60CBF5"/>
<stop offset="0.65" stop-color="#179EDA"/>
<stop offset="0.9" stop-color="#003863"/>
</linearGradient>
<linearGradient id="paint2_linear_485_767" x1="98.0884" y1="10.0435" x2="105.742" y2="16.0416" gradientUnits="userSpaceOnUse">
<stop stop-color="#005D98"/>
<stop offset="0.35" stop-color="#29ABE2"/>
<stop offset="0.53" stop-color="#60CBF5"/>
<stop offset="0.61" stop-color="#46BBEB"/>
<stop offset="0.7" stop-color="#2CABE2"/>
<stop offset="0.78" stop-color="#1CA1DC"/>
<stop offset="0.85" stop-color="#179EDA"/>
<stop offset="0.87" stop-color="#1698D3"/>
<stop offset="0.9" stop-color="#1287BF"/>
<stop offset="0.94" stop-color="#0B6B9E"/>
<stop offset="0.99" stop-color="#034471"/>
<stop offset="1" stop-color="#003863"/>
</linearGradient>
<linearGradient id="paint3_linear_485_767" x1="103.583" y1="16.71" x2="99.3687" y2="21.8724" gradientUnits="userSpaceOnUse">
<stop stop-color="#00BDF2"/>
<stop offset="0.43" stop-color="#008DCB"/>
<stop offset="0.8" stop-color="#006AAF"/>
<stop offset="1" stop-color="#005DA4"/>
</linearGradient>
<linearGradient id="paint4_linear_485_767" x1="99.2365" y1="24.0519" x2="91.5802" y2="18.0561" gradientUnits="userSpaceOnUse">
<stop stop-color="#005D98"/>
<stop offset="0.35" stop-color="#29ABE2"/>
<stop offset="0.53" stop-color="#60CBF5"/>
<stop offset="0.61" stop-color="#46BBEB"/>
<stop offset="0.7" stop-color="#2CABE2"/>
<stop offset="0.78" stop-color="#1CA1DC"/>
<stop offset="0.85" stop-color="#179EDA"/>
<stop offset="0.87" stop-color="#1698D3"/>
<stop offset="0.9" stop-color="#1287BF"/>
<stop offset="0.94" stop-color="#0B6B9E"/>
<stop offset="0.99" stop-color="#034471"/>
<stop offset="1" stop-color="#003863"/>
</linearGradient>
<linearGradient id="paint5_linear_485_767" x1="93.7408" y1="17.3878" x2="97.9561" y2="12.2257" gradientUnits="userSpaceOnUse">
<stop stop-color="#00BDF2"/>
<stop offset="0.43" stop-color="#008DCB"/>
<stop offset="0.8" stop-color="#006AAF"/>
<stop offset="1" stop-color="#005DA4"/>
</linearGradient>
</defs>
</svg>
