<svg width="114" height="48" viewBox="0 0 114 48" fill="none" xmlns="http://www.w3.org/2000/svg">
<path fill-rule="evenodd" clip-rule="evenodd" d="M17.2191 16.8748H20.2652V31.9011H17.2293V31.4754C17.2293 29.5261 17.223 27.5765 17.2356 25.6272C17.2377 25.3102 17.1632 25.1941 16.8231 25.1974C15.045 25.2132 13.2667 25.2126 11.4886 25.1974C11.1491 25.1947 11.0354 25.2809 11.0387 25.6374C11.0554 27.5603 11.0465 29.4836 11.0465 31.4066V31.9343C10.4352 31.9343 9.86077 31.9424 9.28694 31.9316C8.88402 31.9241 8.3527 32.0352 8.11831 31.8253C7.91506 31.6433 8.0354 31.0854 8.0351 30.6932C8.0321 26.7156 8.02881 22.7377 8.04079 18.7598C8.04198 18.4006 8.08778 18.0156 8.22308 17.6884C8.4413 17.1616 8.90857 16.8931 9.47283 16.8587C9.97033 16.8287 10.4711 16.8524 11.0459 16.8524V17.319C11.0462 18.913 11.0479 20.5067 11.0444 22.1004C11.0441 22.3177 11.0503 22.4821 11.3473 22.4806C13.2307 22.4713 15.1142 22.4749 16.9976 22.4725C17.0599 22.4725 17.1221 22.4524 17.2191 22.436V16.8748ZM30.7681 26.6656C30.449 28.0333 29.5606 28.8948 28.1824 29.1019C27.1135 29.2627 26.0179 29.2474 24.8882 29.3133V19.5282C24.9238 19.4985 24.9442 19.4668 24.9639 19.4671C26.041 19.4842 27.1285 19.418 28.1923 19.5455C29.4944 19.7015 30.3027 20.5576 30.6729 21.7924C31.1564 23.4025 31.1471 25.0384 30.7681 26.6656ZM33.9558 22.0618C33.4775 18.9935 31.4614 17.1104 28.3674 16.9251C26.8183 16.8326 25.2618 16.8602 23.7088 16.8459C22.4854 16.835 21.8846 17.4346 21.884 18.652C21.8819 22.9191 21.8831 27.1862 21.8828 31.4533V31.9735C24.0878 31.9322 26.223 31.96 28.3492 31.8346C31.0064 31.6775 32.9569 30.0449 33.7208 27.4966C34.2572 25.7068 34.2405 23.8874 33.9558 22.0618Z" fill="#B02B24"/>
<path fill-rule="evenodd" clip-rule="evenodd" d="M83.3883 31.4558C83.4652 31.589 83.5359 31.7258 83.6487 31.9329C83.13 31.9329 82.6759 31.9332 82.2221 31.9329C81.6159 31.9329 81.0094 31.9213 80.4036 31.938C80.1569 31.9449 80.0264 31.8545 79.9142 31.6402C79.3209 30.5093 78.7216 29.3814 78.1062 28.2627C77.9044 27.8955 77.664 27.5461 77.4087 27.2136C77.2548 27.0124 77.0381 26.8759 76.7504 27.0022C76.467 27.127 76.3224 27.3225 76.3236 27.6428C76.3302 28.9078 76.326 30.1731 76.3257 31.4381V31.9332C75.8464 31.9332 75.4052 31.9332 74.9637 31.9329C74.5159 31.9326 74.0666 31.9485 73.6205 31.9189C73.5215 31.9126 73.4065 31.7611 73.3476 31.6504C73.3038 31.5683 73.3374 31.4441 73.3374 31.3388C73.3371 26.6738 73.3371 22.0089 73.3371 17.3437V16.8109C74.0375 16.8561 74.7125 16.8292 75.3543 16.9615C75.9856 17.0911 76.3227 17.7236 76.3245 18.5118C76.3284 20.2907 76.3254 22.07 76.3254 23.8487V24.26C76.3577 24.2699 76.39 24.2794 76.4224 24.289C76.8193 23.7891 77.2177 23.2898 77.6131 22.7887C78.3477 21.8581 79.0871 20.9307 79.81 19.9911C79.9707 19.7822 80.1366 19.6936 80.4033 19.6974C81.4408 19.7124 82.4786 19.7034 83.6224 19.7034C82.5909 20.9726 81.6279 22.1571 80.6652 23.3413C80.3578 23.7194 80.062 24.1082 79.7375 24.4713C79.5564 24.674 79.5576 24.8278 79.6926 25.0598C80.9322 27.1875 82.1589 29.3224 83.3883 31.4558ZM71.7572 29.4787C71.7655 30.2785 71.7584 31.0789 71.7584 31.9204C71.1256 31.9204 70.5592 31.9431 69.9952 31.9141C69.3732 31.8821 68.8817 31.4232 68.7724 30.8125C68.7335 30.5937 68.7189 30.368 68.7183 30.1456C68.7144 28.1963 68.7072 26.2473 68.7201 24.2983C68.7255 23.4886 68.5144 22.8133 67.7403 22.4253C66.9234 22.0161 66.117 22.0377 65.3342 22.5145C64.8625 22.8019 64.6155 23.2377 64.5655 23.781C64.5389 24.069 64.5314 24.3597 64.5311 24.6488C64.5284 26.743 64.5296 28.8369 64.5296 30.9308C64.5293 31.9332 64.5293 31.9332 63.508 31.9332C62.8395 31.9329 62.1705 31.9332 61.4928 31.9332C61.4731 31.8159 61.4485 31.7402 61.4488 31.6644C61.4608 29.1494 61.4647 26.6346 61.4979 24.1199C61.5042 23.6652 61.6039 23.2054 61.7098 22.7597C62.0283 21.4246 62.9745 20.6907 64.1908 20.2201C66.1239 19.472 67.9945 19.5966 69.8261 20.5634C71.0705 21.2202 71.5916 22.3409 71.6614 23.6365C71.7661 25.5801 71.7359 27.5309 71.7572 29.4787ZM56.7339 27.9817C56.4421 28.9791 55.6288 29.455 54.6266 29.5562C54.2168 29.5975 53.7803 29.5649 53.3807 29.4658C52.8398 29.3317 52.5758 28.9069 52.5291 28.3582C52.4821 27.8059 52.5899 27.3052 53.0874 26.9768C53.2607 26.8624 53.4555 26.7625 53.6546 26.7089C54.7274 26.4212 55.8048 26.15 56.9928 25.8444C56.9129 26.5727 56.9306 27.3087 56.7339 27.9817ZM57.7346 20.1632C56.0894 19.6029 54.3937 19.5286 52.7147 19.9639C51.2162 20.3524 50.1996 21.2845 49.8755 22.9435C50.7821 22.9435 51.6236 22.9369 52.4641 22.9474C52.7413 22.951 52.9368 22.8866 53.1445 22.6657C53.3469 22.4505 53.6573 22.2909 53.9483 22.2128C54.7041 22.0107 55.4638 22.094 56.2056 22.3262C56.5714 22.4412 56.8267 22.6618 56.8665 23.0731C56.9081 23.5032 56.6944 23.8038 56.3259 23.9436C55.8628 24.1193 55.3776 24.2468 54.8924 24.3507C53.9423 24.5536 52.964 24.6524 52.0376 24.9284C50.7399 25.3148 49.7491 26.0755 49.6004 27.5626C49.3735 29.8262 50.1149 31.0885 52.1055 31.7081C52.5025 31.8318 52.929 31.8985 53.3448 31.9159C54.7101 31.9725 56.0577 31.8949 57.2826 31.1107C57.8537 32.3391 58.9227 31.9045 59.8668 31.9973C59.8758 31.8222 59.8875 31.7057 59.8875 31.5896C59.8881 28.7968 59.8913 26.0039 59.8863 23.2108C59.8836 21.6671 59.2002 20.6628 57.7346 20.1632ZM42.8829 29.2158C41.4957 29.3092 40.0972 29.2359 38.6559 29.2359V25.2975C38.7691 25.2849 38.8804 25.2613 38.9924 25.2613C40.2164 25.2634 41.4407 25.2634 42.665 25.278C42.9389 25.2816 43.2172 25.3172 43.4855 25.3756C44.3074 25.5555 44.7726 26.115 44.8268 26.9582C44.9193 28.3947 44.3676 29.1162 42.8829 29.2158ZM38.6499 19.6561C38.6511 19.5828 38.8113 19.4493 38.8966 19.4499C40.2774 19.4595 41.6604 19.449 43.0382 19.522C43.9339 19.5696 44.3841 20.1177 44.4137 20.9975C44.4427 21.8641 44.0087 22.4289 43.1592 22.6058C42.9164 22.6564 42.665 22.6878 42.4171 22.6896C41.1811 22.698 39.9452 22.6935 38.6388 22.6935C38.6388 21.6488 38.6332 20.6523 38.6499 19.6561ZM46.4013 24.1923C46.1921 24.0609 45.9757 23.9409 45.6796 23.7673C47.1479 22.9956 47.6074 21.7653 47.4852 20.2674C47.3724 18.882 46.7156 17.8574 45.4012 17.3057C44.5466 16.9465 43.6447 16.857 42.7329 16.8516C40.9803 16.8408 39.2282 16.8443 37.4756 16.8471C36.3315 16.8489 35.7245 17.4584 35.7242 18.6084C35.7221 22.9037 35.7229 27.1992 35.7242 31.4944C35.7242 31.633 35.7382 31.7713 35.746 31.912C35.8873 31.9213 35.9789 31.932 36.0705 31.932C38.297 31.9311 40.5241 31.9338 42.7506 31.9234C43.1577 31.9216 43.5681 31.8928 43.9698 31.8321C45.1414 31.654 46.222 31.2702 47.0132 30.3261C47.9465 29.2131 48.0839 27.8958 47.9235 26.523C47.8049 25.5043 47.2664 24.735 46.4013 24.1923Z" fill="#4E4949"/>
<path fill-rule="evenodd" clip-rule="evenodd" d="M87.8625 6.88385C87.0926 7.29188 83.5708 9.95809 83.719 12.3783C83.8668 14.798 90.9913 13.2114 90.9913 13.2114C90.9913 13.2114 88.4068 12.9334 88.5762 7.16154C88.5762 7.16154 88.7191 6.82098 88.2738 6.82098C88.1708 6.82098 88.0368 6.83915 87.8625 6.88385Z" fill="url(#paint0_linear_485_17)"/>
<path fill-rule="evenodd" clip-rule="evenodd" d="M105.706 11.4063C96.4668 14.798 87.6083 15.076 87.6083 15.076C87.6083 15.076 88.7363 23.235 93.359 24.1341C99.9552 24.1341 105.579 12.6959 105.896 11.9816C105.969 11.8169 105.998 11.6978 106 11.6116V11.5958C105.997 11.4268 105.881 11.3956 105.796 11.3956C105.745 11.3956 105.706 11.4063 105.706 11.4063Z" fill="url(#paint1_linear_485_17)"/>
<defs>
<linearGradient id="paint0_linear_485_17" x1="90.9913" y1="15.6367" x2="88.5403" y2="10.1711" gradientUnits="userSpaceOnUse">
<stop stop-color="#E16C0B"/>
<stop offset="1" stop-color="#ECD503"/>
</linearGradient>
<linearGradient id="paint1_linear_485_17" x1="78.9771" y1="15.2761" x2="96.324" y2="19.3294" gradientUnits="userSpaceOnUse">
<stop stop-color="#E16C0B"/>
<stop offset="1" stop-color="#ECD503"/>
</linearGradient>
</defs>
</svg>
