<svg width="53" height="53" viewBox="0 0 53 53" fill="none" xmlns="http://www.w3.org/2000/svg">
<g clip-path="url(#clip0)">
<path d="M41.0932 33.0365C41.293 30.6375 40.9245 28.2338 39.8534 26.0734C37.0865 20.4918 37.7212 20.0867 37.6352 14.5472C37.6352 13.4153 36.71 12.4982 35.5689 12.4982C34.4275 12.4982 33.5026 13.4153 33.5026 14.5472C33.5026 15.278 33.5026 35.2282 33.5026 35.1502C33.5026 35.4696 33.4682 35.7815 33.4047 36.0823V39.0318C33.4047 41.5172 31.3656 43.5397 28.8592 43.5397C27.1946 43.5397 21.4541 43.5397 17.5481 43.5397C19.2855 45.936 21.6627 47.8126 24.4217 48.9489C24.4388 48.9556 24.456 48.9627 24.4732 48.9699C26.1331 49.6654 27.4004 50.9769 28.0679 52.567C33.4431 52.2139 38.3554 50.1819 42.2746 46.993L40.7347 41.3829C40.5149 40.5811 40.4373 39.7476 40.5057 38.9197L41.0932 33.0365Z" fill="#F9CFA9"/>
<path d="M9.87327 12.5699L9.24378 11.9916C8.27378 11.0999 6.74423 11.1578 5.84537 12.1201C4.9465 13.082 5.00486 14.5987 5.97486 15.4901L9.87327 19.0721V12.5699Z" fill="#F9CFA9"/>
<path d="M30.5422 0.675537H12.8707C11.1561 0.675537 9.76123 2.05913 9.76123 3.7594V40.6893C9.76123 42.3895 11.1561 43.7731 12.8707 43.7731H30.5422C32.2568 43.7731 33.652 42.3895 33.652 40.6893V3.7594C33.652 2.05913 32.2568 0.675537 30.5422 0.675537V0.675537Z" fill="#AE2070"/>
<path d="M15.7486 2.96238C15.5804 2.71427 15.4821 2.41583 15.4821 2.09441C15.4821 1.46345 15.8609 0.921263 16.4045 0.675537H12.8706C11.1532 0.675537 9.76074 2.05636 9.76074 3.7594V40.6893C9.76074 42.3923 11.1532 43.7727 12.8706 43.7727H16.6275V5.66497C16.6275 4.69514 16.2946 3.76733 15.7486 2.96238Z" fill="#AE2070"/>
<path d="M11.5613 20.1536V40.6891C11.5613 41.4065 12.1476 41.9879 12.8706 41.9879H30.5421C31.2651 41.9879 31.8515 41.4065 31.8515 40.6891C31.8515 39.9844 31.8515 29.6972 31.8515 20.1536H11.5613Z" fill="#E6F7FE"/>
<path d="M11.5613 20.1536V40.6891C11.5613 41.4065 12.1476 41.9879 12.8706 41.9879H15.9681V20.1536H11.5613Z" fill="#D5F1FE"/>
<path d="M18.6792 26.3483C18.6792 27.4719 17.7608 28.3827 16.6277 28.3827C15.4946 28.3827 14.5762 27.4719 14.5762 26.3483C14.5762 25.2247 15.4946 24.3135 16.6277 24.3135C17.7608 24.3135 18.6792 25.2247 18.6792 26.3483Z" fill="#3D4EC6"/>
<path d="M18.6792 33.892C18.6792 35.0156 17.7608 35.9268 16.6277 35.9268C15.4946 35.9268 14.5762 35.0156 14.5762 33.892C14.5762 32.7684 15.4946 31.8577 16.6277 31.8577C17.7608 31.8577 18.6792 32.7684 18.6792 33.892Z" fill="#3D4EC6"/>
<path d="M16.3959 24.3275C15.3719 24.442 14.5762 25.3024 14.5762 26.3484C14.5762 27.472 15.4946 28.3827 16.6277 28.3827C17.3343 28.3827 17.957 28.0284 18.3259 27.4894C16.5569 27.6872 15.4307 25.7372 16.3959 24.3275Z" fill="#2B3894"/>
<path d="M16.3959 31.8716C15.3719 31.9857 14.5762 32.8466 14.5762 33.8921C14.5762 35.0161 15.4946 35.9269 16.6277 35.9269C17.3343 35.9269 17.957 35.5725 18.3259 35.0335C16.5677 35.2297 15.4243 33.2905 16.3959 31.8716Z" fill="#2B3894"/>
<path d="M25.0115 25.5026H22.0987C21.675 25.5026 21.3313 25.1618 21.3313 24.7417C21.3313 24.3212 21.675 23.9807 22.0987 23.9807H25.0115C25.4351 23.9807 25.7789 24.3212 25.7789 24.7417C25.7789 25.1618 25.4351 25.5026 25.0115 25.5026Z" fill="#11DFEF"/>
<path d="M27.9243 28.7161H22.0987C21.6746 28.7161 21.3313 28.3753 21.3313 27.9552C21.3313 27.5347 21.6746 27.1942 22.0987 27.1942H27.9243C28.348 27.1942 28.6917 27.5347 28.6917 27.9552C28.6917 28.3753 28.348 28.7161 27.9243 28.7161Z" fill="#11DFEF"/>
<path d="M25.0115 33.0464H22.0987C21.675 33.0464 21.3313 32.7059 21.3313 32.2854C21.3313 31.8649 21.675 31.5245 22.0987 31.5245H25.0115C25.4351 31.5245 25.7789 31.8649 25.7789 32.2854C25.7789 32.7059 25.4351 33.0464 25.0115 33.0464Z" fill="#11DFEF"/>
<path d="M27.9243 36.2599H22.0987C21.6746 36.2599 21.3313 35.9194 21.3313 35.4989C21.3313 35.0788 21.6746 34.738 22.0987 34.738H27.9243C28.348 34.738 28.6917 35.0788 28.6917 35.4989C28.6917 35.9194 28.348 36.2599 27.9243 36.2599Z" fill="#11DFEF"/>
<path d="M30.5319 2.46112H27.9056C27.6578 2.46112 27.4572 2.66008 27.4572 2.90541C27.4572 3.49476 26.9712 3.9767 26.3773 3.9767H17.0157C16.4214 3.9767 15.9354 3.49476 15.9354 2.90541C15.9354 2.66008 15.7348 2.46112 15.487 2.46112H12.8608C12.1373 2.46112 11.551 3.04254 11.551 3.75951V20.3567H31.8416V3.75951C31.8416 3.04254 31.2553 2.46112 30.5319 2.46112Z" fill="#F948B4"/>
<path d="M15.9682 3.16223C15.9474 3.0798 15.9354 2.99419 15.9354 2.90581C15.9354 2.66008 15.7348 2.46112 15.487 2.46112H12.8608C12.1373 2.46112 11.551 3.04254 11.551 3.75951V20.3567H15.9682V3.16223Z" fill="#E00E8B"/>
<path d="M30.5316 2.46112H27.9053C27.6575 2.46112 27.4569 2.66008 27.4569 2.90541C27.4569 3.49476 26.9709 3.9767 26.377 3.9767H21.2136L31.8413 17.1872V3.75951C31.8413 3.04254 31.255 2.46112 30.5316 2.46112Z" fill="#FC7ACD"/>
<path d="M18.3971 8.50886H14.8584C14.4348 8.50886 14.0911 8.16841 14.0911 7.7479C14.0911 7.32739 14.4348 6.98694 14.8584 6.98694H18.3971C18.8208 6.98694 19.1645 7.32739 19.1645 7.7479C19.1645 8.16801 18.8208 8.50886 18.3971 8.50886Z" fill="#FC7ACD"/>
<path d="M13.3729 25.147C12.582 25.9931 11.2487 26.0439 10.395 25.2595L6.86547 22.0163C6.01176 21.232 5.96101 19.9098 6.75196 19.0633C7.54291 18.2167 8.87622 18.1664 9.72992 18.9507L13.2594 22.1939C14.1127 22.9782 14.1639 24.3004 13.3729 25.147Z" fill="#F9CFA9"/>
<path d="M13.2596 22.1938L11.5806 20.6513C11.8016 21.4452 11.6182 22.3298 11.0127 22.9778C10.4068 23.6262 9.53108 23.8747 8.71655 23.7169L10.3952 25.2595C11.2489 26.0438 12.5818 25.9931 13.3731 25.1469C14.1641 24.3003 14.1129 22.9782 13.2596 22.1938Z" fill="#FBBC8D"/>
<path d="M13.3729 30.8464C12.582 31.693 11.2487 31.7433 10.395 30.959L6.86547 27.7158C6.01176 26.9314 5.96101 25.6093 6.75196 24.7631C7.54291 23.9165 8.87622 23.8662 9.72992 24.6505L13.2594 27.8937C14.1127 28.6781 14.1639 29.9998 13.3729 30.8464Z" fill="#F9CFA9"/>
<path d="M13.3729 36.5459C12.582 37.3925 11.2487 37.4428 10.395 36.6585L6.86547 33.4153C6.01176 32.631 5.96101 31.3088 6.75196 30.4622C7.54291 29.6157 8.87622 29.5653 9.72992 30.3497L13.2594 33.5929C14.1127 34.3772 14.1639 35.6994 13.3729 36.5459Z" fill="#F9CFA9"/>
<path d="M40.7346 41.3823C40.6255 40.9836 40.5515 40.5773 40.5128 40.1675C36.608 46.5247 29.027 49.477 21.906 47.6412C22.7002 48.1473 23.5415 48.5856 24.4215 48.9483C24.4387 48.9554 24.4559 48.9626 24.4731 48.9697C26.1329 49.6649 27.4003 50.9763 28.0678 52.5668C33.443 52.2137 38.3553 50.1813 42.2745 46.9924L40.7346 41.3823Z" fill="#FBBC8D"/>
<path d="M13.2596 27.8935L11.5806 26.351C11.8016 27.1445 11.6182 28.0291 11.0127 28.6775C10.4068 29.3259 9.53108 29.5744 8.71655 29.4167L10.3952 30.9588C11.2489 31.7431 12.5822 31.6928 13.3731 30.8462C14.1641 29.9997 14.1129 28.6779 13.2596 27.8935Z" fill="#FBBC8D"/>
<path d="M13.2596 33.5929L11.5806 32.0504C11.8016 32.8442 11.6182 33.7288 11.0127 34.3768C10.4068 35.0252 9.53108 35.2741 8.71655 35.116L10.3952 36.6585C11.2489 37.4429 12.5822 37.3925 13.3731 36.546C14.1641 35.6994 14.1129 34.3772 13.2596 33.5929Z" fill="#FBBC8D"/>
</g>
<defs>
<clipPath id="clip0">
<rect width="52.3859" height="51.9481" fill="white" transform="translate(0.193115 0.675537)"/>
</clipPath>
</defs>
</svg>
