<svg width="37" height="48" viewBox="0 0 37 48" fill="none" xmlns="http://www.w3.org/2000/svg">
<path d="M0.773926 6.16882H26.9669V42.5325H0.773926V6.16882Z" fill="#AB2071"/>
<path d="M4.70264 42.5325H26.9666V20.4546C26.9684 23.3544 26.3937 26.2261 25.2755 28.9055C24.1573 31.5849 22.5174 34.0195 20.4496 36.07C18.3819 38.1205 15.9268 39.7466 13.2248 40.8555C10.5228 41.9644 7.62689 42.5343 4.70264 42.5325Z" fill="#780046"/>
<path d="M22.0557 0.973877H5.6851C4.38258 0.973877 3.1334 1.52119 2.21237 2.4954C1.29135 3.46962 0.773926 4.79094 0.773926 6.16869H26.9669C26.9669 4.79094 26.4494 3.46962 25.5284 2.4954C24.6074 1.52119 23.3582 0.973877 22.0557 0.973877Z" fill="#F948B4"/>
<path d="M0.773926 42.5326C0.773926 43.9103 1.29135 45.2317 2.21237 46.2059C3.1334 47.1801 4.38258 47.7274 5.6851 47.7274H22.0557C23.3582 47.7274 24.6074 47.1801 25.5284 46.2059C26.4494 45.2317 26.9669 43.9103 26.9669 42.5326H0.773926Z" fill="#F948B4"/>
<path d="M11.251 2.27283H12.5606V3.57153H11.251V2.27283Z" fill="#F1F2F2"/>
<path d="M15.1799 2.27283H16.4896V3.57153H15.1799V2.27283Z" fill="#F1F2F2"/>
<path d="M11.251 43.8312H16.4896V45.7792H11.251V43.8312Z" fill="#F1F2F2"/>
<path d="M10.7656 16.9671H32.9336V28.4819H36.1005V13.8267H10.7656V16.9671Z" fill="#8ACDE9"/>
<path d="M10.7655 16.9671H7.59863V20.1075H29.7667V31.6223H32.9335V28.4819V16.9671H10.7655Z" fill="#B9E5F7"/>
<path d="M4.43164 20.1075H29.7665V34.7627H4.43164V20.1075Z" fill="#E6F7FE"/>
<path d="M25.5443 26.3881H24.4887C24.2088 26.3881 23.9403 26.4984 23.7423 26.6947C23.5443 26.891 23.4331 27.1573 23.4331 27.4349C23.4331 27.7125 23.5443 27.9788 23.7423 28.1751C23.9403 28.3714 24.2088 28.4817 24.4887 28.4817H25.5443C25.8243 28.4817 26.0928 28.3714 26.2908 28.1751C26.4887 27.9788 26.6 27.7125 26.6 27.4349C26.6 27.1573 26.4887 26.891 26.2908 26.6947C26.0928 26.4984 25.8243 26.3881 25.5443 26.3881Z" fill="#B6E2F3"/>
<path d="M9.70987 26.3881H8.65425C8.37429 26.3881 8.10578 26.4984 7.90782 26.6947C7.70985 26.891 7.59863 27.1573 7.59863 27.4349C7.59863 27.7125 7.70985 27.9788 7.90782 28.1751C8.10578 28.3714 8.37429 28.4817 8.65425 28.4817H9.70987C9.98984 28.4817 10.2583 28.3714 10.4563 28.1751C10.6543 27.9788 10.7655 27.7125 10.7655 27.4349C10.7655 27.1573 10.6543 26.891 10.4563 26.6947C10.2583 26.4984 9.98984 26.3881 9.70987 26.3881Z" fill="#B6E2F3"/>
</svg>
