<svg width="58" height="42" viewBox="0 0 58 42" fill="none" xmlns="http://www.w3.org/2000/svg">
<path d="M29.8863 17.5821C30.2516 17.2199 30.2516 16.6327 29.8866 16.2703L29.8041 16.1885C28.754 15.1472 27.3009 14.5832 25.8164 14.6419L24.6343 14.6885L22.4049 12.4779C22.2296 12.304 21.9916 12.2062 21.7435 12.2062C21.4954 12.2062 21.2575 12.304 21.0821 12.4779L12.5419 20.9467C12.3664 21.1207 12.2679 21.3566 12.2679 21.6027C12.2679 21.8487 12.3665 22.0847 12.5419 22.2588L14.8266 24.5244L15.0096 26.2488C15.178 27.8356 15.8974 29.3309 17.0351 30.459L18.6315 32.0421C18.807 32.2162 19.0449 32.3139 19.293 32.3139C19.5411 32.3139 19.7791 32.2162 19.9544 32.0422L25.8791 26.1671C26.2444 25.8048 26.2445 25.2175 25.8792 24.8553C25.5139 24.4929 24.9218 24.4931 24.5564 24.8551C24.2801 25.129 23.8305 25.1293 23.5543 24.855C23.278 24.5811 23.278 24.1353 23.5543 23.8614L29.8863 17.5821Z" fill="#F7B081"/>
<path d="M29.8869 17.5823C30.2521 17.2201 30.2521 16.6329 29.8871 16.2705L29.8047 16.1887C29.3727 15.7604 28.8719 15.4144 28.3294 15.1577C28.2709 15.1462 28.2189 15.1322 28.1766 15.1144L21.44 21.7947C20.7316 22.4973 20.7316 23.6363 21.44 24.3388C21.5396 24.4375 22.1152 24.9438 22.7967 25.5263C22.7554 25.5787 22.7298 25.6088 22.7275 25.6062L17.4679 30.8218L17.4813 30.901L18.632 32.0421C18.8075 32.2161 19.0455 32.3139 19.2936 32.3139C19.5416 32.3139 19.7796 32.2161 19.955 32.0422L25.8797 26.1671C26.2449 25.8047 26.245 25.2175 25.8798 24.8552C25.5144 24.4929 24.9223 24.493 24.5569 24.8551C24.2806 25.129 23.831 25.1293 23.5548 24.855C23.2785 24.5811 23.2785 24.1353 23.5548 23.8614L29.8869 17.5823Z" fill="#DD9A76"/>
<path d="M45.9671 20.8876C45.6017 20.5255 37.4269 12.4189 37.4269 12.4189C37.2514 12.2448 37.0135 12.1471 36.7653 12.1471C36.5171 12.1471 36.2793 12.2448 36.1038 12.4187L33.8744 14.6295L32.6924 14.5829C31.2073 14.5243 29.7549 15.0882 28.7047 16.1295L22.2306 22.5494C21.7435 23.0325 21.4751 23.6749 21.4751 24.3582C21.4751 25.0415 21.7435 25.6839 22.2306 26.167C22.4027 26.3376 22.5955 26.4794 22.8023 26.5938L17.2418 32.1077C16.1975 33.1434 16.1975 34.8285 17.2418 35.8642L17.2602 35.8824C17.5163 36.1362 17.8115 36.3278 18.1269 36.4571C18.002 36.7672 17.9368 37.1015 17.9368 37.4461C17.9368 38.157 18.2146 38.8241 18.7191 39.3244L18.7375 39.3426C19.6701 40.2675 21.1255 40.3664 22.1699 39.6389C22.2971 39.8914 22.4657 40.1244 22.6724 40.3294L22.6907 40.3476C23.7351 41.3831 25.4344 41.3829 26.4787 40.3476L26.8321 39.9972C26.9569 40.2354 27.1189 40.4554 27.3155 40.6504L27.3339 40.6686C27.8561 41.1864 28.5419 41.4452 29.2279 41.4452C29.9138 41.4452 30.5997 41.1862 31.1218 40.6686L41.4736 30.4C42.6113 29.2718 43.3306 27.7764 43.4991 26.1896L43.6821 24.4651L45.9669 22.1995C46.3324 21.8372 46.3324 21.2499 45.9671 20.8876Z" fill="#FFC89F"/>
<path d="M34.6065 30.8734L24.3821 41.1144C25.0886 41.167 25.8105 40.9427 26.3713 40.4435L34.6066 32.1855C34.9718 31.823 34.9718 31.2357 34.6065 30.8734Z" fill="#F7B081"/>
<path d="M31.7383 28.7673L20.4135 40.1105C21.0242 40.1597 21.6488 40.0025 22.1707 39.6389C22.1744 39.6465 22.179 39.6535 22.1829 39.661L31.7383 30.0793C32.1035 29.7169 32.1035 29.1297 31.7383 28.7673Z" fill="#F7B081"/>
<path d="M28.048 38.1158C27.2997 37.3738 27.2997 36.1709 28.048 35.4289C28.7933 34.6898 29.9997 34.6874 30.7485 35.4209L30.4312 35.1062C29.683 34.3642 29.683 33.1613 30.4312 32.4193C31.1795 31.6773 32.3926 31.6773 33.1408 32.4193L33.4113 32.6875L33.414 32.6845C32.6892 31.9409 32.6957 30.7561 33.4361 30.0219C34.1844 29.2799 35.3974 29.2799 36.1457 30.0219L37.4908 31.3556L37.4957 31.3506C36.8368 30.6043 36.8642 29.4699 37.5817 28.7582C38.33 28.0162 39.543 28.0162 40.2912 28.7582L38.8735 27.3524C38.1252 26.6104 36.9122 26.6104 36.164 27.3524C35.4464 28.064 35.419 29.1985 36.078 29.9448L36.0731 29.9498L34.7281 28.616C33.9799 27.874 32.7668 27.874 32.0186 28.616C31.2782 29.3502 31.2717 30.5349 31.9964 31.2787L31.9937 31.2816L31.7233 31.0135C30.975 30.2715 29.7619 30.2715 29.0137 31.0135C28.2654 31.7555 28.2654 32.9584 29.0137 33.7003L29.331 34.0149C28.5821 33.2814 27.3758 33.2838 26.6304 34.023C25.8822 34.7649 25.8822 35.9679 26.6304 36.7098L28.048 38.1158Z" fill="#DD9A76"/>
<path d="M34.3993 37.1436L31.7443 34.5106C31.2491 34.0197 30.5909 33.7493 29.8908 33.7493C29.1906 33.7493 28.5324 34.0197 28.0374 34.5106C27.5423 35.0015 27.2697 35.6542 27.2697 36.3485C27.2697 37.0429 27.5423 37.6956 28.0374 38.1865L30.6925 40.8194C31.2035 41.3261 31.8746 41.5794 32.5459 41.5794C33.2171 41.5794 33.8882 41.326 34.3993 40.8194C34.8943 40.3284 35.167 39.6757 35.167 38.9814C35.167 38.2871 34.8943 37.6343 34.3993 37.1436Z" fill="#FFC89F"/>
<path d="M27.805 34.7789C27.4593 35.2287 27.2697 35.7739 27.2697 36.349C27.2697 37.0435 27.5423 37.6961 28.0374 38.187L30.6925 40.82C31.2035 41.3266 31.8746 41.5799 32.5459 41.5799C33.1005 41.5799 33.6538 41.404 34.118 41.058L27.805 34.7789Z" fill="#F7B081"/>
<path d="M37.421 35.4138L33.8409 31.8637C33.3458 31.3727 32.6876 31.1023 31.9873 31.1023C31.2872 31.1023 30.629 31.3727 30.1341 31.8636C29.6389 32.3545 29.3662 33.0072 29.3662 33.7015C29.3662 34.396 29.6389 35.0486 30.1339 35.5395L33.7141 39.0897C34.2252 39.5965 34.8961 39.8497 35.5675 39.8497C36.2386 39.8497 36.9098 39.5963 37.4208 39.0897C37.4208 39.0897 37.4208 39.0897 37.421 39.0897C38.4429 38.0762 38.4429 36.4273 37.421 35.4138Z" fill="#FFC89F"/>
<path d="M29.8927 32.145C29.5537 32.5921 29.3676 33.1319 29.3676 33.7012C29.3676 34.3957 29.6402 35.0484 30.1353 35.5393L33.7154 39.0895C34.2266 39.5962 34.8975 39.8494 35.5688 39.8494C36.1305 39.8494 36.6912 39.6693 37.1591 39.3143L29.8927 32.145Z" fill="#F7B081"/>
<path d="M39.7038 32.9446L36.4858 29.7536C35.4639 28.7406 33.8011 28.7402 32.7789 29.7537C31.7571 30.7671 31.7571 32.4161 32.779 33.4297L35.9968 36.6205C36.5079 37.1273 37.179 37.3805 37.8503 37.3805C38.5216 37.3805 39.1926 37.1271 39.7038 36.6205C40.7257 35.607 40.7257 33.9581 39.7038 32.9446Z" fill="#FFC89F"/>
<path d="M39.423 36.8583L32.5186 30.0597C31.7689 31.0758 31.8535 32.5125 32.7786 33.4299L35.9964 36.6207C36.5075 37.1275 37.1786 37.3807 37.8499 37.3807C38.4049 37.3808 38.9584 37.2048 39.423 36.8583Z" fill="#F7B081"/>
<path d="M41.8819 30.3767L40.1328 28.6422C39.6377 28.1513 38.9795 27.8809 38.2793 27.8809C37.5792 27.8809 36.921 28.1513 36.4261 28.6422C35.9309 29.1332 35.6582 29.7858 35.6582 30.4801C35.6582 31.1746 35.9309 31.8273 36.4259 32.3182L38.175 34.0525C38.6701 34.5435 39.3283 34.814 40.0284 34.814C40.7286 34.814 41.3868 34.5435 41.8819 34.0526C42.9039 33.039 42.9039 31.3901 41.8819 30.3767Z" fill="#FFC89F"/>
<path d="M40.0283 34.8138C40.5919 34.8138 41.1267 34.6359 41.5729 34.3115C40.2899 33.06 37.648 30.483 36.127 28.9988C35.8233 29.4308 35.6582 29.9424 35.6582 30.48C35.6582 31.1744 35.9309 31.8271 36.4259 32.318L38.175 34.0524C38.6699 34.5434 39.3281 34.8138 40.0283 34.8138Z" fill="#F7B081"/>
<path d="M23.253 11.6367L19.5897 8.00417C19.2244 7.64208 18.6321 7.64208 18.2668 8.00417L8.18581 18.001C8.0103 18.175 7.91187 18.4108 7.91187 18.657C7.91187 18.903 8.01042 19.139 8.18581 19.313L11.8491 22.9457C12.0245 23.1196 12.2625 23.2174 12.5105 23.2174C12.7586 23.2174 12.9966 23.1196 13.172 22.9457L23.253 12.9488C23.4285 12.7748 23.527 12.5388 23.527 12.2928C23.527 12.0468 23.4285 11.8108 23.253 11.6367Z" fill="#EFE7E4"/>
<path d="M9.4331 16.7641L8.18581 18.001C8.0103 18.175 7.91187 18.4109 7.91187 18.657C7.91187 18.903 8.01042 19.139 8.18581 19.313L11.8491 22.9457C12.0245 23.1196 12.2625 23.2174 12.5105 23.2174C12.7586 23.2174 12.9966 23.1196 13.172 22.9457L14.4193 21.7089L9.4331 16.7641Z" fill="#D8D1D0"/>
<path d="M50.3236 17.9417L40.2425 7.9449C39.8773 7.58294 39.2849 7.5827 38.9197 7.9449L35.2564 11.5775C35.0809 11.7515 34.9823 11.9874 34.9823 12.2335C34.9823 12.4795 35.0809 12.7155 35.2562 12.8895L45.3373 22.8864C45.5128 23.0604 45.7507 23.1581 45.9988 23.1581C46.2469 23.1581 46.4849 23.0604 46.6604 22.8864L50.3237 19.2537C50.6889 18.8913 50.6889 18.304 50.3236 17.9417Z" fill="#EFE7E4"/>
<path d="M45.3368 22.8865C45.5123 23.0604 45.7502 23.1581 45.9983 23.1581C46.2464 23.1581 46.4844 23.0604 46.6599 22.8865L50.3232 19.2538C50.6884 18.8914 50.6884 18.3042 50.3232 17.9418L49.0759 16.705L44.0896 21.6496L45.3368 22.8865Z" fill="#D8D1D0"/>
<path d="M20.5698 7.03236L14.5687 1.08128C14.3933 0.907367 14.1553 0.809631 13.9072 0.809631C13.6592 0.809631 13.4212 0.907367 13.2458 1.08128L1.20421 13.0223C0.83883 13.3846 0.83883 13.9719 1.20421 14.3342L7.20544 20.2853C7.38082 20.4592 7.61879 20.5569 7.86687 20.5569C8.11496 20.5569 8.35292 20.4592 8.52831 20.2853L20.5698 8.3443C20.9352 7.98197 20.9352 7.39469 20.5698 7.03236Z" fill="#AB2071"/>
<path d="M2.45151 11.7849L1.20421 13.0217C0.83883 13.384 0.83883 13.9713 1.20421 14.3337L7.20544 20.2847C7.38082 20.4587 7.61879 20.5564 7.86687 20.5564C8.11496 20.5564 8.35292 20.4587 8.52831 20.2847L9.7756 19.0479L2.45151 11.7849Z" fill="#D02B90"/>
<path d="M57.3046 12.9629L45.2631 1.0219C45.0876 0.84798 44.8496 0.750244 44.6015 0.750244C44.3534 0.750244 44.1155 0.84798 43.94 1.0219L37.9387 6.97298C37.5735 7.3353 37.5735 7.92258 37.9387 8.28491L49.9803 20.2259C50.1558 20.3998 50.3937 20.4975 50.6419 20.4975C50.89 20.4975 51.1279 20.3998 51.3035 20.2259L57.3046 14.2748C57.6698 13.9125 57.6698 13.3252 57.3046 12.9629Z" fill="#AB2071"/>
<path d="M57.3042 14.2746C57.6694 13.9122 57.6694 13.325 57.3042 12.9626L56.0569 11.7258L48.7327 18.9888L49.98 20.2257C50.1555 20.3996 50.3933 20.4973 50.6415 20.4973C50.8896 20.4973 51.1276 20.3996 51.3031 20.2257L57.3042 14.2746Z" fill="#D02B90"/>
<path d="M7.81221 15.1559C8.53551 15.1559 9.12185 14.5744 9.12185 13.8572C9.12185 13.1399 8.53551 12.5585 7.81221 12.5585C7.08891 12.5585 6.50256 13.1399 6.50256 13.8572C6.50256 14.5744 7.08891 15.1559 7.81221 15.1559Z" fill="#D8D1D0"/>
<path d="M51.0305 15.1559C51.7538 15.1559 52.3401 14.5744 52.3401 13.8572C52.3401 13.1399 51.7538 12.5585 51.0305 12.5585C50.3072 12.5585 49.7208 13.1399 49.7208 13.8572C49.7208 14.5744 50.3072 15.1559 51.0305 15.1559Z" fill="#D8D1D0"/>
<path d="M18.1174 36.4524C18.1208 36.4538 18.124 36.4556 18.1273 36.457C18.0023 36.7671 17.9371 37.1014 17.9371 37.446C17.9371 37.6047 17.9531 37.7608 17.9802 37.9137L28.4415 27.4237C28.8068 27.0614 28.8068 26.4741 28.4415 26.1118L18.1174 36.4524Z" fill="#F7B081"/>
</svg>
