<svg width="114" height="48" viewBox="0 0 114 48" fill="none" xmlns="http://www.w3.org/2000/svg">
<path fill-rule="evenodd" clip-rule="evenodd" d="M83.0549 16.0541C85.4324 16.4304 86.2983 17.5678 86.6718 18.1929C87.0307 18.7957 87.2698 19.4659 87.2126 20.3369C87.1456 21.3587 86.8148 22.197 85.7722 23.0217L85.5885 23.1672L85.7977 23.2727C86.5201 23.6372 86.9819 24.2163 87.2975 24.7838C87.6767 25.4692 87.869 26.2501 87.869 27.1048C87.869 28.8327 87.2497 30.1393 85.9912 31.0146C84.8756 31.7913 83.319 32.1521 80.2899 32.1521C78.2801 32.1521 76.3973 32.1063 74.9288 32.0258V16.0022C75.4399 15.9583 77.022 15.9236 79.2603 15.8677C80.6633 15.8327 82.0046 15.8879 83.0549 16.0541ZM59.8684 15.9931C60.0723 16.4128 61.0192 18.3702 61.9663 20.4519L62.1555 20.8695C62.6904 22.055 63.2094 23.2502 63.5774 24.1979L63.65 24.385H63.7753L63.8479 24.1979C64.9085 21.4663 67.2239 16.6786 67.5568 15.9931H71.273C71.4592 17.3355 71.6236 18.8479 71.7671 20.3954L71.8199 20.9771C71.8372 21.1714 71.8541 21.3659 71.8707 21.5605L71.9433 22.4353C72.3032 26.8981 72.4921 31.162 72.5282 32.0167H68.8286C68.8113 31.4801 68.7472 29.5233 68.6681 27.5108L68.6472 26.9855C68.5729 25.1487 68.4885 23.3644 68.4183 22.6714L68.3797 22.2886H68.2887L68.141 22.6263C67.9216 23.1276 67.6909 23.6622 67.4585 24.206L67.2839 24.6152C66.2656 27.008 65.2585 29.462 65.0543 29.9606H62.371C62.1901 29.519 61.3793 27.5433 60.4888 25.435L60.3156 25.0256L60.1413 24.6152L59.9668 24.206C59.7343 23.6622 59.5037 23.1276 59.2843 22.6263L59.1365 22.2886H59.0456L59.007 22.6714C58.9336 23.3974 58.8445 25.3211 58.7677 27.2482L58.7471 27.7729C58.6729 29.6908 58.6135 31.5034 58.5969 32.0167H54.897C54.9331 31.162 55.122 26.898 55.4819 22.4352L55.5299 21.8522C55.538 21.755 55.5462 21.6577 55.5545 21.5604L55.6054 20.977C55.7609 19.2286 55.9428 17.5032 56.1523 15.9931H59.8684ZM80.6074 25.0222C79.6439 25.0222 78.7136 25.1247 78.6801 25.1293L78.6894 28.8472C79.4938 28.8973 80.3628 28.9325 81.2361 28.9016C81.9136 28.8777 82.8114 28.8249 83.4483 28.1724C84.0179 27.5893 84.1207 26.7151 83.6959 25.9952C83.3016 25.3266 82.515 24.9994 80.6074 25.0222ZM80.4841 18.8971L80.0308 18.8971C79.6115 18.8998 79.0596 18.9148 78.6847 18.9838V22.127L78.822 22.1404C78.8232 22.1405 78.8427 22.1421 78.8781 22.1448L78.9694 22.1514C79.2286 22.1695 79.7987 22.2032 80.4303 22.2032C81.8204 22.2032 82.6268 22.0978 83.1157 21.6671C83.6078 21.2335 83.7337 20.5197 83.4285 19.9066C82.9469 18.9414 81.4434 18.8971 80.4841 18.8971Z" fill="#141ED2"/>
<path fill-rule="evenodd" clip-rule="evenodd" d="M40.6717 30.1471C41.0437 29.6343 41.7605 29.5205 42.2726 29.8929C42.5633 30.1044 42.7149 30.4265 42.7432 30.7603C42.7441 30.7711 43.1028 35.0835 43.1107 35.1793C43.1421 35.5259 43.0469 35.8842 42.8266 36.1879C42.3344 36.8663 41.3863 37.0168 40.7086 36.524C40.2428 36.1852 40.0516 35.6358 40.0962 35.0964C40.097 35.0872 40.3651 31.8442 40.4405 30.9366L40.4525 30.7916C40.4572 30.7352 40.4598 30.704 40.46 30.7031C40.4799 30.5087 40.5487 30.3166 40.6717 30.1471ZM34.0787 27.5467C34.459 26.7997 35.3723 26.503 36.1183 26.8839C36.4003 27.0279 36.6099 27.2511 36.759 27.5068C36.7644 27.516 39.2981 31.8209 39.3034 31.8303C39.4701 32.1281 39.499 32.496 39.3332 32.8216C39.0744 33.3298 38.4532 33.5316 37.9456 33.2725C37.8162 33.2064 37.7069 33.1165 37.6198 33.0111C37.6164 33.0072 36.8655 32.1562 36.0773 31.2628L35.8279 30.9802C35.0397 30.0868 34.2888 29.2358 34.2854 29.2319C33.8893 28.781 33.7894 28.1146 34.0787 27.5467ZM32.1829 28.9864C32.3739 28.9455 32.5775 28.952 32.7764 29.0169C33.3783 29.2134 33.7071 29.8611 33.5109 30.4637C33.3995 30.8057 33.1401 31.0494 32.8316 31.179C32.8216 31.1832 28.8343 32.8528 28.7457 32.8898C28.426 33.0264 28.0563 33.046 27.6999 32.9297C26.9037 32.6698 26.4687 31.8129 26.7283 31.0157C26.9068 30.4675 27.37 30.1163 27.8962 29.9927C27.9013 29.9915 28.9103 29.7546 29.9479 29.5109L30.3137 29.425C31.284 29.1972 32.178 28.9873 32.1829 28.9864ZM45.3652 24.8113C45.6995 24.7443 46.0579 24.8302 46.3162 25.0885C46.7193 25.4916 46.7196 26.1456 46.3169 26.5491C46.2142 26.6521 46.0951 26.7284 45.9681 26.7789C45.9582 26.7831 41.3596 28.7857 41.3497 28.79C40.7992 29.0283 40.1352 28.918 39.6848 28.4675C39.0923 27.8749 39.0918 26.9136 39.6837 26.3204C39.9074 26.0962 40.1841 25.9654 40.473 25.9021C40.4761 25.9014 40.9167 25.8032 41.5323 25.6659L41.8535 25.5943C42.1312 25.5323 42.4318 25.4653 42.7361 25.3975L43.1019 25.3159C43.3454 25.2616 43.5865 25.2078 43.8154 25.1568L44.3058 25.0475C44.9214 24.9102 45.362 24.812 45.3652 24.8113ZM31.6818 22.6453C31.9878 22.1289 32.5901 21.8281 33.2188 21.9282C34.0458 22.06 34.6096 22.838 34.4781 23.6661C34.4284 23.9791 34.281 24.2476 34.0842 24.4685C34.0806 24.4725 33.252 25.41 32.4233 26.3474L32.1755 26.6277C31.4371 27.463 30.7655 28.2227 30.7622 28.2263C30.5308 28.477 30.1902 28.6181 29.8298 28.5606C29.2671 28.471 28.8836 27.9417 28.9731 27.3784C28.9959 27.2347 29.0476 27.1028 29.1209 26.9874C29.1264 26.9781 31.6762 22.6546 31.6818 22.6453ZM44.4512 21.3939C44.7415 21.1819 45.0943 21.1366 45.4202 21.2124C45.4298 21.2146 48.967 22.0423 49.6285 22.1971L49.7157 22.2175L49.7328 22.2216C50.0718 22.2983 50.383 22.4992 50.6038 22.8024C51.0971 23.48 50.9485 24.4297 50.2718 24.9236C49.8065 25.2633 49.2256 25.2763 48.7268 25.068C48.7168 25.0639 44.6733 23.3747 44.6636 23.37C44.4849 23.2912 44.3236 23.1666 44.2003 22.9973C43.8274 22.4851 43.9397 21.7673 44.4512 21.3939ZM41.1338 16.0493C41.6414 15.7905 42.2625 15.9928 42.5209 16.5011C42.5869 16.6308 42.6225 16.7679 42.6311 16.9045C42.6321 16.9152 43.1086 21.9134 43.1097 21.9243C43.1654 22.5222 42.8549 23.1201 42.2876 23.4092C41.5412 23.7896 40.6282 23.4921 40.2483 22.7449C40.1048 22.4625 40.0662 22.1585 40.0958 21.8639C40.0968 21.8532 40.5746 16.8795 40.5759 16.8687C40.6158 16.5296 40.8084 16.2151 41.1338 16.0493ZM27.6468 16.001C28.2226 16.0007 28.6998 16.3326 28.9806 16.7951C28.9861 16.8044 31.261 20.5534 31.2662 20.563C31.3643 20.732 31.4214 20.9278 31.4215 21.1374C31.4217 21.7712 30.9088 22.2851 30.2758 22.2854C29.9165 22.2856 29.6047 22.1142 29.3858 21.8609C29.3825 21.857 28.7513 21.1242 28.0794 20.3441L27.8415 20.0679C27.485 19.654 27.1365 19.2493 26.883 18.955L26.729 18.7762C26.5911 18.616 26.504 18.5149 26.4935 18.5027C26.2646 18.2409 26.1312 17.895 26.131 17.5197C26.1307 16.6812 26.8094 16.0013 27.6468 16.001ZM31.7994 17.0115C31.943 16.9888 32.0842 16.9971 32.2165 17.0311C32.2215 17.0322 33.3287 17.2785 34.4909 17.537L34.8586 17.6187C36.0208 17.8772 37.128 18.1235 37.133 18.1246C37.7182 18.2562 38.1904 18.7364 38.29 19.3659C38.421 20.1941 37.8566 20.9718 37.0295 21.1029C36.7169 21.1525 36.4163 21.0954 36.1454 20.9764C36.1408 20.9743 35.1056 20.5242 34.0188 20.0517L33.504 19.8279C32.4821 19.3835 31.5527 18.9794 31.5483 18.9774C31.2385 18.8347 30.9991 18.5542 30.942 18.1932C30.8528 17.6298 31.2368 17.1007 31.7994 17.0115ZM40.2863 11.2608C41.0828 11.0016 41.9382 11.438 42.197 12.2355C42.375 12.7838 42.2069 13.3408 41.8542 13.7508C41.8472 13.759 38.9878 17.0828 38.9803 17.0907C38.85 17.2362 38.6815 17.351 38.4825 17.4158C37.8805 17.6117 37.2338 17.2818 37.0383 16.6791C36.9273 16.3368 36.9937 15.987 37.1669 15.7004C37.1725 15.6911 39.4145 11.9915 39.4643 11.9094C39.6425 11.6105 39.9298 11.3767 40.2863 11.2608Z" fill="#EB2D4B"/>
</svg>
