<svg width="149" height="148" viewBox="0 0 149 148" fill="none" xmlns="http://www.w3.org/2000/svg">
<path d="M134.07 2.46997L131.6 12.34H82.2698L79.7998 2.46997H134.07V2.46997Z" fill="#FED4EA"/>
<path d="M124.2 61.67V70.33C124.21 74.26 122.64 78.04 119.86 80.81L106.94 93.73L94.0198 80.81C91.2398 78.03 89.6697 74.26 89.6797 70.33V61.67L106.95 54.27L124.2 61.67Z" fill="#BAEDFE"/>
<path d="M77.3395 73.9999C77.3795 94.4699 60.8195 111.11 40.3396 111.15C19.8696 111.19 3.22953 94.6299 3.18953 74.1499C3.14953 53.6699 19.7095 37.0399 40.1895 36.9999C50.5395 36.9799 60.4395 41.2899 67.4695 48.8899C73.8295 55.6999 77.3595 64.6799 77.3395 73.9999Z" fill="#FED4EA"/>
<path d="M57.6093 9.86998V19.74H23.0793V27.14L8.2793 14.81L23.0793 2.47998V9.87998H57.6093V9.86998Z" fill="#FED4EA"/>
<path d="M57.6093 133.2L42.8093 145.53V138.13H8.2793V128.26H42.8093V120.86L57.6093 133.2Z" fill="#FED4EA"/>
<path d="M141.47 0H72.4097C68.3297 0.01 65.0197 3.32 65.0097 7.4V43.24C48.0197 29.58 23.1797 32.28 9.51973 49.27C-4.14027 66.26 -1.4403 91.1 15.5497 104.76C29.9897 116.37 50.5597 116.37 64.9997 104.76V140.6C65.0097 144.68 68.3197 147.99 72.3997 148H141.46C145.54 147.99 148.85 144.68 148.86 140.6V7.4C148.86 3.32 145.55 0.02 141.47 0ZM130.91 4.94L129.68 9.87H84.1997L82.9697 4.94H130.91V4.94ZM40.3397 108.53C21.2697 108.53 5.80971 93.07 5.80971 74C5.80971 54.93 21.2697 39.47 40.3397 39.47C59.4097 39.47 74.8697 54.93 74.8697 74C74.8497 93.07 59.3997 108.51 40.3397 108.53ZM143.94 140.6C143.94 141.96 142.84 143.07 141.47 143.07H72.4097C71.0497 143.07 69.9397 141.97 69.9397 140.6V100.02C83.0897 85.17 83.0897 62.83 69.9397 47.97V7.4C69.9397 6.04 71.0397 4.93 72.4097 4.93H77.8897L79.8897 12.92C80.1597 14.02 81.1497 14.79 82.2797 14.79H131.61C132.74 14.79 133.73 14.02 134 12.92L136 4.93H141.48C142.84 4.93 143.95 6.03 143.95 7.4L143.94 140.6Z" fill="#F23C8B"/>
<path d="M57.6097 7.4H25.5397V2.47C25.5397 1.11 24.4397 0 23.0797 0C22.4997 0 21.9397 0.2 21.4997 0.57L6.6997 12.9C5.6497 13.77 5.50968 15.32 6.36968 16.37C6.46968 16.49 6.5797 16.6 6.6997 16.7L21.4997 29.03C21.9397 29.4 22.4997 29.6 23.0797 29.6C23.4397 29.6 23.7897 29.52 24.1197 29.38C24.9897 28.98 25.5497 28.1 25.5497 27.14V22.2H57.6197C58.9797 22.2 60.0897 21.1 60.0897 19.73V9.86C60.0697 8.51 58.9697 7.4 57.6097 7.4ZM55.1397 17.27H23.0697C21.7097 17.27 20.5997 18.37 20.5997 19.74V21.89L12.1097 14.81L20.5997 7.73V9.88C20.5997 11.24 21.6997 12.35 23.0697 12.35H55.1397V17.27Z" fill="#F23C8B"/>
<path d="M59.1798 131.3L44.3798 118.97C43.3298 118.1 41.7798 118.24 40.9098 119.29C40.5398 119.73 40.3398 120.29 40.3398 120.87V125.8H8.26984C6.90984 125.8 5.7998 126.9 5.7998 128.27V138.14C5.7998 139.5 6.89984 140.61 8.26984 140.61H40.3398V145.54C40.3398 146.5 40.8998 147.38 41.7698 147.78C42.0998 147.93 42.4498 148 42.8098 148C43.3898 148 43.9398 147.8 44.3898 147.43L59.1898 135.1C60.2398 134.23 60.3798 132.68 59.5198 131.63C59.4098 131.51 59.2998 131.4 59.1798 131.3ZM45.2698 140.28V138.13C45.2698 136.77 44.1698 135.66 42.7998 135.66H10.7298V130.73H42.7998C44.1598 130.73 45.2698 129.63 45.2698 128.26V126.11L53.7598 133.19L45.2698 140.28Z" fill="#F23C8B"/>
<path d="M40.3396 61.67C43.0596 61.67 45.2696 63.88 45.2696 66.6H50.1996C50.1796 62.11 47.1396 58.21 42.7996 57.08V51.8H37.8696V57.08C32.5996 58.44 29.4296 63.8001 30.7896 69.0701C31.9096 73.4301 35.8396 76.4701 40.3396 76.4601C43.0596 76.4601 45.2696 78.67 45.2696 81.39C45.2696 84.11 43.0596 86.3201 40.3396 86.3201C37.6196 86.3201 35.4096 84.11 35.4096 81.39H30.4796C30.4996 85.88 33.5396 89.78 37.8796 90.91V96.19H42.8096V90.91C48.0796 89.55 51.2496 84.19 49.8896 78.92C48.7696 74.56 44.8396 71.52 40.3396 71.53C37.6196 71.53 35.4096 69.32 35.4096 66.6C35.4096 63.88 37.6196 61.67 40.3396 61.67Z" fill="#F23C8B"/>
<path d="M19.4099 53.0699C7.86988 64.6399 7.86988 83.3599 19.4099 94.9299L22.8999 91.4399C13.2799 81.7999 13.2799 66.1999 22.8999 56.5599L19.4099 53.0699Z" fill="#F23C8B"/>
<path d="M61.2693 53.0699L57.7793 56.5599C67.3993 66.1999 67.3993 81.7999 57.7793 91.4399L61.2693 94.9299C72.8093 83.3599 72.8093 64.6399 61.2693 53.0699Z" fill="#F23C8B"/>
<path d="M125.18 59.4001L107.91 52.0001C107.29 51.7401 106.59 51.7401 105.97 52.0001L88.7 59.4001C87.79 59.7901 87.21 60.6801 87.21 61.6701V70.34C87.2 74.92 89.02 79.3201 92.27 82.5501L105.2 95.48C106.16 96.44 107.72 96.44 108.69 95.48L121.62 82.5501C124.87 79.3201 126.69 74.92 126.68 70.34V61.6701C126.67 60.6801 126.08 59.7901 125.18 59.4001ZM121.74 70.34C121.75 73.61 120.45 76.7501 118.13 79.0601L106.94 90.2501L95.75 79.0601C93.43 76.7501 92.13 73.61 92.14 70.34V63.3001L106.94 56.9601L121.74 63.3001V70.34V70.34Z" fill="#F23C8B"/>
<path d="M103.75 69.79L100.26 73.28L105.19 78.21C106.15 79.17 107.71 79.17 108.68 78.21L118.55 68.34L115.06 64.85L106.94 72.97L103.75 69.79Z" fill="#F23C8B"/>
</svg>
