<svg width="41" height="38" viewBox="0 0 41 38" xmlns="http://www.w3.org/2000/svg">
    <g fill="none" fill-rule="evenodd">
        <path d="M.188.474h39.874v37.368H.188z"/>
        <path fill="#D0D9FB" d="M22.452 11.126h4.608l3.456 8.454 2.304.269v9.116h-6.912v-9.434l-1.152.05z"/>
        <path d="m17.543 6.535.11.168 11.054.375c.184.006.366.062.528.161l.118.083 2.201 1.752c.56.446.62 1.285.153 1.744l-.094.081-2.094 1.606-.008.004 1.908 6.124.078.02c1.37.371 2.384 1.498 2.47 2.854l.006.187v5.283c0 1.689-1.44 3.069-3.254 3.165l-.203.005v2.114c0 .584-.516 1.057-1.152 1.057h-3.456c-.636 0-1.152-.473-1.152-1.057v-2.114h-9.218v2.114c0 .584-.515 1.057-1.151 1.057H10.93c-.637 0-1.153-.473-1.153-1.057v-2.114c-1.84 0-3.345-1.32-3.45-2.983l-.006-.187v-5.283c0-1.439 1.044-2.653 2.475-3.041l.094-.023 1.83-5.453a5.56 5.56 0 0 1-1.319-1.789c-1.21-2.595-.261-5.598 2.119-6.708 2.108-.983 4.632-.151 6.022 1.855zm-4.308 23.612h-1.152v1.057h1.152v-1.057zm14.977 0H27.06v1.057h1.152v-1.057zM12.495 6.768c-1.323.617-1.85 2.285-1.178 3.727.673 1.442 2.29 2.11 3.583 1.508.668-.339 1.075-.765 1.27-1.284a.997.997 0 0 1 1.39-.552c.553.264.829.939.615 1.508-.39 1.037-1.153 1.835-2.272 2.402a4.496 4.496 0 0 1-3.151.232l-1.872 5.582c-.136.403-.517.69-.965.739l-.137.007c-.59 0-1.077.408-1.144.933l-.008.124v5.283c0 .542.445.989 1.018 1.05l.134.007h20.738c.591 0 1.078-.408 1.145-.933l.007-.124v-5.283c0-.542-.444-.989-1.017-1.05l-.135-.007c-.467 0-.884-.259-1.062-.646l-.046-.12-2.25-7.225-2.611-.088c-.593-.02-1.09-.545-1.11-1.172-.02-.582.38-1.047.912-1.095l.125-.003 3.987.136.678-.52-.712-.567L17.1 8.95c-.417-.015-.805-.283-.994-.689-.672-1.442-2.29-2.11-3.611-1.494zm.164 15.982c.954 0 1.728.71 1.728 1.585 0 .876-.774 1.586-1.728 1.586-.955 0-1.728-.71-1.728-1.586 0-.875.773-1.585 1.728-1.585zm14.977 0c.954 0 1.728.71 1.728 1.585 0 .876-.774 1.586-1.728 1.586s-1.728-.71-1.728-1.586c0-.875.774-1.585 1.728-1.585zm-.576-4.227c.636 0 1.152.474 1.152 1.057 0 .584-.516 1.057-1.152 1.057H13.235c-.637 0-1.152-.473-1.152-1.057 0-.583.515-1.057 1.152-1.057H27.06zM21.3 10.07c.636 0 1.152.473 1.152 1.056 0 .542-.445.989-1.018 1.05l-.135.007h-1.152c-.636 0-1.152-.473-1.152-1.057 0-.542.445-.988 1.018-1.05l.134-.006H21.3zm-8.065-1.585c.636 0 1.152.473 1.152 1.056 0 .584-.516 1.057-1.152 1.057-.637 0-1.152-.473-1.152-1.057 0-.583.515-1.056 1.152-1.056z" fill="#597EF7" fill-rule="nonzero"/>
    </g>
</svg>
