<svg width="41" height="38" viewBox="0 0 41 38" xmlns="http://www.w3.org/2000/svg">
    <g fill="none" fill-rule="evenodd">
        <path d="M.438.474h39.874v37.368H.438z"/>
        <path d="M22.272 3.08c3.592 4.403 4.953 8.753 4.083 13.049-.87 4.295-2.231 7.524-4.083 9.685 5.569-1.585 8.824-5.345 9.764-11.28.343-7.386-2.912-11.204-9.764-11.455zM21.301 29.89v4.833h3.75V29.89z" fill="#EFDBFF"/>
        <g fill="#9254DE">
            <g stroke-linecap="round" stroke-linejoin="round">
                <path d="M20.515 1.641c9.286 0 14.459 6.428 12.007 15.051-1.083 4.902-5.074 9.246-8.148 9.813-1.98.169-4.676.169-7.462.004-3.014 0-8.318-5.66-8.667-10.28-.043-.56.408-1.048 1.007-1.088.6-.04 1.12.383 1.162.945.146 1.931 1.27 4.04 2.982 5.865 1.381 1.475 2.986 2.52 3.584 2.522.366.021.73.04 1.09.056l1.063.038 1.026.023c1.508.02 2.858-.014 3.904-.1 2.03-.378 5.411-4.058 6.343-8.267C32.507 8.83 28.362 3.68 20.515 3.68c-5.233 0-8.42 1.68-9.808 5.051-.216.525-.845.787-1.406.584-.56-.203-.84-.792-.623-1.318 1.743-4.233 5.77-6.356 11.837-6.356z"/>
                <path d="M9.002 10.922c.554 0 1.011.39 1.079.892l.008.128v.961c0 .563-.487 1.02-1.087 1.02-.555 0-1.012-.39-1.08-.892l-.008-.128v-.961c0-.563.487-1.02 1.088-1.02zM17.408 25.66c.238-.516.878-.754 1.43-.53.508.205.764.732.613 1.219l-.046.12-1.05 2.277c-.238.517-.878.755-1.43.532-.508-.206-.764-.733-.613-1.22l.046-.12 1.05-2.277zM22.555 25.373c.518-.185 1.094.025 1.348.472l.056.117.822 2.016c.215.526-.066 1.115-.627 1.316-.518.186-1.094-.025-1.348-.472l-.056-.116-.822-2.017c-.215-.526.066-1.115.627-1.316z"/>
                <path d="M26.784 28.13c.6 0 1.088.456 1.088 1.019 0 .52-.415.948-.951 1.01l-.137.009H14.561c-.6 0-1.088-.457-1.088-1.02 0-.519.415-.948.952-1.01l.136-.009h12.223z"/>
                <path d="M25.05 29.245c.555 0 1.012.388 1.08.89l.008.129v3.056c0 1.623-1.35 2.951-3.056 3.051l-.207.006h-4.719c-1.732 0-3.15-1.265-3.256-2.864l-.006-.193v-3.056c0-.563.487-1.02 1.087-1.02.555 0 1.012.39 1.08.892l.008.128v3.056c0 .52.414.948.95 1.01l.137.009h4.72c.554 0 1.011-.389 1.078-.891l.009-.128v-3.056c0-.563.487-1.02 1.087-1.02z"/>
            </g>
            <path d="M23.023 2.125c-.442-.495-1.228-.56-1.756-.147a1.118 1.118 0 0 0-.156 1.645c5.227 5.86 5.362 12.863.304 21.26-.338.56-.126 1.273.473 1.59.6.317 1.36.119 1.698-.443 5.536-9.19 5.38-17.242-.563-23.905zM17.935 2.125c.441-.495 1.227-.56 1.755-.147.528.414.598 1.15.157 1.645-5.228 5.86-5.363 12.863-.305 21.26.338.56.126 1.273-.473 1.59-.6.317-1.36.119-1.698-.443-5.535-9.19-5.38-17.242.564-23.905z"/>
        </g>
    </g>
</svg>
