<svg width="48" height="48" viewBox="0 0 48 48" fill="none" xmlns="http://www.w3.org/2000/svg">
<path fill-rule="evenodd" clip-rule="evenodd" d="M14 4H34C36.21 4 38 5.79 38 8V36H10V8C10 5.79 11.79 4 14 4Z" fill="#0068FF"/>
<path fill-rule="evenodd" clip-rule="evenodd" d="M21.8911 13L21.8101 13.005C21.6961 13.018 21.5851 13.058 21.4881 13.126L21.3911 13.208L17.2051 17.422C16.9301 17.698 16.9321 18.145 17.2081 18.419C17.4541 18.664 17.8341 18.689 18.1081 18.499L18.2061 18.416L21.1851 15.417V26.3C21.1851 26.687 21.4991 27 21.8851 27C22.2721 27 22.5851 26.687 22.5851 26.3L22.5971 13.743V13.72C22.6001 13.534 22.5311 13.347 22.3881 13.205C22.3001 13.117 22.1931 13.057 22.0811 13.025C22.0761 13.025 22.0711 13.025 22.0671 13.023C22.0421 13.016 22.0171 13.011 21.9921 13.007C21.9681 13.004 21.9431 13.002 21.9181 13.001L21.8951 13H21.8911Z" fill="white" stroke="white" stroke-width="0.5"/>
<path fill-rule="evenodd" clip-rule="evenodd" d="M26.0702 26.998L26.1242 27C26.0872 27 26.0522 26.997 26.0172 26.991C25.8702 26.969 25.7292 26.901 25.6182 26.787C25.4792 26.644 25.4132 26.457 25.4182 26.274V13.705C25.4182 13.315 25.7342 13 26.1242 13C26.5142 13 26.8292 13.316 26.8292 13.705V24.624L29.9602 21.576C30.2402 21.304 30.6862 21.31 30.9582 21.589C31.1992 21.837 31.2222 22.218 31.0282 22.489L30.9442 22.586L26.6162 26.8C26.4982 26.915 26.3502 26.98 26.1982 26.996C26.1732 26.999 26.1482 27 26.1242 27H26.1142C26.0992 27 26.0842 27 26.0702 26.998Z" fill="white" stroke="white" stroke-width="0.5"/>
<path fill-rule="evenodd" clip-rule="evenodd" d="M10 38H38V40C38 42.21 36.21 44 34 44H14C11.79 44 10 42.21 10 40V38Z" fill="#0068FF"/>
<path d="M26 40H22C21.4477 40 21 40.4477 21 41C21 41.5523 21.4477 42 22 42H26C26.5523 42 27 41.5523 27 41C27 40.4477 26.5523 40 26 40Z" fill="white"/>
</svg>
