<svg width="48" height="48" viewBox="0 0 48 48" fill="none" xmlns="http://www.w3.org/2000/svg">
<path fill-rule="evenodd" clip-rule="evenodd" d="M14 4H34C36.21 4 38 5.79 38 8V36H10V8C10 5.79 11.79 4 14 4Z" fill="#0068FF"/>
<path d="M24 10C18.477 10 14 14.477 14 20C14 25.523 18.477 30 24 30C29.523 30 34 25.523 34 20C34 14.477 29.523 10 24 10ZM24 12C28.418 12 32 15.582 32 20C32 24.418 28.418 28 24 28C19.582 28 16 24.418 16 20C16 15.582 19.582 12 24 12Z" fill="white"/>
<path fill-rule="evenodd" clip-rule="evenodd" d="M10 38H38V40C38 42.21 36.21 44 34 44H14C11.79 44 10 42.21 10 40V38Z" fill="#0068FF"/>
<path d="M26 40H22C21.4477 40 21 40.4477 21 41C21 41.5523 21.4477 42 22 42H26C26.5523 42 27 41.5523 27 41C27 40.4477 26.5523 40 26 40Z" fill="white"/>
<path d="M24 14.088C24.513 14.088 24.936 14.474 24.993 14.971L25 15.088L24.999 20.087L28.015 20.088C28.528 20.088 28.951 20.474 29.009 20.971L29.015 21.088C29.015 21.601 28.629 22.023 28.132 22.081L28.015 22.088H23V15.088C23 14.536 23.448 14.088 24 14.088Z" fill="white"/>
</svg>
