<svg width="48" height="48" viewBox="0 0 48 48" fill="none" xmlns="http://www.w3.org/2000/svg">
<path fill-rule="evenodd" clip-rule="evenodd" d="M10 4H30C32.21 4 34 5.79 34 8V36H6V8C6 5.79 7.79 4 10 4Z" fill="#0068FF"/>
<path d="M39 13H24C21.7909 13 20 14.7909 20 17V25C20 27.2091 21.7909 29 24 29H39C41.2091 29 43 27.2091 43 25V17C43 14.7909 41.2091 13 39 13Z" fill="#0068FF" stroke="white" stroke-width="2"/>
<path fill-rule="evenodd" clip-rule="evenodd" d="M6 38H34V40C34 42.21 32.21 44 30 44H10C7.79 44 6 42.21 6 40V38Z" fill="#0068FF"/>
<path d="M22 40H18C17.4477 40 17 40.4477 17 41C17 41.5523 17.4477 42 18 42H22C22.5523 42 23 41.5523 23 41C23 40.4477 22.5523 40 22 40Z" fill="white"/>
<path d="M29.572 18.064C30.124 18.064 30.572 18.512 30.572 19.064C30.572 19.577 30.186 19.999 29.689 20.057L29.572 20.064H24.043C23.491 20.064 23.043 19.616 23.043 19.064C23.043 18.551 23.429 18.128 23.927 18.071L24.043 18.064H29.572ZM35.998 22C36.55 21.997 37 22.442 37.003 22.995C37.006 23.507 36.623 23.932 36.125 23.993L36.01 24L24.05 24.064C23.497 24.067 23.047 23.622 23.044 23.069C23.042 22.556 23.425 22.132 23.922 22.071L24.039 22.064L35.998 22Z" fill="white"/>
</svg>
