<svg width="48" height="48" viewBox="0 0 48 48" fill="none" xmlns="http://www.w3.org/2000/svg">
<path fill-rule="evenodd" clip-rule="evenodd" d="M14 4H34C36.21 4 38 5.79 38 8V36H10V8C10 5.79 11.79 4 14 4ZM10 38H38V40C38 42.21 36.21 44 34 44H14C11.79 44 10 42.21 10 40V38Z" fill="#0068FF"/>
<path d="M26 40H22C21.4477 40 21 40.4477 21 41C21 41.5523 21.4477 42 22 42H26C26.5523 42 27 41.5523 27 41C27 40.4477 26.5523 40 26 40Z" fill="white"/>
<path d="M23.918 13L23.884 13.001C23.86 13.003 23.836 13.005 23.813 13.009L23.783 13.015C23.759 13.02 23.736 13.025 23.713 13.033C23.694 13.039 23.677 13.045 23.66 13.053C23.643 13.059 23.626 13.067 23.61 13.075L23.569 13.097L23.522 13.127L23.512 13.134C23.482 13.155 23.455 13.179 23.428 13.205L23.424 13.21L19.207 17.455C18.93 17.734 18.931 18.184 19.21 18.46C19.457 18.706 19.84 18.732 20.117 18.54L20.215 18.457L23.217 15.435V26.684C23.217 27.077 23.535 27.394 23.927 27.394C24.32 27.394 24.639 27.077 24.639 26.684L24.638 15.394L27.793 18.465C28.075 18.739 28.525 18.733 28.799 18.452C29.042 18.202 29.064 17.818 28.869 17.544L28.785 17.447L24.424 13.201L24.384 13.169L24.342 13.133L24.338 13.13L24.424 13.201C24.377 13.156 24.325 13.118 24.27 13.088L24.254 13.078L24.27 13.088C24.235 13.068 24.198 13.052 24.16 13.039L24.143 13.033C24.119 13.025 24.093 13.019 24.068 13.013L24.036 13.008L23.977 13.002L23.932 13H23.918Z" fill="white" stroke="white" stroke-width="0.5"/>
</svg>
