<svg width="114" height="48" viewBox="0 0 114 48" fill="none" xmlns="http://www.w3.org/2000/svg">
<path fill-rule="evenodd" clip-rule="evenodd" d="M103.231 20.403H105.589L101.922 24.1452L106 28.336H103.568L100.612 24.7626V27.5129C100.574 28.1676 99.9757 28.336 99.9757 28.336H98.797V21.189C98.8906 20.3657 99.5828 20.4032 99.5828 20.4032H100.462V23.5089L103.231 20.403ZM78.5118 27.0078H76.8133V24.9121H78.5118C79.1314 24.9121 79.6386 25.3838 79.6386 25.96C79.6386 26.5361 79.1314 27.0078 78.5118 27.0078ZM76.6263 21.8251H78.1137C78.6025 21.8251 79.0023 22.2249 79.0023 22.7139C79.0023 23.2027 78.6025 23.6026 78.1137 23.6026H76.6263V21.8251ZM79.994 23.8084C79.994 23.8084 80.7755 23.317 80.5928 22.1994C80.4244 21.1704 80.0126 20.6278 79.0584 20.4219H75.2231L75.2978 28.5044L79.3579 28.411C79.3579 28.411 80.9295 27.9058 81.2102 26.222C81.4908 24.5381 79.994 23.8084 79.994 23.8084ZM91.5003 20.291L95.6163 25.2303V21.1329C95.6163 20.3846 96.3835 20.291 96.3835 20.291H97.4313V28.2426L96.1215 28.2987L92.0616 23.7335V27.5315C92.043 28.4482 91.4255 28.5044 91.4255 28.5044H90.2655V20.291H91.5003ZM65.0264 20.291L69.1426 25.2303V21.1329C69.1426 20.3846 69.9095 20.291 69.9095 20.291H70.9573V28.2426L69.6477 28.2987L65.5876 23.7335V27.5315C65.569 28.4482 64.9516 28.5044 64.9516 28.5044H63.7915V20.291H65.0264ZM84.6495 25.1555L85.4914 23.1349L86.4081 25.1555H84.6495ZM86.1836 20.74C85.3978 19.7297 84.8365 20.74 84.8365 20.74C84.8365 20.74 81.5249 28.4296 81.4688 28.5044L82.7973 28.5089C83.3397 28.4388 83.6017 27.8122 83.6017 27.8122L84.0321 26.6896L87.0442 26.7083L87.4371 27.7374C87.6616 28.6166 88.279 28.5044 88.279 28.5044H89.6636L86.1836 20.74ZM58.2537 25.1555L59.0956 23.1349L60.0123 25.1555H58.2537ZM59.7878 20.74C59.002 19.7297 58.4407 20.74 58.4407 20.74C58.4407 20.74 55.1291 28.4296 55.073 28.5044L56.4014 28.5089C56.9439 28.4388 57.2059 27.8122 57.2059 27.8122L57.6363 26.6896L60.6483 26.7083L61.0412 27.7374C61.2658 28.6166 61.8832 28.5044 61.8832 28.5044H63.2677L59.7878 20.74ZM49.4415 20.2349H54.3808V21.2638C54.3808 21.2638 54.2872 21.9935 53.5389 21.9935H51.2188L51.2001 23.378H53.5014V24.931H51.2376V26.7457H54.3808V27.569C54.3808 27.569 54.437 28.2612 53.8568 28.5044H49.4415V20.2349ZM47.3774 26.1703C47.7815 26.1997 48.2554 26.5971 48.603 26.7985C47.8434 27.8313 46.6237 28.5044 45.2434 28.5044C42.9392 28.5044 41.0712 26.6366 41.0712 24.3322C41.0712 22.0278 42.9392 20.1601 45.2434 20.1601C46.4458 20.1601 47.5262 20.6715 48.2875 21.4852C48.248 21.443 47.7911 22.046 47.7307 22.1098C47.5383 22.3116 47.2653 22.5999 46.958 22.4555C46.7361 22.3511 46.5579 22.134 46.3304 22.026C45.9917 21.8655 45.6185 21.7822 45.2434 21.7822C43.835 21.7822 42.6933 22.9239 42.6933 24.3322C42.6933 25.7406 43.835 26.8823 45.2434 26.8823C45.6542 26.8823 46.0624 26.7826 46.4261 26.5913C46.6901 26.4525 46.9218 26.2202 47.2245 26.1759C47.2734 26.1687 47.3241 26.1665 47.3774 26.1703ZM36.1146 26.8823C34.7063 26.8823 33.5644 25.7406 33.5644 24.3322C33.5644 22.9239 34.7063 21.7822 36.1146 21.7822C37.523 21.7822 38.6649 22.9239 38.6649 24.3322C38.6649 25.7406 37.523 26.8823 36.1146 26.8823ZM36.1146 20.1601C33.8105 20.1601 31.9425 22.0278 31.9425 24.3322C31.9425 26.6366 33.8105 28.5044 36.1146 28.5044C38.4188 28.5044 40.2868 26.6366 40.2868 24.3322C40.2868 22.0278 38.4188 20.1601 36.1146 20.1601Z" fill="#1C427C"/>
<path fill-rule="evenodd" clip-rule="evenodd" d="M11.4099 25.9599C14.5198 24.7856 17.3836 25.6901 17.3836 25.6901L17.3856 25.6907C17.2782 25.3193 17.2177 24.9272 17.2177 24.5203C17.2177 22.2187 19.0633 20.3528 21.3396 20.3528C23.6159 20.3528 25.4612 22.2187 25.4612 24.5203C25.4612 25.8978 24.7976 27.1151 23.7791 27.8739L23.7841 27.8757C23.7841 27.8757 25.867 27.8523 27.2189 28.535C27.8689 27.1847 28.2342 25.6685 28.2342 24.0656C28.2342 18.4161 23.7045 13.8362 18.117 13.8362C12.5295 13.8362 8 18.4161 8 24.0656C8 24.6967 8.05958 25.3134 8.16772 25.9128C8.62073 26.31 9.55554 26.6603 11.4099 25.9599Z" fill="#89D2DC"/>
<path fill-rule="evenodd" clip-rule="evenodd" d="M8.67456 27.7027C8.67456 27.7027 11.2976 27.627 12.7589 27.1724C14.2202 26.7177 17.3302 25.8842 21.1897 28.1953C21.1897 28.1953 18.3419 28.1574 15.6065 29.4456C12.8713 30.7336 9.38657 29.1046 8.67456 27.7027Z" fill="#149CD6"/>
<path fill-rule="evenodd" clip-rule="evenodd" d="M10.8478 31.2262C10.8478 31.2262 15.3442 31.3778 17.4052 30.3926C19.4659 29.4077 22.6885 28.4984 26.7353 29.1046C26.7353 29.1046 25.0866 33.0068 19.6534 34.0677C13.808 34.7876 10.8478 31.2262 10.8478 31.2262Z" fill="#1C427C"/>
</svg>
