<svg width="300" height="400" viewBox="0 0 300 400" fill="none" xmlns="http://www.w3.org/2000/svg">
<path fill-rule="evenodd" clip-rule="evenodd" d="M85 4C68.9837 4 56 16.9507 56 32.9262V367.074C56 383.049 68.9837 396 85 396H215C231.016 396 244 383.049 244 367.074V32.9262C244 16.9507 231.016 4 215 4H85ZM85 10C72.2975 10 62 20.2704 62 32.9396V367.06C62 379.73 72.2975 390 85 390H215C227.703 390 238 379.73 238 367.06V32.9396C238 20.2704 227.703 10 215 10H85Z" fill="#001F3E"/>
<path fill-rule="evenodd" clip-rule="evenodd" d="M244 114L244.044 75C245.68 75.0073 247.004 77.4766 247 80.5159L246.968 108.507C246.965 111.548 245.636 114.006 244 114Z" fill="#001932"/>
<path fill-rule="evenodd" clip-rule="evenodd" d="M55.5817 93.9941L57.9627 94L58 75.0047L55.619 75C54.19 74.9965 53.0296 76.2429 53.0263 77.7853L53 91.1958C52.9978 92.7381 54.1527 93.9905 55.5817 93.9941Z" fill="#001932"/>
<path fill-rule="evenodd" clip-rule="evenodd" d="M55.8267 117.605L58.4242 117.611L58.4649 98.1853L55.8674 98.1805C54.3084 98.1768 53.0426 99.4527 53.039 101.029L53.0103 114.743C53.0079 116.321 54.2677 117.603 55.8267 117.605Z" fill="#001932"/>
</svg>
