<svg width="114" height="48" viewBox="0 0 114 48" fill="none" xmlns="http://www.w3.org/2000/svg">
<path fill-rule="evenodd" clip-rule="evenodd" d="M90.4532 16.6115L82.0369 8L77.7998 12.3057L73.0403 17.077C74.3172 15.9714 77.7998 15.5641 78.8446 15.506C82.8495 14.9241 87.3769 15.3896 90.4532 16.6115Z" fill="url(#paint0_linear_498_307)"/>
<path fill-rule="evenodd" clip-rule="evenodd" d="M78.8446 20.3354V17.8916V15.4478C77.6257 15.5641 72.9242 16.0878 72.634 17.7752C72.2857 19.4044 77.6837 20.219 78.8446 20.3354Z" fill="url(#paint1_linear_498_307)"/>
<path fill-rule="evenodd" clip-rule="evenodd" d="M73.5627 20.3935L82.0369 28.9468L86.2741 24.6411L91.0336 19.8699C89.7567 20.9754 86.2741 21.3827 85.2293 21.4409C81.1663 22.0227 76.6389 21.6154 73.5627 20.3935Z" fill="url(#paint2_linear_498_307)"/>
<path fill-rule="evenodd" clip-rule="evenodd" d="M85.2293 16.6115V19.0552V21.499C86.4482 21.3827 91.1497 20.859 91.4399 19.1716C91.7301 17.5424 86.3321 16.7278 85.2293 16.6115Z" fill="url(#paint3_linear_498_307)"/>
<path fill-rule="evenodd" clip-rule="evenodd" d="M32.1279 16.5065L36.693 29.1501H38.1756H39.6581L44.2232 16.5065H40.3606L38.1756 24.3317L35.9907 16.5065H32.1279ZM25.6919 16.3525L22.5488 16.6609V29.1501H25.6919V25.411H26.9651C32.6781 25.411 33.0995 18.7308 29.7193 16.9904C28.6883 16.4593 27.3165 16.3002 25.6919 16.3525ZM25.6919 23.8488V17.9522C27.5509 17.7664 28.49 18.7014 28.656 20.4221C28.7576 21.4752 28.4649 22.598 27.6835 23.2495C27.1943 23.6574 26.5313 23.8639 25.6919 23.8488Z" fill="#005C9B"/>
<path fill-rule="evenodd" clip-rule="evenodd" d="M72.0339 33.8338V34.1266L72.1724 33.9722L72.0339 33.8338ZM69.9053 30.3128H72.0339V33.8338L72.1724 33.9722L74.7991 31.0451H77.7398L73.493 35.2933L78.198 39.9999H75.2574L72.197 36.5896L72.0339 36.4076V39.9999H69.9053V30.3128ZM66.1118 31.1293C65.6585 30.944 65.0797 30.8496 64.375 30.8496C63.7625 30.8496 63.1752 30.9107 62.6158 31.0325C62.0567 31.1543 61.5588 31.3065 61.1224 31.492V39.9999H63.3011V32.6487C63.6283 32.5076 64.0337 32.4384 64.5149 32.4384C64.9817 32.4384 65.3511 32.552 65.6195 32.7788C65.888 33.006 66.0223 33.3162 66.0223 33.712V39.9999H68.2343V33.8401C68.2343 32.3661 67.4219 31.6739 66.1118 31.1293ZM57.2305 38.7137C56.8046 38.72 56.3784 38.7265 55.9524 38.7326C55.2601 38.743 54.5954 38.1245 54.5307 37.148C54.4376 35.7415 55.5042 35.0756 56.4077 35.0756H57.2305V38.7137ZM52.8839 31.3753C54.8592 30.6113 57.0269 30.2921 58.4453 31.5649C59.2774 32.3118 59.4587 32.875 59.4587 33.8999V39.9228C58.2385 39.9486 57.0185 39.9743 55.7983 39.9999C54.148 39.8476 52.3218 38.9778 52.2634 37.1562C52.1859 34.748 55.3265 34.0284 57.2703 33.9866C57.7024 31.7923 54.928 32.1218 53.5701 32.5798C53.3414 32.1783 53.1126 31.7766 52.8839 31.3753ZM45.8713 38.7454V35.3471H46.8575C47.9405 35.3471 49.2189 35.9694 49.1072 37.2831C49.0299 38.1953 48.2333 38.7729 47.4031 38.7635C46.8925 38.7576 46.3818 38.7516 45.8713 38.7454ZM45.8713 31.2715C46.4681 31.265 47.0649 31.2585 47.6617 31.2522C48.2448 31.2521 48.781 31.8519 48.8418 32.5155C48.9442 33.6332 47.7709 34.1625 46.7765 34.1625H45.8713V31.2715ZM43.6359 30.0587C44.9447 30.042 46.2536 30.0255 47.5622 30.0089C50.6438 29.9705 52.8226 33.0024 49.2481 34.7057C52.7225 35.754 51.7925 39.9999 47.4578 39.9999H43.6359V30.0587ZM43.4639 23.2363C42.6483 26.2649 44.5824 29.3329 48.0546 29.1414C48.7948 29.1008 49.4623 28.9197 50.0619 28.6068C49.8431 28.2471 49.6241 27.8872 49.4053 27.5275C44.279 28.8676 44.0091 20.1583 49.4847 21.4658L50.2009 20.3094C47.2272 19.2998 44.3161 20.0719 43.4639 23.2363ZM72.0339 29.15V22.9538C72.0339 22.0458 71.7756 21.3259 71.2536 20.7945C70.7342 20.2656 70.0048 19.9998 69.0711 19.9998C68.4441 19.9998 67.8869 20.0966 67.3947 20.2876C66.9021 20.4815 66.528 20.6864 66.2724 20.9079C66.0247 20.6753 65.683 20.4676 65.247 20.2795C64.8111 20.094 64.2539 19.9998 63.576 19.9998C62.9865 19.9998 62.4214 20.0608 61.8833 20.1825C61.345 20.3043 60.8659 20.4566 60.446 20.6421V29.15H62.5425V21.7988C62.8574 21.6576 63.2475 21.5885 63.7104 21.5885C64.1597 21.5885 64.5151 21.702 64.7734 21.929C65.0317 22.1561 65.1609 22.466 65.1609 22.862V29.15H67.2895V22.0343C67.6044 21.7351 68.0188 21.5885 68.5329 21.5885C68.9552 21.5885 69.2891 21.7075 69.5368 21.9455C69.7815 22.1809 69.9053 22.5241 69.9053 22.9671V29.15H72.0339ZM56.935 24.4644C56.935 24.013 56.8904 23.598 56.8011 23.2126C56.7093 22.8297 56.5754 22.5008 56.3918 22.2235C56.2105 21.9485 55.9798 21.735 55.7016 21.5853C55.4207 21.4329 55.1006 21.3569 54.7359 21.3569C54.3657 21.3569 54.043 21.4329 53.7621 21.5853C53.484 21.735 53.2531 21.9485 53.072 22.2235C52.8884 22.5008 52.7544 22.8297 52.6627 23.2126C52.5736 23.598 52.5288 24.013 52.5288 24.4644C52.5288 24.9236 52.5736 25.3458 52.6627 25.7311C52.7544 26.1141 52.8884 26.443 53.072 26.718C53.2531 26.9953 53.484 27.2113 53.7621 27.3659C54.043 27.523 54.3657 27.5991 54.7359 27.5991C55.1006 27.5991 55.4207 27.523 55.7016 27.3659C55.9798 27.2113 56.2105 26.9953 56.3918 26.718C56.5754 26.443 56.7093 26.1141 56.8011 25.7311C56.8904 25.3458 56.935 24.9236 56.935 24.4644ZM59.1234 24.4794C59.1234 25.1439 59.0303 25.7613 58.8372 26.3316C58.6442 26.902 58.3646 27.3946 57.9985 27.8072C57.6325 28.2224 57.173 28.5493 56.6273 28.79C56.0815 29.031 55.4525 29.15 54.7368 29.15C54.0146 29.15 53.3823 29.031 52.8365 28.79C52.2906 28.5493 51.8315 28.2224 51.4653 27.8072C51.0992 27.3946 50.8196 26.902 50.6266 26.3316C50.4369 25.7613 50.3404 25.1439 50.3404 24.4794C50.3404 23.8148 50.4369 23.1976 50.6266 22.6327C50.8196 22.0679 51.0992 21.5807 51.4653 21.1654C51.8315 20.7528 52.2906 20.4263 52.8365 20.188C53.3823 19.95 54.0146 19.8309 54.7368 19.8309C55.4525 19.8309 56.0815 19.95 56.6273 20.188C57.173 20.4263 57.6325 20.7528 57.9985 21.1654C58.3646 21.5807 58.6442 22.0679 58.8372 22.6327C59.0303 23.1976 59.1234 23.8148 59.1234 24.4794Z" fill="#FABE13"/>
<defs>
<linearGradient id="paint0_linear_498_307" x1="84.5351" y1="14.5253" x2="80.9502" y2="10.5943" gradientUnits="userSpaceOnUse">
<stop stop-color="#60BAE2"/>
<stop offset="1" stop-color="#0062A3"/>
</linearGradient>
<linearGradient id="paint1_linear_498_307" x1="75.2558" y1="16.9113" x2="77.5765" y2="19.543" gradientUnits="userSpaceOnUse">
<stop stop-color="#60BCE2"/>
<stop offset="1" stop-color="#0062A3"/>
</linearGradient>
<linearGradient id="paint2_linear_498_307" x1="73.56" y1="24.4365" x2="90.9833" y2="24.4365" gradientUnits="userSpaceOnUse">
<stop stop-color="#FFDD55"/>
<stop offset="1" stop-color="#EE8822"/>
</linearGradient>
<linearGradient id="paint3_linear_498_307" x1="88.3837" y1="19.9198" x2="87.6862" y2="17.4285" gradientUnits="userSpaceOnUse">
<stop stop-color="#FFDD55"/>
<stop offset="1" stop-color="#EE8822"/>
</linearGradient>
</defs>
</svg>
