<svg width="48" height="48" viewBox="0 0 48 48" fill="none" xmlns="http://www.w3.org/2000/svg">
<path d="M23.9885 3C34.2525 3 43.0145 10.28 44.9795 20.229C45.0865 20.77 44.7345 21.296 44.1925 21.404C43.6505 21.511 43.1245 21.158 43.0175 20.616C41.2375 11.6 33.2925 5 23.9885 5C14.7235 5 6.80254 11.545 4.97854 20.511C4.86854 21.052 4.34154 21.401 3.80054 21.291C3.25954 21.181 2.90954 20.654 3.02054 20.112C5.03054 10.22 13.7675 3 23.9875 3H23.9885ZM42.9965 28.291C43.1065 27.751 43.6345 27.401 44.1765 27.511C44.7165 27.621 45.0665 28.149 44.9565 28.691C42.9415 38.581 34.2065 45.797 23.9885 45.797C13.7925 45.797 5.06954 38.611 3.03254 28.748C2.92054 28.208 3.26854 27.678 3.80954 27.566C4.35054 27.455 4.87954 27.803 4.99154 28.344C6.83754 37.282 14.7455 43.797 23.9885 43.797C33.2515 43.797 41.1705 37.255 42.9965 28.291Z" fill="#03CA77"/>
<path d="M39.6294 16.927C39.9474 16.529 40.5084 16.439 40.9324 16.699L41.0344 16.771L44.6244 19.641C45.0544 19.987 45.1244 20.616 44.7804 21.047C44.4624 21.445 43.9004 21.535 43.4774 21.276L43.3744 21.203L39.7854 18.333C39.3544 17.988 39.2844 17.358 39.6294 16.927ZM3.26445 27.882C3.60245 27.501 4.16745 27.439 4.57745 27.721L4.67645 27.798L8.04445 30.79C8.45745 31.157 8.49445 31.789 8.12845 32.202C7.78945 32.583 7.22545 32.644 6.81545 32.362L6.71645 32.285L3.34745 29.293C2.93445 28.927 2.89745 28.295 3.26445 27.882Z" fill="#03CA77"/>
<path d="M23.8807 38.306C31.5618 38.306 37.7887 32.0792 37.7887 24.398C37.7887 16.7168 31.5618 10.49 23.8807 10.49C16.1995 10.49 9.97266 16.7168 9.97266 24.398C9.97266 32.0792 16.1995 38.306 23.8807 38.306Z" fill="#03CA77"/>
<path d="M25.2836 29.852V30.967C25.2836 31.537 24.8266 32 24.2646 32H24.1096C23.5456 32 23.0896 31.537 23.0896 30.967V29.894C21.6576 29.607 20.5546 28.863 20.0696 27.751C19.8016 27.143 20.3486 26.569 21.0046 26.569C21.5816 26.569 22.0446 27.056 22.4606 27.462C22.8626 27.857 23.5076 28.084 24.3076 28.084C25.5146 28.084 26.3196 27.494 26.3196 26.61C26.3196 25.894 25.7566 25.473 24.4286 25.18L23.0186 24.842C21.0476 24.421 20.0406 23.327 20.0406 21.6C20.0406 19.873 21.3196 18.61 23.0906 18.19V17.033C23.0906 16.463 23.5456 16 24.1096 16H24.2646C24.8266 16 25.2836 16.463 25.2836 17.033V18.148C26.5756 18.462 27.6376 19.222 28.1276 20.271C28.4036 20.863 27.8716 21.431 27.2246 21.431C26.6606 21.431 26.2066 20.964 25.8206 20.546C25.4596 20.156 24.8976 19.916 24.2276 19.916C23.1406 19.916 22.3346 20.463 22.3346 21.348C22.3346 22.063 22.8586 22.442 24.1466 22.738L25.4746 23.031C27.6496 23.494 28.6146 24.506 28.6146 26.273C28.5746 28.169 27.2156 29.473 25.2836 29.853V29.852Z" fill="white"/>
</svg>
