<svg width="48" height="48" viewBox="0 0 48 48" fill="none" xmlns="http://www.w3.org/2000/svg">
<path fill-rule="evenodd" clip-rule="evenodd" d="M22.8889 32.497C22.8889 26.6964 27.8971 21.994 34.0751 21.994C35.007 21.994 35.9123 22.101 36.7778 22.3026V11.2901C30.8411 15.2378 26.2701 17.2229 22.8889 17.2229C19.5076 17.2229 14.9366 15.2378 9 11.2901V39.8702C9 41.5988 10.4924 43 12.3333 43H33.4444C33.5192 43 33.5934 42.9977 33.6669 42.9931C27.678 42.7915 22.8889 38.1694 22.8889 32.497ZM22.8889 14.9949C25.7717 14.9949 30.4764 12.7965 36.7778 8.3707L36.7778 8.16667C36.7778 6.41777 35.2854 5 33.4444 5H12.3333C10.4924 5 9 6.41777 9 8.16667V8.3707C15.3014 12.7965 20.0061 14.9949 22.8889 14.9949ZM42.2164 32.5C42.2164 37.1944 38.4108 41 33.7164 41C29.022 41 25.2164 37.1944 25.2164 32.5C25.2164 27.8056 29.022 24 33.7164 24C38.4108 24 42.2164 27.8056 42.2164 32.5ZM34.3886 38.613V37.0854C36.1101 36.7853 37.0563 35.6469 37.0563 34.3133C37.0563 32.9647 36.3374 32.1415 34.5556 31.5105C33.2805 31.0309 32.7554 30.7167 32.7554 30.2224C32.7554 29.8024 33.0696 29.3828 34.0453 29.3828C35.0325 29.3828 35.6931 29.6709 36.0977 29.8473C36.1349 29.8635 36.1699 29.8788 36.2028 29.8928L36.6359 28.199C36.1438 27.9598 35.4678 27.7505 34.4646 27.7061V26.3868H32.9954V27.8098C31.3943 28.1234 30.4642 29.1585 30.4642 30.4765C30.4642 31.9298 31.5587 32.6805 33.1636 33.2186C34.2705 33.5937 34.7498 33.9534 34.7498 34.5236C34.7498 35.1223 34.1665 35.4519 33.3125 35.4519C32.3389 35.4519 31.4543 35.1372 30.8259 34.7927L30.3765 36.5461C30.9439 36.8761 31.9193 37.1452 32.9224 37.1897V38.6132H34.3886V38.613Z" fill="#FF5630"/>
</svg>
