<svg width="48" height="48" viewBox="0 0 48 48" fill="none" xmlns="http://www.w3.org/2000/svg">
<path fill-rule="evenodd" clip-rule="evenodd" d="M34 4.007C37.971 4.007 39 6.012 39 8.989V26.999C37.33 25.745 35.253 25 33 25C27.477 25 23 29.477 23 35C23 37.16 23.684 39.159 24.848 40.793C24.208 41.13 23.371 41.054 22.822 40.567L20.667 38.656L18.512 40.567C17.862 41.144 16.806 41.144 16.155 40.567L14 38.656L11.845 40.567C11.369 40.99 10.652 41.117 10.029 40.887C9.406 40.66 9 40.12 9 39.522V8.989C9 6.005 9.922 4.007 13.898 4.007H34Z" fill="#03CA77"/>
<path d="M25.2836 21.852V22.967C25.2836 23.537 24.8266 24 24.2646 24H24.1096C23.5456 24 23.0896 23.537 23.0896 22.967V21.894C21.6576 21.607 20.5546 20.863 20.0696 19.751C19.8016 19.143 20.3486 18.569 21.0046 18.569C21.5816 18.569 22.0446 19.056 22.4606 19.462C22.8626 19.857 23.5076 20.084 24.3076 20.084C25.5146 20.084 26.3196 19.494 26.3196 18.61C26.3196 17.894 25.7566 17.473 24.4286 17.18L23.0186 16.842C21.0476 16.421 20.0406 15.327 20.0406 13.6C20.0406 11.873 21.3196 10.61 23.0906 10.19V9.033C23.0906 8.463 23.5456 8 24.1096 8H24.2646C24.8266 8 25.2836 8.463 25.2836 9.033V10.148C26.5756 10.462 27.6376 11.222 28.1276 12.271C28.4036 12.863 27.8716 13.431 27.2246 13.431C26.6606 13.431 26.2066 12.964 25.8206 12.546C25.4596 12.156 24.8976 11.916 24.2276 11.916C23.1406 11.916 22.3346 12.463 22.3346 13.348C22.3346 14.063 22.8586 14.442 24.1466 14.738L25.4746 15.031C27.6496 15.494 28.6146 16.506 28.6146 18.273C28.5746 20.169 27.2156 21.473 25.2836 21.853V21.852Z" fill="white"/>
<path fill-rule="evenodd" clip-rule="evenodd" d="M11.3849 31.325H13.2309C13.7409 31.325 14.1539 30.922 14.1539 30.425C14.1539 29.928 13.7409 29.525 13.2309 29.525H11.3849C10.8749 29.525 10.4619 29.928 10.4619 30.425C10.4619 30.922 10.8749 31.325 11.3849 31.325ZM17.8459 31.325H19.6919C20.2019 31.325 20.6149 30.922 20.6149 30.425C20.6149 29.928 20.2019 29.525 19.6919 29.525H17.8459C17.3359 29.525 16.9229 29.928 16.9229 30.425C16.9229 30.922 17.3359 31.325 17.8459 31.325ZM24.3079 31.325H26.1539C26.6639 31.325 27.0769 30.922 27.0769 30.425C27.0769 29.928 26.6639 29.525 26.1539 29.525H24.3079C23.7979 29.525 23.3849 29.928 23.3849 30.425C23.3849 30.922 23.7979 31.325 24.3079 31.325ZM30.7689 31.325H32.6149C33.1249 31.325 33.5379 30.922 33.5379 30.425C33.5379 29.928 33.1249 29.525 32.6149 29.525H30.7699C30.2599 29.525 29.8469 29.928 29.8469 30.425C29.8469 30.922 30.2599 31.325 30.7699 31.325H30.7689Z" fill="white"/>
<path d="M33 43C37.4183 43 41 39.4183 41 35C41 30.5817 37.4183 27 33 27C28.5817 27 25 30.5817 25 35C25 39.4183 28.5817 43 33 43Z" fill="#03CA77"/>
<path fill-rule="evenodd" clip-rule="evenodd" d="M31.218 35.61C31.896 35.61 32.522 35.833 33.028 36.209C33.721 36.726 34.186 37.532 34.243 38.449C34.247 38.512 34.249 38.576 34.249 38.64V39H28V38.64C28 36.967 29.357 35.61 31.03 35.61H31.218ZM31.124 31C32.161 31 33.004 31.894 33.004 32.993C33.004 34.093 32.161 34.986 31.124 34.986C30.088 34.986 29.244 34.092 29.244 32.993C29.245 31.894 30.089 31 31.125 31H31.124ZM35.477 35.027C37.033 35.027 38.299 36.293 38.299 37.848V38.449H34.847C34.825 38.026 34.731 37.615 34.567 37.226C34.383 36.793 34.121 36.404 33.787 36.071C33.675 35.958 33.556 35.853 33.43 35.757C33.931 35.304 34.594 35.027 35.321 35.027H35.477ZM35.398 31.285C36.282 31.285 37.005 32.043 37.013 32.98C37.017 33.432 36.855 33.86 36.558 34.184C36.255 34.514 35.848 34.697 35.414 34.701H35.4C34.97 34.701 34.565 34.524 34.26 34.203C33.957 33.883 33.789 33.459 33.785 33.006C33.781 32.554 33.943 32.126 34.24 31.802C34.543 31.472 34.95 31.289 35.384 31.285H35.398Z" fill="white"/>
</svg>
