<svg width="877" height="891" viewBox="0 0 877 891" fill="none" xmlns="http://www.w3.org/2000/svg">
<path d="M836.462 482.129L0 0.21814V757.859C40.6567 781.371 141.479 838.556 211.797 875.254C282.115 911.953 347.146 871.726 376.235 855.031C503.143 782.193 773.847 626.456 841.4 586.206C908.163 544.378 865.926 499.393 836.462 482.129Z" fill="#F2F7FF"/>
<circle cx="35.0312" cy="77.0311" r="4.03125" fill="#E6F0FF"/>
<circle cx="35.0312" cy="103.906" r="4.03125" fill="#E6F0FF"/>
<circle cx="35.0312" cy="128.094" r="4.03125" fill="#E6F0FF"/>
<circle cx="35.0312" cy="152.281" r="4.03125" fill="#E6F0FF"/>
<circle cx="35.0312" cy="176.469" r="4.03125" fill="#E6F0FF"/>
<circle cx="61.9062" cy="128.094" r="4.03125" fill="#E6F0FF"/>
<circle cx="61.9062" cy="154.969" r="4.03125" fill="#E6F0FF"/>
<circle cx="61.9062" cy="179.156" r="4.03125" fill="#E6F0FF"/>
<circle cx="61.9062" cy="203.344" r="4.03125" fill="#E6F0FF"/>
<circle cx="61.9062" cy="227.531" r="4.03125" fill="#E6F0FF"/>
<circle cx="61.9062" cy="249.031" r="4.03125" fill="#E6F0FF"/>
<circle cx="86.0938" cy="77.0311" r="4.03125" fill="#E6F0FF"/>
<circle cx="86.0938" cy="103.906" r="4.03125" fill="#E6F0FF"/>
<circle cx="86.0938" cy="128.094" r="4.03125" fill="#E6F0FF"/>
<circle cx="86.0938" cy="152.281" r="4.03125" fill="#E6F0FF"/>
<circle cx="86.0938" cy="176.469" r="4.03125" fill="#E6F0FF"/>
<circle cx="86.0938" cy="200.656" r="4.03125" fill="#E6F0FF"/>
<circle cx="112.969" cy="125.406" r="4.03125" fill="#E6F0FF"/>
<circle cx="112.969" cy="152.281" r="4.03125" fill="#E6F0FF"/>
<circle cx="112.969" cy="176.469" r="4.03125" fill="#E6F0FF"/>
<circle cx="112.969" cy="200.656" r="4.03125" fill="#E6F0FF"/>
<circle cx="112.969" cy="224.844" r="4.03125" fill="#E6F0FF"/>
</svg>
