<svg width="114" height="48" viewBox="0 0 114 48" fill="none" xmlns="http://www.w3.org/2000/svg">
<path d="M15.8971 15.741C11.3608 15.9382 7.8106 19.7842 8.00784 24.3699C8.20507 28.9062 12.1004 32.4564 16.6367 32.2592C21.2224 32.0619 24.7233 28.1666 24.526 23.6303C24.3288 19.0446 20.4828 15.5437 15.8971 15.741Z" fill="url(#paint0_radial_498_675)"/>
<path d="M15.9016 15.7407C11.3212 15.9836 7.81289 19.8217 8.0078 24.3886C8.2027 28.9556 12.1009 32.4536 16.6325 32.2593C21.2128 32.0649 24.7212 28.1782 24.5263 23.6599C24.3314 19.093 20.4819 15.5463 15.9016 15.7407ZM16.8761 23.757C18.3379 25.1174 19.1663 25.8462 19.1663 25.8462C21.7488 27.9839 20.8718 29.9758 19.8972 30.656C19.1663 31.1904 18.2892 31.4334 17.2172 31.4819C17.1198 31.4819 16.9249 31.4334 16.9249 31.2876C16.9249 31.0933 17.1685 31.0447 17.1685 31.0447C19.6048 30.5588 18.9227 28.9556 18.0456 28.1296C17.7045 27.7895 14.2936 24.8745 14.2936 24.8745C10.9801 22.0566 11.2725 19.9189 11.2725 19.9189C11.4187 17.2468 13.8063 16.5666 15.5605 16.7123C15.7554 16.7123 15.9016 16.8581 15.8529 17.0524C15.8041 17.2468 15.5605 17.2468 15.5605 17.2468C14.9758 17.2953 14.4885 17.3439 14.0987 17.5869C12.6856 18.5585 13.0754 20.2104 15.0245 22.008C15.2681 22.2509 15.5118 22.4939 15.8041 22.7368C15.7067 22.7368 16.0965 23.0283 16.8761 23.757ZM15.7554 30.7046C15.7554 30.9475 15.122 31.0933 14.391 30.9961C13.4652 30.8989 12.3932 30.6074 11.4187 29.7815C10.5903 29.0527 10.0543 28.0325 9.76197 27.1094C9.46961 26.1863 9.37215 25.0688 9.8107 25.166C9.95688 25.2146 10.2005 25.7976 10.4442 26.2348C10.6878 26.6721 10.9314 26.915 11.1263 27.1094C11.2238 27.1579 11.5161 26.4778 12.0034 26.0891C12.2471 25.8948 12.5394 25.7976 12.5881 26.4292C12.6369 27.2065 12.4907 28.1782 12.7343 28.1782C12.9292 28.1782 13.4652 28.0325 14.5372 27.9353C14.927 27.8867 15.1707 27.9839 14.7809 28.5183C14.586 28.8098 14.3423 29.1499 13.7089 29.5872C14.6347 30.4617 15.7554 30.3645 15.7554 30.7046ZM16.4863 22.3967C16.4376 22.1538 16.3889 21.8137 16.4376 21.3764C16.535 20.4533 16.7787 20.0646 17.071 19.3359C17.4609 18.3642 16.5838 17.8298 16.7299 17.4897C16.9249 17.0038 17.607 17.6354 18.2892 17.6354C18.9227 17.684 19.2638 17.6354 19.751 17.684C20.3845 17.7812 21.1641 17.9755 21.5052 18.4128C21.7976 18.8015 21.359 19.2387 20.7743 18.9472C20.3358 18.7529 19.7998 18.85 20.1408 19.2873C20.5307 19.7246 20.6768 19.7246 21.0667 19.8217C22.1387 20.1132 22.1387 21.0849 21.4078 21.6193C20.5794 22.2024 19.751 21.9594 19.4587 20.7934C19.3125 20.2104 18.8739 19.9189 18.4841 20.0646C18.0456 20.3076 18.3379 21.0849 18.6303 21.7651C19.2638 23.3684 17.7045 23.3198 17.5096 23.3198C16.6812 23.1255 16.4863 22.3967 16.4863 22.3967Z" fill="url(#paint1_radial_498_675)"/>
<path d="M29.1099 26.4168C29.7718 26.9463 30.8189 27.277 31.5469 27.277C32.4401 27.277 32.9806 26.8908 32.9806 26.1524C32.9806 25.5786 32.749 25.2143 32.0209 24.8515C31.182 24.4211 30.4994 24.156 29.8595 23.6161C29.2863 23.1092 28.8786 22.4911 28.8786 21.5761C28.8786 20.2971 29.9364 19.4045 31.7018 19.4045C32.6715 19.4045 33.4872 19.5584 34.2483 19.8895V21.2454C34.2483 21.4439 34.0603 21.5098 33.906 21.3777C33.2892 20.8596 32.6488 20.617 31.9212 20.617C31.1387 20.617 30.6975 20.981 30.6975 21.5761C30.6975 22.0061 30.8512 22.3042 31.1387 22.5355C31.6899 22.9873 32.3737 23.318 32.9805 23.6055C34.1268 24.1454 34.7996 24.7844 34.7996 26.1301C34.7996 27.8063 33.3764 28.5007 31.5687 28.5007C30.2343 28.5007 28.5474 27.8618 28.7685 27.3099L29.1099 26.4168Z" fill="#717271"/>
<path d="M35.7817 19.5208H37.6664V22.5974C38.1293 22.2004 38.7141 21.9579 39.4089 21.9579C40.7983 21.9579 41.7133 22.7629 41.7133 23.9317V28.3639H39.982V24.1629C39.982 23.5342 39.662 23.2479 38.9784 23.2479C38.5267 23.2479 38.1075 23.4461 37.6663 23.7659V28.3638H35.9355V20.6234C35.9355 20.2483 35.8799 20.0614 35.6588 19.8296C35.5275 19.6641 35.6161 19.5208 35.7817 19.5208Z" fill="#717271"/>
<path d="M44.966 22.1669V28.3641H43.2352V23.2586C43.2352 22.9057 43.1578 22.7186 42.9596 22.4873C42.827 22.3213 42.9157 22.1669 43.0701 22.1669H44.966ZM45.0329 20.2043C45.0329 20.7997 44.5917 21.2523 43.9852 21.2523C43.379 21.2523 42.9376 20.7997 42.9376 20.2043C42.9376 19.6092 43.379 19.1571 43.9852 19.1571C44.5916 19.1572 45.0329 19.6092 45.0329 20.2043Z" fill="#717271"/>
<path d="M46.3777 22.1671H48.2193V22.7739C48.6716 22.3327 49.2228 21.9577 49.9943 21.9577C51.3063 21.9577 52.3106 22.6965 52.3106 24.0525V28.3644H50.5787V24.2071C50.5787 23.5121 50.2706 23.2035 49.575 23.2035C49.0904 23.2035 48.6717 23.4022 48.2743 23.7553V28.3642H46.543V23.2809C46.543 22.9058 46.4772 22.7185 46.2684 22.487C46.1246 22.3216 46.2127 22.1671 46.3777 22.1671Z" fill="#717271"/>
<path d="M53.6224 19.5208H55.5082V22.5974C55.9709 22.2004 56.5552 21.9579 57.2495 21.9579C58.6396 21.9579 59.5547 22.7629 59.5547 23.9317V28.3639H57.8237V24.1629C57.8237 23.5342 57.5038 23.2479 56.819 23.2479C56.3681 23.2479 55.9487 23.4461 55.5081 23.7659V28.3638H53.7766V20.6234C53.7766 20.2483 53.7215 20.0614 53.5007 19.8296C53.3688 19.6641 53.4575 19.5208 53.6224 19.5208Z" fill="#717271"/>
<path d="M63.4807 23.1268C62.8079 23.1268 62.1014 23.4356 61.6061 23.7554C61.3638 23.9201 61.2195 23.8323 61.2195 23.5786V22.4207C61.8702 22.1344 62.852 21.9577 63.5907 21.9577C65.2995 21.9577 66.281 22.6194 66.281 23.9864V28.3641H64.5823V27.6916C64.0976 28.287 63.4032 28.5627 62.6646 28.5627C61.4295 28.5627 60.5801 27.7691 60.5801 26.5996C60.5801 25.277 61.4958 24.4499 63.4363 24.4499H64.5501V23.9864C64.5502 23.3801 64.1644 23.1268 63.4807 23.1268ZM64.5502 25.5963H63.4251C62.5763 25.5963 62.2458 25.9826 62.2458 26.567C62.2458 27.0521 62.5325 27.3828 63.0396 27.3828C63.6346 27.3828 64.1644 27.1069 64.5501 26.6658V25.5963H64.5502Z" fill="#717271"/>
<path d="M67.561 22.1671H69.4019V22.7739C69.8546 22.3327 70.406 21.9577 71.1774 21.9577C72.4894 21.9577 73.4932 22.6965 73.4932 24.0525V28.3644H71.7612V24.2071C71.7612 23.5121 71.4526 23.2035 70.7575 23.2035C70.2724 23.2035 69.8546 23.4022 69.4568 23.7553V28.3642H67.7259V23.2809C67.7259 22.9058 67.6602 22.7185 67.4508 22.487C67.3072 22.3216 67.3952 22.1671 67.561 22.1671Z" fill="#717271"/>
<path d="M78.2566 19.7633H81.2892C83.0977 19.7633 84.2442 20.5901 84.2442 21.9247C84.2442 22.7628 83.9135 23.3797 83.2736 23.7659C84.1667 24.1077 84.7069 24.758 84.7069 25.9048C84.7069 27.5261 83.3953 28.3638 81.4216 28.3638H78.4222V20.8776C78.4222 20.5021 78.3558 20.3147 78.1459 20.0833C78.014 19.9177 78.1021 19.7633 78.2566 19.7633ZM80.2195 23.2702H81.1675C81.9942 23.2702 82.4465 22.961 82.4465 22.1342C82.4465 21.2966 81.9942 20.9872 81.1346 20.9872H80.2193V23.2702H80.2195ZM82.8547 25.806C82.8547 24.8906 82.3472 24.4941 81.3111 24.4941H80.2196V27.14H81.3222C82.3585 27.14 82.8547 26.7318 82.8547 25.806Z" fill="#717271"/>
<path d="M88.324 23.1268C87.6516 23.1268 86.9458 23.4356 86.4495 23.7554C86.207 23.9201 86.0633 23.8323 86.0633 23.5786V22.4207C86.714 22.1344 87.6953 21.9577 88.4339 21.9577C90.1429 21.9577 91.1243 22.6194 91.1243 23.9864V28.3641H89.4266V27.6916C88.9415 28.287 88.247 28.5627 87.5078 28.5627C86.2733 28.5627 85.4245 27.7691 85.4245 26.5996C85.4245 25.277 86.3392 24.4499 88.2796 24.4499H89.3937V23.9864C89.3937 23.3801 89.0077 23.1268 88.324 23.1268ZM89.3937 25.5963H88.269C87.4201 25.5963 87.0891 25.9826 87.0891 26.567C87.0891 27.0521 87.3758 27.3828 87.8833 27.3828C88.4779 27.3828 89.0077 27.1069 89.3935 26.6658V25.5963H89.3937Z" fill="#717271"/>
<path d="M92.4043 22.1671H94.245V22.7739C94.6975 22.3327 95.2492 21.9577 96.0207 21.9577C97.3326 21.9577 98.3362 22.6965 98.3362 24.0525V28.3644H96.6054V24.2071C96.6054 23.5121 96.2968 23.2035 95.6014 23.2035C95.1168 23.2035 94.6975 23.4022 94.3004 23.7553V28.3642H92.5693V23.2809C92.5693 22.9058 92.5034 22.7185 92.2942 22.487C92.1505 22.3216 92.2391 22.1671 92.4043 22.1671Z" fill="#717271"/>
<path d="M99.8034 28.364V20.6234C99.8034 20.2487 99.7483 20.061 99.5266 19.8298C99.3949 19.6642 99.4833 19.5211 99.649 19.5211H101.534V24.5932L103.729 22.1674H105.713L103.343 24.8138L106 28.3639H104.092L102.185 25.7725C101.987 25.4969 101.898 25.4531 101.689 25.4531H101.534V28.364H99.8034Z" fill="#717271"/>
<defs>
<radialGradient id="paint0_radial_498_675" cx="0" cy="0" r="1" gradientUnits="userSpaceOnUse" gradientTransform="translate(17.7939 21.7555) scale(7.85863)">
<stop stop-color="white"/>
<stop offset="1" stop-color="#CF9C51"/>
</radialGradient>
<radialGradient id="paint1_radial_498_675" cx="0" cy="0" r="1" gradientUnits="userSpaceOnUse" gradientTransform="translate(17.2825 21.5669) scale(17.3637 17.3128)">
<stop stop-color="#00C0F3"/>
<stop offset="0.2191" stop-color="#0097D6"/>
<stop offset="0.2202" stop-color="#0097D6"/>
<stop offset="0.2835" stop-color="#0084C8"/>
<stop offset="0.3487" stop-color="#0076BE"/>
<stop offset="0.4169" stop-color="#006DB8"/>
<stop offset="0.4893" stop-color="#0068B4"/>
<stop offset="0.573" stop-color="#0066B3"/>
</radialGradient>
</defs>
</svg>
