<svg width="114" height="48" viewBox="0 0 114 48" fill="none" xmlns="http://www.w3.org/2000/svg">
<path d="M85.9193 24.2119C88.1511 21.9765 90.3848 19.7428 92.6203 17.5109C93.7291 18.6055 94.8112 19.7295 95.9378 20.8071C95.9244 20.8516 95.8977 20.9407 95.8844 20.9852C94.788 22.0442 93.7246 23.1378 92.6434 24.2119C93.7433 25.3012 94.8201 26.4153 95.9378 27.4876C95.9244 27.5313 95.8986 27.6203 95.8853 27.6649C95.4337 28.0808 95.0133 28.5279 94.5752 28.958C93.9482 29.6144 93.2562 30.2129 92.6764 30.9129H92.557C92.4938 30.8159 92.4261 30.7215 92.3486 30.6386C90.2031 28.4994 88.063 26.353 85.9193 24.2119Z" fill="#E01F26"/>
<path d="M96.0331 20.7857C97.1125 19.684 98.2107 18.601 99.3008 17.51C101.532 19.7464 103.77 21.9756 106 24.2128C104.313 25.8987 102.627 27.5856 100.941 29.2715C100.415 29.8246 99.8316 30.3251 99.3453 30.9129H99.2376C99.0532 30.6146 98.7718 30.3981 98.534 30.147C97.7084 29.3107 96.8623 28.4949 96.0491 27.6461L95.9957 27.6907C95.9948 27.582 95.9948 27.4725 95.9966 27.3647L96.034 27.4644C97.1045 26.3699 98.1982 25.2976 99.2767 24.2101C98.2044 23.1271 97.1108 22.0637 96.0509 20.9692L95.9975 21.0119C95.9957 20.9024 95.9948 20.7928 95.9948 20.6833L96.0331 20.7857Z" fill="#E01F26"/>
<path d="M20.2709 21.1838C21.3263 20.5274 22.7246 20.5595 23.8129 21.1224C23.8013 21.7796 23.8129 22.4378 23.8076 23.096C23.5466 22.8938 23.3204 22.6391 23.0167 22.4984C22.4494 22.2116 21.72 22.2757 21.2159 22.664C20.2807 23.4059 20.2834 25.0598 21.256 25.7705C21.8108 26.1855 22.6266 26.1882 23.2002 25.807C23.4264 25.6627 23.6116 25.465 23.8076 25.2824C23.8111 25.9549 23.8058 26.6264 23.8102 27.2979C22.8911 27.7503 21.7912 27.8545 20.8222 27.5019C20.0269 27.1928 19.3607 26.5649 19.0063 25.7874C18.6767 25.0705 18.6206 24.2502 18.7417 23.478C18.8931 22.5402 19.4783 21.6968 20.2709 21.1838Z" fill="#E01F26"/>
<path d="M33.9678 20.9834C34.9759 20.539 36.1622 20.6361 37.1428 21.109C37.1464 21.7868 37.149 22.4645 37.141 23.1423C36.8329 22.8279 36.4998 22.5055 36.0607 22.3897C35.3963 22.1876 34.6045 22.4271 34.2109 23.0114C33.6765 23.7818 33.7184 24.9538 34.4042 25.6218C34.8459 26.0653 35.5486 26.1936 36.1346 25.9967C36.5327 25.8596 36.8489 25.571 37.141 25.278C37.1508 25.9478 37.141 26.6175 37.1473 27.2881C36.2121 27.7637 35.0757 27.8572 34.0915 27.4796C33.3229 27.1626 32.6764 26.5498 32.3352 25.7901C31.9977 25.0518 31.9318 24.2057 32.0796 23.4131C32.2738 22.3648 33.0005 21.4305 33.9678 20.9834Z" fill="#E01F26"/>
<path d="M40.5521 20.8115C41.4623 20.5951 42.4598 20.718 43.2694 21.1963C44.1466 21.6986 44.7923 22.599 44.9562 23.6C45.0916 24.4034 44.9651 25.2593 44.5456 25.9637C43.9881 26.9265 42.9496 27.5766 41.8497 27.6995C40.6643 27.8509 39.4255 27.3522 38.6631 26.4349C37.6594 25.2824 37.5935 23.4451 38.4885 22.2116C38.9837 21.5231 39.7265 21.0119 40.5521 20.8115ZM40.9885 22.3247C40.5031 22.4485 40.113 22.827 39.9037 23.2732C39.5323 24.0917 39.6632 25.1835 40.3677 25.7856C40.9742 26.3048 41.9708 26.2897 42.5489 25.7339C43.4101 24.9395 43.3762 23.3854 42.4731 22.6355C42.0697 22.2899 41.4952 22.1937 40.9885 22.3247Z" fill="#E01F26"/>
<path d="M8 20.8489C9.60311 20.8489 11.2062 20.8489 12.8093 20.8489C12.8093 21.3833 12.8093 21.9177 12.8093 22.452C12.3115 22.452 11.8145 22.4512 11.3167 22.4529C11.3176 24.1522 11.3176 25.8515 11.3167 27.5499C10.7084 27.5508 10.101 27.5508 9.49268 27.5499C9.49178 25.8515 9.49089 24.1522 9.49268 22.4529C8.99482 22.4512 8.49786 22.452 8 22.452V20.8489Z" fill="#E01F26"/>
<path d="M13.6786 20.8489C15.051 20.8489 16.4244 20.8489 17.7968 20.8489C17.7959 21.3468 17.7977 21.8438 17.795 22.3416C17.0237 22.3398 16.2525 22.3407 15.4812 22.3407C15.4812 22.7183 15.4821 23.096 15.4803 23.4736C16.207 23.4798 16.9347 23.4745 17.6623 23.4763C17.6605 23.9608 17.6721 24.4453 17.6543 24.9289C16.9302 24.9164 16.2062 24.9262 15.4812 24.9235C15.4812 25.294 15.4812 25.6654 15.4812 26.0368C16.2525 26.0377 17.0237 26.0377 17.7959 26.0359C17.7977 26.5409 17.7968 27.045 17.7968 27.5499C16.4244 27.5508 15.051 27.5508 13.6786 27.5499C13.6777 25.3163 13.6777 23.0826 13.6786 20.8489Z" fill="#E01F26"/>
<path d="M24.8113 20.8489C25.4267 20.8489 26.0421 20.8489 26.6576 20.8489C26.6611 21.7182 26.654 22.5865 26.662 23.4558C27.4618 23.4531 28.2607 23.454 29.0604 23.4549C29.0667 22.5865 29.0604 21.7173 29.064 20.8489C29.6723 20.8489 30.2806 20.8489 30.8889 20.8489C30.8889 23.0826 30.8889 25.3172 30.8889 27.5508C30.2806 27.5508 29.6723 27.5508 29.064 27.5508C29.0622 26.6451 29.064 25.7402 29.0622 24.8345C28.2624 24.8327 27.4627 24.8371 26.6629 24.8327C26.6522 25.7384 26.662 26.6442 26.6584 27.5499C26.0421 27.5508 25.4267 27.5508 24.8113 27.5499C24.8095 25.3163 24.8104 23.0826 24.8113 20.8489Z" fill="#E01F26"/>
<path d="M46.7018 20.8757C47.2967 20.8115 47.9122 20.8677 48.5151 20.8489C48.9194 22.249 49.3487 23.6419 49.7344 25.0473C50.0746 23.6312 50.5484 22.2508 50.9403 20.8489C51.5441 20.8472 52.1479 20.8525 52.7527 20.8463C53.1071 23.0791 53.4447 25.3145 53.7867 27.55C53.2149 27.5508 52.6422 27.5517 52.0696 27.55C51.8772 26.1428 51.6697 24.7383 51.5281 23.3258C51.2003 24.7516 50.7363 26.1437 50.3382 27.5517C49.9303 27.55 49.5233 27.5508 49.1163 27.5508C48.7707 26.3574 48.4198 25.1658 48.0778 23.9715C48.0137 23.7595 47.9807 23.5395 47.9424 23.3222C47.759 24.7205 47.5915 26.1223 47.3787 27.5161C46.822 27.598 46.2351 27.5277 45.666 27.55C46.0125 25.3252 46.3482 23.0986 46.7018 20.8757Z" fill="#E01F26"/>
<path d="M54.7369 20.8712C55.575 20.8721 56.4131 20.8703 57.2511 20.8721C57.9245 20.8917 58.6752 20.9149 59.2069 21.3851C59.6888 21.7912 59.7716 22.4993 59.6122 23.0773C59.4723 23.5511 59.0039 23.8013 58.5648 23.9403C59.1081 24.0071 59.6371 24.325 59.8464 24.8496C60.1198 25.5505 60.0201 26.4465 59.4572 26.98C58.93 27.4493 58.1863 27.509 57.5139 27.5402C56.5876 27.5642 55.6614 27.5455 54.736 27.55C54.7352 25.3234 54.7334 23.0978 54.7369 20.8712ZM56.4514 22.2054C56.4478 22.6435 56.4496 23.0817 56.4496 23.5199C56.8334 23.5155 57.2316 23.5591 57.6012 23.4291C58.0661 23.283 58.0865 22.5126 57.6466 22.322C57.2663 22.176 56.8504 22.2116 56.4514 22.2054ZM56.4496 24.7463C56.4496 25.221 56.4469 25.6966 56.4523 26.1722C56.9163 26.1579 57.3972 26.2203 57.8443 26.0671C58.3911 25.9103 58.3689 24.9805 57.8318 24.8282C57.3838 24.692 56.91 24.7597 56.4496 24.7463Z" fill="#231F20"/>
<path d="M62.5788 20.8676C63.3447 20.8774 64.1116 20.8676 64.8775 20.873C65.647 23.0986 66.4138 25.3252 67.186 27.5499C66.5715 27.5499 65.9569 27.5553 65.3433 27.5472C65.2337 27.1474 65.1189 26.7484 65.0084 26.3494C64.1534 26.352 63.2984 26.3387 62.4443 26.3565C62.3357 26.759 62.2252 27.1616 62.0908 27.5562C61.4834 27.5446 60.876 27.5553 60.2686 27.549C61.0407 25.3225 61.8004 23.0915 62.5788 20.8676ZM63.7224 22.0602C63.4783 23.0648 63.1417 24.0427 62.8522 25.033C63.4409 25.0366 64.0305 25.0339 64.6201 25.0348C64.3137 24.0453 64.0011 23.0576 63.7224 22.0602Z" fill="#231F20"/>
<path d="M67.7827 20.8721C68.3438 20.8738 68.9058 20.8667 69.4669 20.873C69.588 20.8445 69.6361 20.9754 69.7029 21.0457C70.4661 22.0913 71.2347 23.1333 72.0007 24.1771C72.2634 24.5352 72.4371 24.9449 72.6393 25.3376C72.503 23.853 72.5956 22.3585 72.5725 20.8694C73.1576 20.873 73.7427 20.8703 74.3288 20.8721C74.3314 23.0942 74.3225 25.3171 74.3332 27.5401C73.7427 27.5633 73.1514 27.5464 72.5618 27.5499C71.8947 26.6397 71.2285 25.7286 70.5632 24.8175C70.1304 24.2805 69.7768 23.69 69.4856 23.0657C69.6414 24.5548 69.5319 26.0555 69.5631 27.5499C68.9753 27.5268 68.3581 27.5998 67.7898 27.5161C67.7729 25.302 67.7881 23.0861 67.7827 20.8721Z" fill="#231F20"/>
<path d="M75.7644 20.8774C76.3611 20.8587 76.9587 20.8792 77.5555 20.8703C77.5608 21.866 77.5519 22.8617 77.5599 23.8583C78.251 22.8626 78.9493 21.8723 79.6377 20.8748C80.3556 20.8685 81.0734 20.8703 81.7921 20.8739C80.9808 21.9676 80.1427 23.0416 79.3331 24.1362C80.23 25.27 81.1242 26.4055 82.0077 27.5491C81.2391 27.5517 80.4696 27.5517 79.701 27.5491C78.992 26.5614 78.2778 25.5781 77.559 24.5976C77.5546 25.5817 77.559 26.5658 77.5563 27.5508C76.9481 27.5508 76.3398 27.5517 75.7324 27.55C75.7341 25.3368 75.7243 23.1218 75.7368 20.9086L75.7644 20.8774Z" fill="#231F20"/>
</svg>
