<svg width="32" height="32" viewBox="0 0 32 32" fill="none" xmlns="http://www.w3.org/2000/svg">
<path fill-rule="evenodd" clip-rule="evenodd" d="M16.0001 29.3332C23.3639 29.3332 29.3334 23.3636 29.3334 15.9998C29.3334 8.63604 23.3639 2.6665 16.0001 2.6665C8.63628 2.6665 2.66675 8.63604 2.66675 15.9998C2.66675 23.3636 8.63628 29.3332 16.0001 29.3332ZM22.7072 13.3736C23.0977 12.9831 23.0977 12.3499 22.7072 11.9594C22.3167 11.5689 21.6835 11.5689 21.293 11.9594L14.4281 18.8243L10.7072 15.1034C10.3167 14.7129 9.6835 14.7129 9.29297 15.1034C8.90245 15.494 8.90245 16.1271 9.29297 16.5177L13.7209 20.9456C13.9085 21.1332 14.1628 21.2385 14.4281 21.2385C14.6933 21.2385 14.9476 21.1332 15.1352 20.9456L22.7072 13.3736Z" fill="#03CA77"/>
</svg>
