<svg id="USBNavigation__Logo" version="1.1" xmlns="http://www.w3.org/2000/svg" xmlns:xlink="http://www.w3.org/1999/xlink" x="0" y="0" width="228.5" height="60.1" viewBox="0 0 228.5 60.1" enable-background="new 0 0 228.5 60.1" perspectiveAspectRatio="xMidyMid slice">
  <path fill="#D62A43" d="M2.9 2.5v43.3l36.7 12.4 36.6-12.4V2.5z"/>
  <path fill="#FFFFFF" d="M39.5 44.4H28.3v-3.9h-.1c-2.2 3.1-5.3 4.6-9.9 4.6-5.5 0-10.4-3.3-10.4-10.3V13.9h11.6v16c0 3.5.4 6 3.8 6 2 0 4.6-1 4.6-5.9V13.9h11.6v30.5zm21.7-21.6c-.1-1-.6-1.8-1.4-2.3-.7-.6-1.6-.9-2.6-.9-1.6 0-3.5.4-3.5 2.3 0 .9.7 1.3 1.4 1.6 1.9.8 6.3 1.1 10.2 2.3 3.9 1.2 7.3 3.5 7.3 8.5 0 8.5-8.1 10.7-15.5 10.7-7.2 0-15-2.9-15.2-10.7H53c.1 1.1.5 1.9 1.4 2.7.6.5 1.7.9 3.1.9 1.5 0 3.9-.6 3.9-2.3 0-1.8-1-2.3-6.4-3.2-8.9-1.5-12.4-4.3-12.4-9.6 0-7.7 8.3-9.7 14.4-9.7 6.6 0 14.5 1.8 14.8 9.6H61.2z"/>
  <path fill="#1B3281" d="M80.4 2.5H92v14.8h.1c1.8-2.6 4.9-4.1 8.3-4.1 10.2 0 13 8.7 13 15.8 0 7.6-4.2 16.1-12.8 16.1-5.7 0-7.5-2.2-8.9-4.1h-.1v3.3H80.4V2.5zm16.3 19.1c-4.2 0-5.1 3.9-5.1 7.5s.9 7.6 5.1 7.6c4.2 0 5.1-3.9 5.1-7.6 0-3.5-1-7.5-5.1-7.5zm49.1 16c0 2.3.1 4.9 1.4 6.8h-11.9c-.3-.8-.5-2.1-.4-2.9h-.1c-2.5 2.8-6 3.6-9.8 3.6-5.9 0-10.7-2.8-10.7-9.2 0-9.6 11.3-9.3 17.2-10.4 1.6-.3 3.2-.8 3.2-2.7 0-2.1-1.9-2.8-3.8-2.8-3.6 0-4.3 1.8-4.3 3.1h-10.8c.4-8.6 8.5-10 15.7-10 14.6 0 14.4 6 14.4 11.9v12.6zm-11.1-6.9c-1.4.7-3 1.1-4.6 1.5-2.6.6-3.9 1.2-3.9 3.3 0 1.4 1.5 2.8 3.6 2.8 2.6 0 4.7-1.6 4.9-4.8v-2.8zM150 13.9h11.2v3.9h.1c2.2-3.1 5.3-4.6 9.9-4.6 5.5 0 10.5 3.3 10.5 10.3v20.9H170v-16c0-3.5-.4-6-3.8-6-2 0-4.6 1-4.6 5.9v16.1H150V13.9zm35.8-11.4h11.6v20.2l7.4-8.8h13.1L207 25.4l12.6 19h-14l-6.2-11-2.1 2.2v8.8h-11.6V2.5zm39 37.7c.4.4.7 1 .7 1.6 0 .6-.2 1.2-.7 1.6-.4.4-1 .7-1.6.7s-1.2-.2-1.6-.7c-.4-.4-.7-1-.7-1.6 0-.6.2-1.2.7-1.6.4-.4 1-.7 1.6-.7.6.1 1.2.3 1.6.7zm.3-.2c-.5-.5-1.1-.8-1.9-.8-.7 0-1.3.3-1.9.8-.5.5-.8 1.1-.8 1.9 0 .7.3 1.4.8 1.9s1.1.8 1.9.8c.7 0 1.3-.3 1.9-.8.5-.5.8-1.1.8-1.9-.1-.8-.3-1.4-.8-1.9zm-1.5 1.7c-.1 0-.3.1-.5.1h-.5v-1h.4c.3 0 .5 0 .6.1.1.1.2.2.2.4.1.2 0 .3-.2.4zm-1.5 1.6h.5v-1.1h.4c.3 0 .5 0 .6.1.2.1.3.3.3.7v.3h.5V42.7c0-.1-.1-.3-.2-.4-.1-.2-.3-.2-.5-.3.2 0 .3-.1.4-.1.2-.1.3-.3.3-.6 0-.4-.1-.6-.4-.7-.2-.1-.4-.1-.8-.1h-1v2.8z"/>
</svg>