<svg width="114" height="48" viewBox="0 0 114 48" fill="none" xmlns="http://www.w3.org/2000/svg">
<path fill-rule="evenodd" clip-rule="evenodd" d="M80.7139 7.48662C83.026 7.22238 89.4485 6.42966 91.5037 7.48662C92.2744 7.75086 92.2744 8.27934 92.0175 8.80783C92.2744 8.54358 92.5313 8.0151 92.5313 7.48662C93.0451 6.6939 93.302 5.63694 93.5589 4.57998C93.8158 3.25878 93.8158 2.20182 92.5313 1.40909C90.7533 0.352133 83.8151 -0.509445 80.7139 0.352133C79.1725 0.616373 78.6587 1.40909 78.6587 2.20182C79.1725 3.78726 79.9432 6.16542 80.7139 7.48662Z" fill="url(#paint0_linear_524_98)"/>
<path fill-rule="evenodd" clip-rule="evenodd" d="M80.9708 0.352112C79.4294 0.616352 78.9156 1.40907 78.9156 2.20179C78.9156 3.523 80.457 6.1654 81.2277 7.4866C82.5122 9.60052 83.7967 11.4502 85.595 13.0357C86.8795 14.3569 87.6502 14.6211 89.1916 12.7714C90.4761 11.186 91.5037 9.60052 92.5313 7.4866C93.0451 6.69388 93.302 5.63692 93.5589 4.57996C93.8158 3.25876 93.8158 2.20179 92.5313 1.40907C93.8158 1.93755 94.0727 2.99452 94.3296 4.31572C94.3296 5.37268 94.0727 6.69388 93.8158 7.4866C93.302 9.86477 92.2744 11.9787 91.2468 14.0926C90.4761 15.6781 89.4485 17.5277 88.4209 18.8489C86.3657 22.0198 84.0536 20.9629 81.7415 18.8489C80.2001 17.5277 78.6587 15.9423 77.3742 14.0926C76.0897 12.2429 74.5483 9.60052 73.7776 7.4866C72.75 4.57996 73.5207 3.25876 75.0621 2.20179C76.6035 1.14483 78.9156 0.616352 80.9708 0.352112Z" fill="url(#paint1_linear_524_98)"/>
<path fill-rule="evenodd" clip-rule="evenodd" d="M74.997 31.7371C76.3107 31.4742 77.0988 30.9484 77.6243 29.1081C77.887 28.0565 77.887 25.9533 77.3616 24.9017C77.0988 24.376 77.0988 23.8502 76.5734 23.5873C76.0479 23.0615 75.2597 23.0615 74.7343 23.0615C73.6834 23.0615 73.4206 23.0615 72.6324 23.8502C72.6324 23.8502 72.3697 24.1131 72.3697 23.8502V19.9067H70.2679V30.9484C71.3188 31.7371 73.6834 31.7371 74.997 31.7371ZM16.9337 31.4742C17.4591 31.4742 17.1964 31.4742 17.4591 31.2113C19.2982 28.5823 21.1373 23.0615 21.1373 20.1696C20.3491 20.1696 19.2982 20.1696 18.51 20.4325C17.7218 25.4275 16.9337 26.742 15.62 29.371C14.3064 26.742 13.5182 25.4275 12.73 20.4325C11.9418 20.1696 10.8909 20.1696 10.1027 20.1696C10.1027 23.3244 11.9418 28.5823 13.7809 31.2113C14.0436 31.4742 14.0436 31.4742 14.3064 31.4742H16.9337ZM78.938 23.5873L79.2007 25.4275C79.9889 25.4275 80.7771 25.1646 81.5653 25.1646C82.8789 25.1646 83.6671 25.1646 83.6671 25.9533C82.6162 25.9533 81.5653 25.9533 80.5143 25.9533C79.2007 25.9533 78.1498 26.4791 78.4125 29.1081C78.6752 32.2629 82.3534 32 83.9298 30.6855V31.4742H85.7689C85.7689 28.3194 86.0317 24.9017 85.5062 24.1131C84.718 22.5357 81.0398 23.0615 78.938 23.5873ZM32.9602 31.2113C32.9602 30.6855 32.6975 29.8968 32.6975 29.371C31.9093 29.6339 30.3329 29.6339 29.282 29.6339C28.2311 29.6339 27.9683 29.1081 27.9683 27.5307C28.2311 27.7936 28.7565 28.0565 29.282 28.0565C30.5956 28.0565 31.9093 28.0565 33.2229 28.0565C33.2229 25.6904 33.4857 23.5873 31.1211 23.0615C30.0702 22.7986 28.7565 22.7986 27.9683 23.0615C26.9174 23.3244 26.3919 23.8502 26.1292 24.9017C25.6038 27.0049 25.6038 29.8968 26.9174 30.9484C28.2311 32.2629 31.1211 31.7371 32.9602 31.2113ZM29.0192 24.9017H30.0702C30.5956 24.9017 31.1211 25.4275 31.1211 25.9533V26.4791H27.9683V25.9533C27.9683 25.4275 28.4938 24.9017 29.0192 24.9017ZM98.1173 31.4742V27.7936C98.1173 27.5307 98.38 27.7936 98.38 28.0565C99.1682 29.371 99.6936 30.1597 100.745 31.2113C101.007 31.4742 101.007 31.4742 101.533 31.4742H103.897C102.321 30.1597 101.27 29.1081 100.482 27.2678C100.219 27.0049 100.219 27.0049 100.482 26.4791C100.745 26.2162 101.27 25.6904 101.795 25.1646L103.635 22.7986H101.533C101.27 22.7986 101.27 22.7986 101.007 23.0615C100.219 23.8502 99.4309 24.9017 98.6427 25.6904L98.38 25.9533C98.1172 26.2162 98.1173 26.2162 98.1173 25.6904V19.6438H96.0154V31.2113H98.1173V31.4742ZM47.4103 31.2113L47.1476 29.371C46.0967 29.371 45.0458 29.6339 43.9949 29.6339C42.9439 29.6339 42.9439 28.8452 42.6812 28.0565C42.6812 27.5307 42.6812 27.0049 42.6812 26.4791C42.6812 25.6904 42.9439 25.4275 43.7321 25.1646C44.783 25.1646 45.834 25.4275 46.8849 25.4275L47.1476 23.5873C43.4694 22.7986 41.1048 23.0615 40.5794 25.9533C40.5794 26.4791 40.5794 28.5823 40.5794 29.1081C41.3676 31.7371 43.7321 32 47.4103 31.2113ZM35.5875 23.0615C35.062 23.0615 34.7993 23.0615 34.2738 23.0615C34.2738 23.8502 34.2738 24.376 34.2738 25.1646C34.7993 25.1646 35.062 25.1646 35.5875 25.1646C35.5875 25.9533 35.5875 26.4791 35.5875 27.2678C35.5875 28.0565 35.5875 28.5823 35.5875 29.371C35.5875 30.1597 35.8502 30.9484 36.113 31.4742C36.3757 31.7371 36.6384 31.7371 36.9011 31.7371C37.6893 31.7371 38.7403 31.7371 39.5284 31.4742C39.5284 30.9484 39.5284 30.4226 39.5284 29.6339C38.7403 29.6339 37.6893 29.8968 37.6893 29.371C37.6893 27.7936 37.6893 26.4791 37.6893 25.1646C38.4775 25.1646 39.003 25.1646 39.7912 25.1646C39.7912 24.376 39.7912 23.8502 39.7912 23.0615C39.003 23.0615 38.4775 23.0615 37.6893 23.0615C37.6893 22.2728 37.6893 21.747 37.6893 20.9583C36.9011 20.9583 36.113 20.9583 35.5875 20.9583C35.5875 21.747 35.5875 22.5357 35.5875 23.0615ZM22.1883 31.4742H24.2901V23.0615H22.1883V31.4742ZM51.3513 23.0615H53.1904C54.7668 23.0615 55.8177 24.376 55.8177 25.6904V28.8452C55.8177 30.4226 54.5041 31.4742 53.1904 31.4742H51.3513C49.7749 31.4742 48.724 30.1597 48.724 28.8452V25.6904C48.4613 24.1131 49.7749 23.0615 51.3513 23.0615ZM51.614 24.9017C51.0886 24.9017 50.5631 25.4275 50.5631 25.9533V28.5823C50.5631 29.1081 51.0886 29.6339 51.614 29.6339H52.6649C53.1904 29.6339 53.7159 29.1081 53.7159 28.5823V25.9533C53.7159 25.4275 53.1904 24.9017 52.6649 24.9017H51.614ZM59.4959 31.4742C59.4959 29.371 59.4959 27.2678 59.4959 25.1646C60.0214 25.1646 60.5469 25.1646 61.0723 25.1646C61.5978 25.1646 61.8605 25.4275 61.8605 25.9533V26.2162V31.7371H63.9623V25.1646C64.4878 25.1646 65.0133 25.1646 65.8014 25.1646C66.3269 25.1646 66.5896 25.4275 66.5896 25.9533V31.7371H68.6915V25.6904C68.6915 24.376 67.9033 23.3244 66.5896 23.3244C66.0642 23.3244 65.5387 23.3244 65.276 23.3244C64.4878 23.3244 64.2251 23.5873 63.6996 23.8502C63.4369 24.1131 63.4369 24.1131 63.1742 23.8502C62.6487 23.3244 62.1232 23.3244 61.5978 23.3244C61.335 23.3244 61.0723 23.3244 60.5469 23.3244C60.0214 23.3244 59.4959 23.5873 59.2332 24.1131C58.9705 24.376 58.9705 24.6389 58.9705 24.1131C58.9705 23.8502 58.9705 23.8502 58.9705 23.5873C58.445 23.5873 57.6568 23.5873 57.1314 23.5873C57.1314 26.4791 57.1314 29.1081 57.1314 32H59.4959V31.4742ZM89.7099 31.4742C89.7099 29.371 89.7099 27.2678 89.7099 25.1646C90.2354 25.1646 90.7608 25.1646 91.2863 25.1646C91.8117 25.1646 92.0745 25.4275 92.0745 25.9533C92.0745 27.7936 92.0745 29.6339 92.0745 31.7371C92.8627 31.7371 93.6508 31.7371 94.1763 31.7371C94.1763 29.8968 94.1763 28.0565 94.1763 26.2162C94.1763 24.6389 93.6508 23.3244 91.8117 23.3244C91.549 23.3244 91.0235 23.3244 90.7608 23.3244C90.2353 23.3244 89.7099 23.5873 89.4472 23.8502C89.1844 24.1131 89.1844 24.376 89.1844 23.8502V23.3244H87.3453C87.3453 26.2162 87.3453 28.8452 87.3453 31.7371C88.1335 31.4742 88.9217 31.4742 89.7099 31.4742ZM81.5653 27.7936C82.3534 27.7936 83.1416 27.7936 83.9298 27.7936C83.9298 28.3194 83.9298 28.5823 83.9298 29.1081C83.9298 29.6339 82.3534 29.6339 81.5653 29.6339C80.7771 29.6339 81.0398 29.6339 81.0398 29.1081C81.0398 28.8452 81.0398 28.5823 81.0398 28.3194C80.7771 27.7936 80.7771 27.7936 81.5653 27.7936ZM75.2597 26.4791V27.5307V28.5823C75.2597 29.1081 74.7343 29.6339 74.2088 29.6339C73.9461 29.6339 73.4206 29.6339 73.1579 29.6339C72.3697 29.6339 72.3697 29.6339 72.3697 28.5823V27.5307V26.2162C72.3697 25.1646 72.3697 25.1646 73.1579 25.1646C73.4206 25.1646 73.9461 25.1646 74.2088 25.1646C74.7343 25.1646 75.2597 25.6904 75.2597 26.2162V26.4791Z" fill="#074624"/>
<defs>
<linearGradient id="paint0_linear_524_98" x1="81.5295" y1="3.08994" x2="89.1131" y2="8.6068" gradientUnits="userSpaceOnUse">
<stop stop-color="#046941"/>
<stop offset="0.3" stop-color="#037B48"/>
<stop offset="1" stop-color="#87C541"/>
</linearGradient>
<linearGradient id="paint1_linear_524_98" x1="91.6756" y1="13.1854" x2="75.3681" y2="1.44047" gradientUnits="userSpaceOnUse">
<stop stop-color="#046941"/>
<stop offset="0.4" stop-color="#037B48"/>
<stop offset="1" stop-color="#87C541"/>
</linearGradient>
</defs>
</svg>
