<svg width="114" height="48" viewBox="0 0 114 48" fill="none" xmlns="http://www.w3.org/2000/svg">
<path d="M87.142 5.39911C85.7703 5.39911 85.168 5.74083 84.4076 6.59342L82.6634 8.62731L80.9209 6.59342C80.1605 5.74083 79.5581 5.39911 78.1865 5.39911H76.1624C76.1624 5.39911 79.3393 9.61043 79.7408 10.0945C80.4119 10.9101 80.8967 11.3081 81.8356 11.3087L83.493 11.3081C84.4319 11.3081 84.9111 10.9117 85.5911 10.0945C85.9904 9.61043 89.1671 5.39911 89.1671 5.39911H87.142Z" fill="#FAB60A"/>
<path d="M74.4313 11.8045C75.1171 12.9923 75.7141 13.3431 76.8328 13.5753L79.4662 14.0691L78.5761 16.5951C78.2179 17.6799 78.2232 18.3724 78.909 19.5602L79.9211 21.3132C79.9211 21.3132 81.9797 16.4563 82.1982 15.8665C82.5689 14.8775 82.6713 14.2587 82.2023 13.4452L81.3731 12.0103C80.9037 11.1972 80.3209 10.9802 79.2731 10.8C78.6541 10.6964 73.4187 10.0507 73.4187 10.0507L74.4313 11.8045Z" fill="#F4911A"/>
<path d="M86.3657 19.5619C87.0516 18.3741 87.0567 17.6816 86.6986 16.5967L85.8093 14.0693L88.442 13.5772C89.5606 13.345 90.1577 12.9941 90.8435 11.8063L91.8556 10.0533C91.8556 10.0533 86.62 10.6988 85.9999 10.8047C84.958 10.9781 84.3709 11.1989 83.9012 12.0117L83.0729 13.4474C82.6034 14.2603 82.707 14.8735 83.0749 15.8711C83.2944 16.4589 85.3532 21.3156 85.3532 21.3156L86.3657 19.5619Z" fill="#F1771D"/>
<path d="M72.5909 23.2469C72.7189 23.1803 72.7213 23.1867 72.8348 23.1104C73.9394 22.4846 74.7738 21.3265 74.7738 19.9047C74.7728 17.18 72.6804 16.1063 69.6277 16.1097C69.6277 16.1097 63.5159 16.1063 63.1204 16.1063C62.6164 16.1063 62.3537 16.407 62.3537 16.9233V30.8603C62.3537 31.4985 62.6211 31.7443 63.0663 31.7443C63.5125 31.7492 70.4056 31.7492 70.4056 31.7492C73.5133 31.7492 75.8021 30.3052 75.8021 27.1276C75.8021 25.1784 74.6055 23.7097 72.5909 23.2469ZM66.0233 18.5515H69.3954C70.7685 18.5515 71.5231 19.1322 71.5231 20.3527C71.5231 21.5848 70.6573 22.2192 69.4923 22.2192H66.0214L66.0233 18.5515ZM69.9632 28.9435H66.0214V24.6644H69.9986C71.6045 24.6644 72.7457 25.3339 72.7457 26.8426C72.7457 28.4985 71.3245 28.9435 69.9632 28.9435ZM58.8831 16.1063H56.6396C56.2471 16.1097 55.9285 16.4109 55.9254 16.7859V31.0688C55.9285 31.4436 56.2461 31.7492 56.6396 31.7492H58.8831C59.2742 31.7443 59.5931 31.4436 59.5931 31.0688V16.7865C59.5931 16.4125 59.2742 16.1063 58.8831 16.1063ZM53.3382 16.1078H51.456C50.8396 16.1078 50.6564 16.3502 50.4585 17.2092C49.7591 20.2318 48.9049 24.9798 47.2094 27.4869C47.2094 27.4869 46.8171 28.1476 46.2941 28.1476C45.7647 28.1462 45.3728 27.4869 45.3728 27.4869C43.6817 24.9798 42.531 20.2318 41.8364 17.2092C41.6352 16.3502 41.4519 16.1078 40.8365 16.1063L38.9503 16.1078C38.315 16.1078 38.1275 16.6487 38.2203 17.1158C38.8162 20.2102 39.8347 24.9256 42.2214 29.0024C43.3517 30.9334 44.4094 31.9931 46.2907 32C48.1718 31.9931 49.2316 30.9334 50.3593 29.0024C52.7462 24.9256 53.4758 20.209 54.0694 17.1173C54.1618 16.6487 53.975 16.1078 53.3382 16.1078Z" fill="#0465B1"/>
</svg>
