<svg width="114" height="48" viewBox="0 0 114 48" fill="none" xmlns="http://www.w3.org/2000/svg">
<path d="M33.8226 18.107C34.1825 18.107 34.3713 18.5342 34.1284 18.8006L23.8669 30.7352C23.8669 30.7352 23.0646 31.7628 21.5326 31.978V25.6899L26.2813 20.185C27.419 18.8656 29.0748 18.107 30.8171 18.107H33.8226ZM11.4203 18.107C13.1626 18.107 14.8184 18.8656 15.9564 20.185L20.7051 25.6899V31.978C19.1728 31.7628 18.3708 30.7352 18.3708 30.7352L8.10897 18.8006C7.8664 18.5345 8.05523 18.107 8.41508 18.107H11.4203ZM27.1866 10.3843V16.5154C27.1866 17.3856 26.8737 18.2267 26.3054 18.8856L21.5327 24.4189V15.8393L26.469 10.1177C26.7161 9.83122 27.1866 10.0061 27.1866 10.3843ZM15.051 10.3843C15.051 10.0061 15.5213 9.83122 15.7687 10.1177L20.705 15.8393V24.4189L15.932 18.8856C15.3637 18.2267 15.051 17.3856 15.051 16.5154V10.3843Z" fill="#E10600"/>
<path d="M104.534 19.0114V19.365H104.711C104.888 19.365 104.977 19.3044 104.977 19.1827C104.977 19.069 104.888 19.0114 104.711 19.0114H104.534ZM104.202 20.2114V18.718H104.733C104.903 18.718 105.034 18.7456 105.126 18.8012C105.248 18.8899 105.309 19.0114 105.309 19.166C105.309 19.3914 105.206 19.5404 104.999 19.6147C105.05 19.6922 105.172 19.8908 105.364 20.2114H104.977L104.65 19.6589H104.534V20.2114H104.202ZM105.746 19.4537C105.746 19.166 105.643 18.9187 105.439 18.7124C105.234 18.506 104.992 18.4027 104.711 18.4027C104.423 18.4027 104.179 18.5054 103.978 18.7094C103.777 18.9146 103.676 19.1628 103.676 19.4537C103.676 19.7453 103.776 19.9935 103.976 20.1981C104.174 20.4029 104.418 20.5051 104.706 20.5051C104.989 20.5051 105.234 20.4029 105.439 20.1981C105.643 19.9935 105.746 19.7453 105.746 19.4537ZM105.621 18.5384C105.874 18.7911 106 19.0963 106 19.4537C106 19.8115 105.874 20.1167 105.621 20.3694C105.369 20.6224 105.063 20.7485 104.706 20.7485C104.352 20.7485 104.048 20.6224 103.796 20.3694C103.543 20.1167 103.417 19.8115 103.417 19.4537C103.417 19.0963 103.542 18.7911 103.793 18.5384C104.044 18.2857 104.35 18.1595 104.711 18.1595C105.065 18.1595 105.369 18.2857 105.621 18.5384Z" fill="#00B74F"/>
<path d="M103.686 22.0729H102.128C101.224 22.0729 100.366 22.4663 99.7756 23.1503L97.3134 26.0051V29.2659C98.1079 29.1543 98.5238 28.6214 98.5238 28.6214L103.845 22.4324C103.971 22.2947 103.873 22.0729 103.686 22.0729Z" fill="#E10600"/>
<path d="M78.0107 21.8075C79.4003 21.8075 80.4724 22.2841 81.2461 23.2567V22.0857H83.8069V32.0106H81.2461V30.8396C80.4724 31.8123 79.4003 32.2888 78.0107 32.2888C76.6806 32.2888 75.5491 31.7924 74.5967 30.7802C73.6635 29.7678 73.1873 28.5172 73.1873 27.0482C73.1873 25.5794 73.6635 24.3487 74.5967 23.3363C75.5491 22.3238 76.6806 21.8075 78.0107 21.8075ZM99.9612 27.1965L103.909 32.0108H101.074C101.074 32.0108 99.9588 30.6201 99.213 29.7279C98.7941 29.2267 98.8054 28.4934 99.24 28.0058L99.9612 27.1965ZM40.1589 18.1154L43.5537 28.795L46.928 18.1154H49.9255L45.241 32.0107H41.8465L37.1816 18.1154H40.1589ZM56.3481 18.1154C57.6782 18.1154 58.8097 18.572 59.7227 19.4654C60.6356 20.3585 61.0923 21.4704 61.0923 22.7803C61.0923 24.0906 60.6356 25.2022 59.7227 26.0952C58.8097 26.9886 57.6782 27.4453 56.3481 27.4453H53.9066V32.0107H51.1671V18.1154H56.3481ZM67.8549 18.1154C69.0458 18.1154 70.0383 18.4927 70.8521 19.227C71.6662 19.9615 72.0831 20.8947 72.0831 22.0262C72.0831 23.1773 71.646 24.1104 70.7729 24.8049C71.9836 25.4996 72.5988 26.572 72.5988 27.9811C72.5988 29.1524 72.1822 30.1248 71.3482 30.8792C70.5148 31.6336 69.4825 32.0107 68.2717 32.0107H62.3761V18.1154H67.8549ZM90.1658 21.8075C91.2572 21.8075 92.1506 22.165 92.8457 22.8995C93.5603 23.634 93.9175 24.6263 93.9175 25.9166V32.0106H91.3567V26.2343C91.3567 24.9045 90.5827 24.1898 89.3915 24.1898C88.0617 24.1898 87.2081 25.0037 87.2081 26.6512V32.0106H84.6476V22.0857H87.2081V23.1973C87.8236 22.2641 88.8161 21.8075 90.1658 21.8075ZM97.3186 18.1154V32.0108H94.7582V18.1154H97.3186ZM78.4656 24.1608C76.8772 24.1608 75.5892 25.4487 75.5892 27.0369C75.5892 28.6256 76.8772 29.9133 78.4656 29.9133C80.0543 29.9133 81.342 28.6256 81.342 27.0369C81.342 25.4487 80.0543 24.1608 78.4656 24.1608ZM68.2717 26.1751H65.1154V29.4502H68.2717C69.2049 29.4502 69.8795 28.7555 69.8795 27.8024C69.8795 26.8698 69.2049 26.1751 68.2717 26.1751ZM56.3481 20.6762H53.9066V24.8845H56.3481C57.5193 24.8845 58.3729 23.9715 58.3729 22.7803C58.3729 21.5696 57.5193 20.6762 56.3481 20.6762ZM67.8549 20.6761H65.1154V23.7331H67.8549C68.7085 23.7331 69.3436 23.0781 69.3436 22.2049C69.3436 21.3311 68.7281 20.6761 67.8549 20.6761Z" fill="#00B74F"/>
</svg>
