<svg width="114" height="48" viewBox="0 0 114 48" fill="none" xmlns="http://www.w3.org/2000/svg">
<path fill-rule="evenodd" clip-rule="evenodd" d="M94.4441 27.3742C97.7166 27.3742 100.586 25.6431 102.27 22.9872C99.922 21.7066 97.266 20.9715 94.4441 20.9715C91.6222 20.9715 88.9662 21.6829 86.6185 22.9635C88.2785 25.6194 91.1716 27.3742 94.4441 27.3742Z" fill="#D61D4B"/>
<path d="M35.7524 25.6194V28.631C35.7524 29.2476 36.2267 29.8167 36.8907 29.8167C36.9144 29.8167 36.9618 29.8167 37.0567 29.8167V31.9747L36.2504 31.9984C34.3059 31.9984 33.4047 30.3147 33.4047 29.1764V25.5957H32.219V23.6511H33.4047V21.6117H35.7524V23.6748H37.0567V25.6194H35.7524ZM31.7685 28.5836C31.7922 28.4176 31.8159 28.1093 31.8396 27.9196C31.8871 26.7102 31.4365 25.5957 30.6539 24.7182C29.8477 23.8408 28.7805 23.3903 27.666 23.3903C26.5514 23.3903 25.4843 23.8408 24.6781 24.7182C23.8718 25.5957 23.4924 26.6865 23.4924 27.801C23.4924 28.9156 23.8718 30.0776 24.7018 30.9313C25.5317 31.785 26.5277 32.2118 27.6897 32.2118C28.5671 32.2118 29.3734 31.951 30.0848 31.4055C30.7488 30.9076 31.3179 30.1013 31.5788 29.3424H29.326C28.9465 30.0539 28.2114 30.3621 27.6423 30.3621C26.5514 30.3621 25.7689 29.4373 25.7215 28.5362H31.7685V28.5836ZM25.7689 26.9236C25.9349 25.9276 26.7886 25.2874 27.6423 25.2874C28.5434 25.2874 29.3497 25.9751 29.5157 26.9236H25.7689ZM20.2199 31.9984H22.5675V23.6748H22.3304C21.2395 23.6748 20.1961 24.5522 20.1961 25.8802L20.2199 31.9984ZM38.0052 31.9984H40.3529V23.6748H40.1157C39.0249 23.6748 38.0052 24.5522 38.0052 25.8802V31.9984ZM48.961 31.9984V26.4019C48.961 24.9554 47.8465 23.4377 46.0679 23.4377C45.0719 23.4377 44.242 23.9831 43.8151 24.5997H43.7677V23.7223H41.5386V32.0221H43.9337V27.0422C43.9337 26.4968 44.2894 25.6668 45.2854 25.6668C46.0916 25.6668 46.5659 26.3545 46.5659 26.9948V32.0221H48.961V31.9984ZM68.1455 23.6748V31.9747H65.7741V31.0735H65.7504C65.5607 31.4767 65.2287 31.785 64.7544 31.9747C64.3513 32.1644 63.9244 32.2355 63.4502 32.2355C62.2645 32.2355 61.2922 31.8087 60.5571 30.9313C59.8456 30.1013 59.4899 29.0342 59.4899 27.801C59.4899 26.5679 59.8457 25.5245 60.5808 24.6708C61.3396 23.7934 62.2882 23.3666 63.4502 23.3666C63.9244 23.3666 64.3513 23.4614 64.7544 23.6274C65.205 23.8408 65.537 24.1254 65.7504 24.5285H65.7741V23.6511H68.1455V23.6748ZM65.205 29.3424C65.5607 28.9393 65.7504 28.4413 65.7504 27.8248C65.7504 27.2082 65.5607 26.7102 65.205 26.3071C64.8493 25.9039 64.375 25.7142 63.8059 25.7142C63.2367 25.7142 62.7862 25.9276 62.4305 26.3545C62.0747 26.7576 61.9088 27.2556 61.9088 27.8722C61.9088 28.4413 62.0985 28.9393 62.4542 29.3424C62.8336 29.7456 63.2842 29.959 63.8296 29.959C64.375 29.9353 64.8493 29.7456 65.205 29.3424ZM91.6933 14.8533H97.1949V19.8569C99.2343 20.1889 101.155 20.8529 102.934 21.8252C103.503 20.5683 103.835 19.1692 103.835 17.699C103.835 12.3396 99.6375 8 94.4678 8C89.2982 8 85.1246 12.3396 85.1246 17.699C85.1246 19.1692 85.4329 20.5683 86.002 21.8252C87.7568 20.8529 89.7014 20.1889 91.7407 19.8569V14.8533H91.6933ZM76.7536 31.9984V26.4019C76.7536 24.9554 75.6391 23.4377 73.8605 23.4377C72.8645 23.4377 72.0346 23.9831 71.6077 24.5997H71.5603V23.7223H69.3312V32.0221H71.7263V27.0422C71.7263 26.4968 72.082 25.6668 73.078 25.6668C73.8842 25.6668 74.3585 26.3545 74.3585 26.9948V32.0221H76.7536V31.9984ZM15.4534 31.9984C16.0699 31.9984 16.8999 31.6664 17.2793 30.623C18.2753 27.967 21.3107 19.9755 21.3107 19.9755H18.8919L15.9988 27.6113L13.1057 19.9755H10.1652L14.7182 31.9984H15.4534ZM56.9289 25.5482C58.6362 26.0936 58.8734 27.5165 58.8734 28.3465C58.9208 30.2436 57.5928 31.9984 54.676 31.9984H50.1704V19.9755H54.6049C56.9763 19.9518 58.0197 21.3272 58.2331 22.3469C58.3754 23.1768 58.4702 24.6708 56.9289 25.5482ZM52.8738 24.6945H54.6286C55.2452 24.6945 55.8854 24.2203 55.8854 23.4377C55.8854 22.7737 55.34 22.1809 54.6286 22.1809H52.8738V24.6945ZM55.0792 29.7693C55.7669 29.7693 56.4309 29.2002 56.4309 28.299C56.4309 27.7773 56.0277 26.9236 55.0317 26.9236H52.8501V29.7693H55.0792ZM82.5872 27.3742L85.9783 23.6748H82.9666L80.3818 26.6391V22.1334C80.3818 20.8292 79.3384 19.9281 78.2476 19.9281H77.9156V31.9747H80.3581V28.2516L82.7769 31.9747H85.9309L82.5872 27.3742Z" fill="#005993"/>
</svg>
